{"glyphs":{"0":{"ha":778,"x_min":39,"x_max":739,"o":"m 386 1023 q 574 969 495 1023 q 696 805 653 916 q 739 498 739 695 q 695 189 739 300 q 578 27 652 79 q 391 -25 504 -25 q 202 27 279 -25 q 82 186 125 79 q 39 489 39 292 q 123 887 39 764 q 386 1023 218 1023 m 391 842 q 305 811 342 842 q 248 705 268 781 q 229 485 229 630 q 274 223 229 296 q 391 151 319 151 q 500 220 460 151 q 550 496 550 302 q 506 768 550 693 q 391 842 461 842 z "},"1":{"ha":778,"x_min":119,"x_max":513,"o":"m 229 998 l 513 998 l 513 0 l 324 0 l 324 819 l 119 819 l 229 998 z "},"2":{"ha":778,"x_min":30,"x_max":721,"o":"m 242 676 l 57 676 q 158 930 64 838 q 399 1023 252 1023 q 560 984 490 1023 q 671 874 629 946 q 713 727 713 802 q 662 536 713 638 q 477 294 612 433 l 366 176 l 721 176 l 721 0 l 30 0 l 30 91 l 338 406 q 487 588 450 519 q 524 712 524 656 q 486 807 524 770 q 387 845 448 845 q 286 800 326 845 q 242 676 245 754 z "},"3":{"ha":778,"x_min":41,"x_max":730,"o":"m 264 751 l 81 751 q 161 929 96 862 q 389 1023 252 1023 q 595 945 512 1023 q 678 760 678 867 q 642 638 678 693 q 536 549 606 583 q 679 455 627 522 q 730 296 730 387 q 631 68 730 161 q 378 -25 532 -25 q 142 63 233 -25 q 41 302 50 151 l 229 302 q 283 187 241 224 q 389 149 325 149 q 499 192 455 149 q 543 296 543 235 q 484 411 543 364 q 313 459 425 458 l 313 622 q 415 643 382 627 q 468 687 449 659 q 486 746 486 715 q 458 813 486 787 q 383 840 429 840 q 309 815 342 840 q 264 751 276 791 z "},"4":{"ha":778,"x_min":28,"x_max":739,"o":"m 460 1023 l 650 1023 l 650 380 l 739 380 l 739 205 l 650 205 l 650 0 l 464 0 l 464 205 l 28 205 l 28 380 l 460 1023 m 464 380 l 464 715 l 236 380 l 464 380 z "},"5":{"ha":778,"x_min":33,"x_max":713,"o":"m 232 998 l 699 998 l 699 823 l 374 823 l 333 641 q 366 648 350 646 q 397 650 382 650 q 623 558 533 650 q 713 321 713 465 q 613 75 713 175 q 372 -25 514 -25 q 153 47 244 -25 q 33 246 61 120 l 232 246 q 293 175 255 199 q 376 151 330 151 q 483 197 439 151 q 527 313 527 242 q 486 427 527 382 q 387 471 445 471 q 325 456 355 471 q 266 409 295 440 l 111 444 l 232 998 z "},"6":{"ha":778,"x_min":68,"x_max":694,"o":"m 403 1023 l 564 942 l 390 603 q 606 512 517 603 q 694 286 694 421 q 603 65 694 156 q 383 -25 512 -25 q 158 69 248 -25 q 68 284 68 163 q 82 377 68 330 q 146 521 96 424 l 403 1023 m 379 423 q 290 385 326 423 q 254 289 254 347 q 292 192 254 231 q 380 153 330 153 q 471 191 433 153 q 509 289 509 230 q 472 385 509 347 q 379 423 435 423 z "},"7":{"ha":778,"x_min":83,"x_max":738,"o":"m 83 998 l 738 998 l 738 898 l 288 -25 l 127 53 l 501 819 l 83 819 l 83 998 z "},"8":{"ha":778,"x_min":43,"x_max":735,"o":"m 593 541 q 698 429 661 497 q 735 281 735 361 q 692 122 735 195 q 576 12 649 49 q 391 -25 504 -25 q 199 11 271 -25 q 85 118 128 46 q 43 281 43 191 q 77 425 43 360 q 180 541 111 490 q 112 637 135 586 q 90 745 90 688 q 127 887 90 823 q 233 987 165 951 q 389 1023 300 1023 q 543 987 477 1023 q 648 885 610 951 q 686 743 686 819 q 666 643 686 689 q 593 541 646 597 m 383 840 q 306 809 336 840 q 276 730 276 778 q 308 649 276 682 q 387 616 340 616 q 466 648 435 616 q 496 731 496 680 q 465 809 496 779 q 383 840 434 840 m 391 439 q 275 398 322 439 q 229 298 229 356 q 273 196 229 238 q 389 155 317 155 q 504 194 461 155 q 547 294 547 233 q 503 398 547 356 q 391 439 458 439 z "},"9":{"ha":778,"x_min":83,"x_max":709,"o":"m 375 -25 l 214 55 l 388 394 q 172 485 261 394 q 83 711 83 576 q 175 932 83 842 q 395 1023 266 1023 q 620 929 530 1023 q 709 713 709 835 q 695 620 709 667 q 631 477 682 574 l 375 -25 m 399 574 q 488 612 452 574 q 524 708 524 651 q 486 806 524 766 q 398 845 448 845 q 307 806 345 845 q 269 709 269 767 q 306 612 269 651 q 399 574 343 574 z "}," ":{"ha":389,"x_min":0,"x_max":0,"o":""},"!":{"ha":389,"x_min":78,"x_max":311,"o":"m 100 1023 l 288 1023 l 288 294 l 100 294 l 100 1023 m 194 213 q 276 179 242 213 q 311 97 311 145 q 276 15 311 50 q 194 -19 242 -19 q 112 15 146 -19 q 78 97 78 49 q 112 179 78 145 q 194 213 146 213 z "},"\"":{"ha":500,"x_min":21,"x_max":481,"o":"m 443 681 l 337 681 l 300 1023 l 481 1023 l 443 681 m 164 681 l 58 681 l 21 1023 l 202 1023 l 164 681 z "},"#":{"ha":833,"x_min":41,"x_max":791,"o":"m 753 460 l 753 325 l 596 325 l 548 0 l 412 0 l 459 325 l 330 325 l 282 0 l 146 0 l 194 325 l 41 325 l 41 460 l 215 460 l 235 587 l 84 587 l 84 722 l 254 722 l 298 1023 l 431 1023 l 389 722 l 518 722 l 562 1023 l 699 1023 l 654 722 l 791 722 l 791 587 l 635 587 l 617 460 l 753 460 m 499 587 l 368 587 l 350 460 l 478 460 l 499 587 z "},"$":{"ha":778,"x_min":47,"x_max":743,"o":"m 705 882 l 574 755 q 397 847 484 847 q 313 820 345 847 q 281 756 281 792 q 309 696 281 726 q 422 631 337 665 q 628 524 572 568 q 713 418 684 480 q 743 280 743 357 q 711 138 743 203 q 629 35 680 73 q 485 -22 579 -3 l 485 -203 l 357 -203 l 357 -26 q 206 18 269 -16 q 47 144 121 66 l 176 277 q 416 144 300 144 q 518 185 475 144 q 560 282 560 227 q 533 364 560 329 q 426 436 505 399 q 208 554 264 511 q 122 653 151 598 q 94 769 94 707 q 169 944 94 871 q 357 1023 243 1017 l 357 1090 l 485 1090 l 485 1014 q 596 972 551 998 q 705 882 642 945 z "},"%":{"ha":1194,"x_min":28,"x_max":1166,"o":"m 917 1042 l 1054 1042 l 263 -68 l 126 -68 l 802 885 q 688 870 741 875 q 589 865 634 865 q 490 869 542 865 q 505 783 505 822 q 436 615 505 684 q 268 546 367 546 q 98 615 168 546 q 28 783 28 684 q 60 901 28 846 q 148 989 91 956 q 260 1023 204 1023 q 376 1006 302 1023 q 606 978 507 978 q 774 994 696 978 q 917 1042 852 1010 m 267 899 q 185 865 219 899 q 152 785 152 831 q 185 704 152 737 q 267 670 219 670 q 348 704 314 670 q 381 785 381 737 q 348 865 381 832 q 267 899 314 899 m 928 450 q 1096 380 1026 450 q 1166 211 1166 310 q 1096 43 1166 113 q 928 -27 1026 -27 q 759 43 829 -27 q 690 211 690 113 q 759 380 690 310 q 928 450 829 450 m 927 327 q 845 293 879 327 q 812 212 812 259 q 845 130 812 164 q 927 96 879 96 q 1008 130 975 96 q 1042 212 1042 164 q 1008 293 1042 259 q 927 327 975 327 z "},"&":{"ha":945,"x_min":66,"x_max":910,"o":"m 739 392 l 852 262 l 801 216 l 750 170 l 910 0 l 680 0 l 614 68 q 322 -25 457 -25 q 137 42 208 -25 q 66 214 66 109 q 106 364 66 294 q 243 510 146 435 q 147 739 147 640 q 211 885 147 813 q 391 957 275 957 q 571 886 508 957 q 633 742 633 814 q 605 633 633 685 q 472 478 576 581 q 629 300 593 335 q 739 392 650 316 m 378 612 q 454 726 454 676 q 437 768 454 751 q 392 784 420 784 q 348 766 366 784 q 330 723 330 747 q 378 612 330 674 m 491 199 q 344 370 439 251 q 243 224 243 287 q 270 171 243 195 q 340 146 298 146 q 491 199 400 146 z "},"'":{"ha":306,"x_min":62,"x_max":243,"o":"m 205 681 l 100 681 l 62 1023 l 243 1023 l 205 681 z "},"(":{"ha":528,"x_min":63,"x_max":492,"o":"m 258 1042 l 492 1042 q 312 746 372 905 q 253 382 253 587 q 319 -8 253 160 q 492 -289 370 -138 l 258 -289 q 106 34 149 -117 q 63 387 63 184 q 109 736 63 587 q 258 1042 154 886 z "},")":{"ha":528,"x_min":36,"x_max":465,"o":"m 271 -289 l 36 -289 q 216 6 157 -153 q 275 371 275 165 q 210 760 275 593 q 36 1042 158 890 l 271 1042 q 422 719 379 869 q 465 366 465 569 q 420 16 465 166 q 271 -289 374 -134 z "},"*":{"ha":611,"x_min":35,"x_max":576,"o":"m 224 1023 l 397 1023 l 343 819 l 496 963 l 576 814 l 369 761 l 576 702 l 486 555 l 338 702 l 391 498 l 224 498 l 277 702 l 125 555 l 35 702 l 243 761 l 35 819 l 125 970 l 277 819 l 224 1023 z "},"+":{"ha":833,"x_min":78,"x_max":755,"o":"m 332 583 l 332 838 l 502 838 l 502 583 l 755 583 l 755 414 l 502 414 l 502 160 l 332 160 l 332 414 l 78 414 l 78 583 l 332 583 z "},",":{"ha":389,"x_min":55,"x_max":315,"o":"m 182 188 l 315 121 l 147 -165 l 55 -121 l 182 188 z "},"-":{"ha":583,"x_min":119,"x_max":464,"o":"m 119 454 l 464 454 l 464 281 l 119 281 l 119 454 z "},"­":{"ha":583,"x_min":119,"x_max":464,"o":"m 119 454 l 464 454 l 464 281 l 119 281 l 119 454 z "},".":{"ha":389,"x_min":88,"x_max":301,"o":"m 195 193 q 270 162 239 193 q 301 87 301 132 q 270 12 301 43 q 195 -19 239 -19 q 119 12 151 -19 q 88 87 88 43 q 119 162 88 132 q 195 193 151 193 z "},"/":{"ha":639,"x_min":30,"x_max":610,"o":"m 30 -178 l 478 1026 l 610 1026 l 161 -178 l 30 -178 z "},":":{"ha":389,"x_min":88,"x_max":301,"o":"m 195 757 q 270 726 239 757 q 301 650 301 694 q 270 576 301 607 q 195 545 239 545 q 119 575 151 545 q 88 650 88 606 q 119 726 88 694 q 195 757 151 757 m 195 193 q 270 162 239 193 q 301 87 301 132 q 270 12 301 43 q 195 -19 239 -19 q 119 12 151 -19 q 88 87 88 43 q 119 162 88 132 q 195 193 151 193 z "},";":{"ha":389,"x_min":54,"x_max":313,"o":"m 195 757 q 270 726 239 757 q 301 650 301 694 q 270 575 301 606 q 195 545 239 545 q 119 575 151 545 q 88 650 88 606 q 119 726 88 694 q 195 757 151 757 m 184 189 l 313 121 l 147 -165 l 54 -120 l 184 189 z "},";":{"ha":389,"x_min":54,"x_max":313,"o":"m 195 757 q 270 726 239 757 q 301 650 301 694 q 270 575 301 606 q 195 545 239 545 q 119 575 151 545 q 88 650 88 606 q 119 726 88 694 q 195 757 151 757 m 184 189 l 313 121 l 147 -165 l 54 -120 l 184 189 z "},"<":{"ha":833,"x_min":78,"x_max":755,"o":"m 755 248 l 755 79 l 78 423 l 78 574 l 755 918 l 755 749 l 273 498 l 755 248 z "},"=":{"ha":833,"x_min":78,"x_max":755,"o":"m 78 728 l 755 728 l 755 559 l 78 559 l 78 728 m 78 438 l 755 438 l 755 269 l 78 269 l 78 438 z "},">":{"ha":833,"x_min":78,"x_max":755,"o":"m 78 749 l 78 918 l 755 574 l 755 423 l 78 79 l 78 248 l 562 498 l 78 749 z "},"?":{"ha":778,"x_min":66,"x_max":707,"o":"m 245 740 l 68 740 q 157 956 66 871 q 397 1042 248 1042 q 559 1006 492 1042 q 667 905 627 971 q 707 765 707 838 q 694 686 707 725 q 654 607 682 648 q 576 527 637 583 q 502 451 517 473 q 477 393 487 429 q 464 291 467 356 l 280 291 l 279 321 q 313 487 279 412 q 420 626 346 561 q 507 713 492 689 q 522 768 522 736 q 486 842 522 812 q 389 872 450 872 q 286 835 326 872 q 245 740 246 798 m 375 214 q 459 180 425 214 q 494 98 494 146 q 460 15 494 50 q 376 -19 425 -19 q 293 15 328 -19 q 259 98 259 50 q 293 180 259 146 q 375 214 327 214 z "},"@":{"ha":1027,"x_min":5,"x_max":1022,"o":"m 833 204 l 962 204 q 831 71 888 113 q 698 5 774 29 q 540 -18 622 -18 q 271 53 395 -18 q 76 245 146 123 q 5 511 5 368 q 76 781 5 656 q 270 975 147 906 q 538 1044 392 1044 q 882 913 742 1044 q 1022 609 1022 783 q 963 390 1022 481 q 804 246 905 298 q 674 207 726 207 q 611 228 635 207 q 591 279 593 243 q 446 214 532 214 q 286 282 350 214 q 222 465 222 351 q 300 689 222 590 q 509 787 379 787 q 605 765 563 787 q 677 699 647 743 l 691 770 l 824 770 l 757 374 q 750 327 750 332 q 757 313 750 319 q 774 307 764 307 q 838 339 798 307 q 904 434 878 372 q 929 570 929 496 q 881 764 929 680 q 743 897 833 848 q 536 945 652 945 q 315 890 413 945 q 161 735 218 836 q 105 515 105 635 q 162 293 105 393 q 321 138 219 193 q 551 82 424 82 q 692 110 625 82 q 833 204 758 138 m 501 357 q 599 405 560 357 q 637 515 637 454 q 606 601 637 568 q 527 635 574 635 q 430 589 471 635 q 389 478 389 543 q 420 390 389 423 q 501 357 451 357 z "},"A":{"ha":1027,"x_min":33,"x_max":994,"o":"m 418 998 l 610 998 l 994 0 l 797 0 l 719 205 l 312 205 l 231 0 l 33 0 l 418 998 m 515 733 l 382 391 l 648 391 l 515 733 z "},"B":{"ha":806,"x_min":114,"x_max":738,"o":"m 114 0 l 114 998 l 271 998 q 470 980 407 998 q 612 892 559 956 q 665 740 665 827 q 641 636 665 683 q 563 549 617 590 q 696 443 654 507 q 738 291 738 378 q 694 138 738 207 q 583 34 651 68 q 393 0 514 0 l 114 0 m 304 817 l 304 606 l 345 606 q 448 635 414 606 q 481 715 481 665 q 450 789 481 762 q 353 817 418 817 l 304 817 m 304 437 l 304 181 l 351 181 q 510 211 469 181 q 551 298 551 241 q 503 399 551 362 q 343 437 455 437 l 304 437 z "},"C":{"ha":1083,"x_min":64,"x_max":1031,"o":"m 1031 822 l 898 695 q 593 838 762 838 q 352 741 450 838 q 254 500 254 643 q 297 323 254 400 q 420 201 340 245 q 596 157 499 157 q 747 188 679 157 q 898 300 816 219 l 1027 166 q 818 17 916 58 q 593 -25 720 -25 q 213 122 361 -25 q 64 500 64 270 q 132 766 64 650 q 325 952 199 882 q 596 1023 451 1023 q 834 970 720 1023 q 1031 822 948 918 z "},"D":{"ha":972,"x_min":115,"x_max":906,"o":"m 115 998 l 340 998 q 663 944 557 998 q 838 768 769 890 q 906 485 906 647 q 868 273 906 370 q 762 113 829 176 q 616 24 694 49 q 343 0 537 0 l 115 0 l 115 998 m 304 814 l 304 186 l 392 186 q 581 216 522 186 q 677 316 640 245 q 714 490 714 387 q 625 736 714 648 q 368 814 545 814 l 304 814 z "},"E":{"ha":722,"x_min":115,"x_max":659,"o":"m 115 998 l 659 998 l 659 812 l 303 812 l 303 631 l 659 631 l 659 449 l 303 449 l 303 186 l 659 186 l 659 0 l 115 0 l 115 998 z "},"F":{"ha":667,"x_min":117,"x_max":612,"o":"m 117 998 l 612 998 l 612 812 l 304 812 l 304 631 l 612 631 l 612 449 l 304 449 l 304 0 l 117 0 l 117 998 z "},"G":{"ha":1166,"x_min":69,"x_max":1106,"o":"m 1035 835 l 901 703 q 606 837 774 837 q 359 739 458 837 q 260 502 260 642 q 363 257 260 357 q 617 157 466 157 q 783 198 715 157 q 892 328 850 239 l 603 328 l 603 506 l 1105 506 l 1106 464 q 1038 216 1106 333 q 863 37 970 98 q 610 -25 755 -25 q 333 42 454 -25 q 140 235 211 110 q 69 504 69 359 q 200 848 69 702 q 604 1023 355 1023 q 848 975 734 1023 q 1035 835 943 934 z "},"H":{"ha":945,"x_min":113,"x_max":831,"o":"m 113 998 l 306 998 l 306 621 l 640 621 l 640 998 l 831 998 l 831 0 l 640 0 l 640 437 l 306 437 l 306 0 l 113 0 l 113 998 z "},"I":{"ha":389,"x_min":100,"x_max":289,"o":"m 100 998 l 289 998 l 289 0 l 100 0 l 100 998 z "},"J":{"ha":667,"x_min":26,"x_max":553,"o":"m 362 998 l 553 998 l 553 336 q 528 114 553 178 q 445 13 503 50 q 307 -25 387 -25 q 26 119 142 -25 l 163 248 q 240 178 208 196 q 302 161 272 161 q 347 186 332 161 q 362 300 362 212 l 362 998 z "},"K":{"ha":861,"x_min":115,"x_max":840,"o":"m 115 998 l 307 998 l 307 654 l 578 998 l 806 998 l 458 553 l 840 0 l 615 0 l 307 443 l 307 0 l 115 0 l 115 998 z "},"L":{"ha":611,"x_min":114,"x_max":581,"o":"m 114 998 l 304 998 l 304 181 l 581 181 l 581 0 l 114 0 l 114 998 z "},"M":{"ha":1250,"x_min":38,"x_max":1212,"o":"m 210 998 l 396 998 l 627 302 l 861 998 l 1044 998 l 1212 0 l 1029 0 l 922 630 l 709 0 l 542 0 l 332 630 l 223 0 l 38 0 l 210 998 z "},"N":{"ha":1027,"x_min":115,"x_max":914,"o":"m 115 998 l 296 998 l 724 341 l 724 998 l 914 998 l 914 0 l 732 0 l 304 654 l 304 0 l 115 0 l 115 998 z "},"O":{"ha":1166,"x_min":65,"x_max":1101,"o":"m 585 1023 q 949 869 797 1023 q 1101 496 1101 716 q 951 126 1101 277 q 587 -25 801 -25 q 214 130 362 -25 q 65 499 65 286 q 134 762 65 642 q 325 952 203 882 q 585 1023 446 1023 m 583 837 q 351 741 445 837 q 256 496 256 644 q 375 234 256 330 q 587 159 467 159 q 817 256 722 159 q 911 497 911 354 q 816 738 911 640 q 583 837 720 837 z "},"P":{"ha":778,"x_min":113,"x_max":706,"o":"m 113 998 l 315 998 q 550 967 478 998 q 664 870 623 937 q 706 708 706 802 q 651 534 706 604 q 503 438 597 465 q 303 422 448 422 l 303 0 l 113 0 l 113 998 m 303 608 l 363 608 q 463 618 435 608 q 506 651 490 628 q 522 708 522 675 q 477 792 522 766 q 357 812 445 812 l 303 812 l 303 608 z "},"Q":{"ha":1166,"x_min":65,"x_max":1143,"o":"m 970 146 l 1143 -79 l 918 -79 l 830 35 q 587 -25 721 -25 q 214 130 362 -25 q 65 499 65 285 q 134 762 65 642 q 325 952 203 882 q 585 1023 446 1023 q 949 869 797 1023 q 1101 496 1101 716 q 970 146 1101 293 m 851 299 q 911 497 911 389 q 816 738 911 639 q 585 837 720 837 q 351 741 445 837 q 256 496 256 644 q 375 234 256 330 q 586 159 468 159 q 713 185 654 159 l 535 415 l 762 415 l 851 299 z "},"R":{"ha":806,"x_min":127,"x_max":766,"o":"m 127 998 l 328 998 q 564 968 494 998 q 677 870 634 939 q 720 708 720 802 q 672 544 720 610 q 530 444 625 477 l 766 0 l 559 0 l 334 422 l 317 422 l 317 0 l 127 0 l 127 998 m 317 608 l 376 608 q 502 631 467 608 q 536 710 536 655 q 519 767 536 743 q 473 801 502 791 q 369 812 445 812 l 317 812 l 317 608 z "},"S":{"ha":722,"x_min":28,"x_max":654,"o":"m 637 862 l 496 738 q 346 841 422 841 q 285 821 309 841 q 261 776 261 801 q 278 728 261 751 q 417 600 301 699 q 549 486 526 509 q 630 374 606 427 q 654 258 654 321 q 570 55 654 135 q 349 -25 485 -25 q 163 27 242 -25 q 28 191 84 79 l 187 288 q 353 155 259 155 q 435 184 401 155 q 468 250 468 212 q 443 317 468 283 q 332 421 418 351 q 122 626 170 554 q 75 770 75 699 q 154 948 75 874 q 349 1023 233 1023 q 491 988 423 1023 q 637 862 558 954 z "},"T":{"ha":583,"x_min":16,"x_max":567,"o":"m 16 998 l 567 998 l 567 810 l 385 810 l 385 0 l 193 0 l 193 810 l 16 810 l 16 998 z "},"U":{"ha":889,"x_min":107,"x_max":783,"o":"m 107 998 l 298 998 l 298 352 q 312 234 298 269 q 360 179 327 199 q 441 158 394 158 q 528 181 492 158 q 578 240 564 204 q 592 376 592 275 l 592 998 l 783 998 l 783 403 q 766 194 783 252 q 701 81 749 136 q 591 1 653 27 q 446 -25 528 -25 q 257 25 337 -25 q 142 150 176 75 q 107 403 107 224 l 107 998 z "},"V":{"ha":972,"x_min":38,"x_max":934,"o":"m 38 998 l 233 998 l 484 289 l 739 998 l 934 998 l 574 0 l 391 0 l 38 998 z "},"W":{"ha":1250,"x_min":38,"x_max":1215,"o":"m 38 998 l 225 998 l 369 361 l 547 998 l 705 998 l 886 361 l 1028 998 l 1215 998 l 991 0 l 808 0 l 625 645 l 444 0 l 264 0 l 38 998 z "},"X":{"ha":945,"x_min":28,"x_max":916,"o":"m 49 998 l 262 998 l 471 678 l 682 998 l 896 998 l 578 515 l 916 0 l 702 0 l 471 351 l 243 0 l 28 0 l 365 515 l 49 998 z "},"Y":{"ha":861,"x_min":43,"x_max":819,"o":"m 43 998 l 247 998 l 433 640 l 617 998 l 819 998 l 527 432 l 527 0 l 336 0 l 336 432 l 43 998 z "},"Z":{"ha":694,"x_min":32,"x_max":665,"o":"m 61 998 l 665 998 l 309 182 l 642 182 l 642 0 l 32 0 l 387 810 l 61 810 l 61 998 z "},"[":{"ha":444,"x_min":115,"x_max":412,"o":"m 115 1023 l 412 1023 l 412 850 l 302 850 l 302 -98 l 412 -98 l 412 -270 l 115 -270 l 115 1023 z "},"\\":{"ha":889,"x_min":155,"x_max":734,"o":"m 734 -178 l 603 -178 l 155 1026 l 286 1026 l 734 -178 z "},"]":{"ha":444,"x_min":33,"x_max":330,"o":"m 330 -270 l 33 -270 l 33 -97 l 142 -97 l 142 850 l 33 850 l 33 1023 l 330 1023 l 330 -270 z "},"^":{"ha":833,"x_min":74,"x_max":759,"o":"m 337 998 l 494 998 l 759 248 l 595 248 l 417 755 l 239 248 l 74 248 l 337 998 z "},"_":{"ha":694,"x_min":-8,"x_max":703,"o":"m -8 -104 l 703 -104 l 703 -174 l -8 -174 l -8 -104 z "},"`":{"ha":583,"x_min":40,"x_max":421,"o":"m 259 1139 l 421 873 l 288 873 l 40 1139 l 259 1139 z "},"a":{"ha":917,"x_min":60,"x_max":823,"o":"m 639 738 l 823 738 l 823 0 l 639 0 l 639 78 q 530 4 585 26 q 412 -19 475 -19 q 164 92 269 -19 q 60 368 60 203 q 161 648 60 538 q 406 757 262 757 q 531 732 473 757 q 639 656 589 707 l 639 738 m 444 586 q 301 525 358 586 q 244 370 244 465 q 302 212 244 274 q 445 151 360 151 q 590 211 532 151 q 648 370 648 272 q 590 526 648 467 q 444 586 532 586 z "},"b":{"ha":917,"x_min":94,"x_max":857,"o":"m 277 1023 l 277 656 q 386 732 328 707 q 511 757 444 757 q 756 648 655 757 q 857 368 857 538 q 753 92 857 203 q 505 -19 648 -19 q 387 4 441 -19 q 277 78 332 26 l 277 0 l 94 0 l 94 1023 l 277 1023 m 472 586 q 327 526 385 586 q 269 370 269 467 q 327 211 269 272 q 472 151 385 151 q 615 212 557 151 q 673 370 673 274 q 616 525 673 465 q 472 586 559 586 z "},"c":{"ha":889,"x_min":58,"x_max":816,"o":"m 816 589 l 662 504 q 576 567 618 549 q 477 585 534 585 q 309 523 373 585 q 245 363 245 460 q 307 210 245 269 q 469 150 368 150 q 662 235 593 150 l 808 135 q 473 -19 689 -19 q 168 96 278 -19 q 58 366 58 212 q 111 564 58 473 q 261 705 165 654 q 475 757 357 757 q 673 713 585 757 q 816 589 760 669 z "},"d":{"ha":917,"x_min":60,"x_max":823,"o":"m 639 1023 l 823 1023 l 823 0 l 639 0 l 639 78 q 530 4 585 26 q 412 -19 475 -19 q 164 92 269 -19 q 60 368 60 203 q 161 648 60 538 q 406 757 262 757 q 531 732 473 757 q 639 656 589 707 l 639 1023 m 444 586 q 301 525 358 586 q 244 370 244 465 q 302 212 244 274 q 445 151 360 151 q 590 211 532 151 q 648 370 648 272 q 590 526 648 467 q 444 586 532 586 z "},"e":{"ha":889,"x_min":59,"x_max":833,"o":"m 833 315 l 238 315 q 307 190 251 237 q 450 144 363 144 q 628 216 553 144 l 784 143 q 644 21 726 60 q 451 -19 563 -19 q 168 91 277 -19 q 59 365 59 200 q 168 645 59 534 q 441 757 277 757 q 724 645 615 757 q 833 351 833 534 l 833 315 m 647 461 q 575 562 629 523 q 450 600 521 600 q 314 557 372 600 q 246 461 277 530 l 647 461 z "},"f":{"ha":389,"x_min":5,"x_max":381,"o":"m 5 738 l 71 738 q 76 909 72 883 q 127 1006 83 970 q 251 1042 171 1042 q 381 1015 309 1042 l 381 874 q 315 886 341 886 q 268 872 283 886 q 257 830 257 862 l 256 738 l 374 738 l 374 581 l 256 581 l 256 0 l 71 0 l 71 581 l 5 581 l 5 738 z "},"g":{"ha":917,"x_min":61,"x_max":823,"o":"m 639 738 l 823 738 l 823 106 q 748 -170 823 -81 q 444 -289 647 -289 q 261 -262 335 -289 q 136 -182 187 -235 q 61 -54 85 -130 l 265 -54 q 335 -101 292 -85 q 436 -117 378 -117 q 556 -94 511 -117 q 620 -35 602 -71 q 639 92 639 2 q 536 21 590 43 q 415 0 483 0 q 164 107 267 0 q 62 378 62 214 q 170 661 62 554 q 405 757 269 757 q 525 733 469 757 q 639 656 582 710 l 639 738 m 447 584 q 302 525 359 584 q 245 378 245 467 q 304 227 245 286 q 450 168 362 168 q 592 225 536 168 q 648 376 648 283 q 592 526 648 469 q 447 584 536 584 z "},"h":{"ha":833,"x_min":94,"x_max":748,"o":"m 94 1023 l 278 1023 l 278 663 q 387 733 332 710 q 498 757 442 757 q 684 681 608 757 q 748 488 748 615 l 748 0 l 566 0 l 566 323 q 553 497 566 452 q 512 565 541 543 q 439 587 482 587 q 342 550 382 587 q 286 448 302 513 q 278 296 278 415 l 278 0 l 94 0 l 94 1023 z "},"i":{"ha":333,"x_min":48,"x_max":285,"o":"m 166 1042 q 250 1006 215 1042 q 285 921 285 971 q 250 837 285 871 q 168 802 216 802 q 83 837 118 802 q 48 924 48 873 q 83 1007 48 972 q 166 1042 117 1042 m 73 738 l 259 738 l 259 0 l 73 0 l 73 738 z "},"j":{"ha":361,"x_min":-59,"x_max":300,"o":"m 180 1042 q 265 1006 230 1042 q 300 921 300 971 q 265 836 300 871 q 182 801 231 801 q 98 837 133 801 q 63 924 63 873 q 97 1007 63 972 q 180 1042 132 1042 m 88 738 l 273 738 l 273 -24 q 253 -181 273 -130 q 187 -261 232 -233 q 79 -289 142 -289 q -59 -261 24 -289 l -59 -115 q 18 -136 -16 -136 q 71 -115 53 -136 q 88 -38 88 -94 l 88 738 z "},"k":{"ha":806,"x_min":95,"x_max":823,"o":"m 95 1023 l 280 1023 l 280 433 l 553 738 l 785 738 l 467 384 l 823 0 l 593 0 l 280 340 l 280 0 l 95 0 l 95 1023 z "},"l":{"ha":333,"x_min":74,"x_max":259,"o":"m 74 1023 l 259 1023 l 259 0 l 74 0 l 74 1023 z "},"m":{"ha":1305,"x_min":92,"x_max":1223,"o":"m 92 738 l 278 738 l 278 653 q 384 731 326 705 q 510 757 441 757 q 635 723 579 757 q 724 624 690 689 q 832 723 768 689 q 972 757 897 757 q 1111 720 1051 757 q 1197 625 1171 684 q 1223 433 1223 566 l 1223 0 l 1036 0 l 1036 374 q 1005 544 1036 500 q 911 589 974 589 q 826 562 864 589 q 770 487 789 534 q 752 333 752 439 l 752 0 l 566 0 l 566 357 q 551 501 566 456 q 507 567 536 545 q 437 589 478 589 q 353 561 391 589 q 297 484 315 534 q 278 328 278 435 l 278 0 l 92 0 l 92 738 z "},"n":{"ha":833,"x_min":94,"x_max":748,"o":"m 94 738 l 278 738 l 278 663 q 392 736 341 715 q 497 757 444 757 q 684 680 607 757 q 748 488 748 615 l 748 0 l 565 0 l 565 323 q 553 499 565 456 q 512 565 541 543 q 439 588 482 588 q 342 550 382 588 q 286 446 302 513 q 278 296 278 412 l 278 0 l 94 0 l 94 738 z "},"o":{"ha":889,"x_min":58,"x_max":831,"o":"m 440 757 q 636 705 545 757 q 780 563 728 652 q 831 370 831 473 q 780 174 831 265 q 638 32 728 83 q 441 -19 549 -19 q 170 94 282 -19 q 58 368 58 207 q 184 656 58 541 q 440 757 296 757 m 443 583 q 299 523 357 583 q 242 369 242 463 q 299 213 242 273 q 442 153 355 153 q 587 214 529 153 q 644 369 644 274 q 588 523 644 464 q 443 583 531 583 z "},"p":{"ha":917,"x_min":94,"x_max":857,"o":"m 277 738 l 277 656 q 386 732 328 707 q 511 757 444 757 q 756 648 655 757 q 857 368 857 538 q 753 92 857 203 q 505 -19 648 -19 q 387 4 441 -19 q 277 78 332 26 l 277 -270 l 94 -270 l 94 738 l 277 738 m 472 586 q 327 526 385 586 q 269 370 269 467 q 327 211 269 272 q 472 151 385 151 q 615 212 557 151 q 673 370 673 274 q 616 525 673 465 q 472 586 559 586 z "},"q":{"ha":917,"x_min":60,"x_max":823,"o":"m 639 738 l 823 738 l 823 -270 l 639 -270 l 639 78 q 530 4 585 26 q 412 -19 475 -19 q 164 92 269 -19 q 60 368 60 203 q 161 648 60 538 q 406 757 262 757 q 531 732 473 757 q 639 656 589 707 l 639 738 m 444 586 q 301 525 358 586 q 244 370 244 465 q 302 212 244 274 q 445 151 360 151 q 590 211 532 151 q 648 370 648 272 q 590 526 648 467 q 444 586 532 586 z "},"r":{"ha":444,"x_min":50,"x_max":446,"o":"m 50 738 l 209 738 l 209 645 q 277 728 235 700 q 371 757 320 757 q 446 738 407 757 l 389 578 q 335 595 356 595 q 263 542 292 595 q 233 334 233 489 l 234 298 l 234 0 l 50 0 l 50 738 z "},"s":{"ha":611,"x_min":35,"x_max":559,"o":"m 545 635 l 431 520 q 304 589 361 589 q 255 576 273 589 q 237 543 237 563 q 249 516 237 528 q 304 481 260 503 l 372 448 q 519 340 479 395 q 559 211 559 285 q 487 47 559 113 q 293 -19 414 -19 q 35 107 132 -19 l 149 231 q 225 170 182 193 q 303 146 269 146 q 362 164 340 146 q 385 205 385 182 q 304 288 385 248 l 241 319 q 62 545 62 410 q 130 695 62 633 q 302 757 197 757 q 438 725 374 757 q 545 635 501 694 z "},"t":{"ha":416,"x_min":21,"x_max":410,"o":"m 116 1010 l 300 1010 l 300 738 l 410 738 l 410 578 l 300 578 l 300 0 l 116 0 l 116 578 l 21 578 l 21 738 l 116 738 l 116 1010 z "},"u":{"ha":833,"x_min":93,"x_max":741,"o":"m 93 738 l 280 738 l 280 382 q 294 238 280 279 q 340 176 309 198 q 418 153 372 153 q 496 175 464 153 q 544 240 528 197 q 555 376 555 272 l 555 738 l 741 738 l 741 425 q 711 161 741 232 q 601 27 673 74 q 416 -19 528 -19 q 220 35 295 -19 q 115 186 145 90 q 93 431 93 254 l 93 738 z "},"v":{"ha":778,"x_min":14,"x_max":763,"o":"m 14 738 l 203 738 l 389 302 l 575 738 l 763 738 l 449 0 l 329 0 l 14 738 z "},"w":{"ha":1111,"x_min":12,"x_max":1099,"o":"m 12 738 l 193 738 l 341 318 l 501 738 l 612 738 l 768 323 l 917 738 l 1099 738 l 830 0 l 713 0 l 555 420 l 393 0 l 277 0 l 12 738 z "},"x":{"ha":778,"x_min":1,"x_max":777,"o":"m 27 738 l 242 738 l 387 536 l 533 738 l 746 738 l 494 389 l 777 0 l 562 0 l 387 242 l 213 0 l 1 0 l 280 389 l 27 738 z "},"y":{"ha":806,"x_min":12,"x_max":794,"o":"m 12 738 l 201 738 l 393 275 l 604 738 l 794 738 l 332 -270 l 140 -270 l 292 55 l 12 738 z "},"z":{"ha":639,"x_min":11,"x_max":628,"o":"m 62 738 l 628 738 l 296 157 l 609 157 l 609 0 l 11 0 l 345 581 l 62 581 l 62 738 z "},"{":{"ha":472,"x_min":9,"x_max":473,"o":"m 9 264 l 9 427 q 98 451 69 430 q 142 517 127 472 q 157 668 157 562 q 170 851 157 802 q 209 930 182 901 q 287 979 235 960 q 437 998 339 998 l 473 998 l 473 835 q 378 827 400 835 q 345 802 355 819 q 334 736 334 784 q 326 546 334 651 q 289 423 321 477 q 207 345 265 383 q 286 273 256 317 q 324 162 315 229 q 334 -28 328 133 q 341 -101 336 -87 q 374 -133 350 -122 q 473 -144 398 -144 l 473 -306 l 437 -306 q 291 -290 338 -306 q 214 -243 243 -274 q 171 -165 184 -212 q 157 -3 157 -118 q 143 171 157 126 q 100 239 130 216 q 9 264 71 261 z "},"|":{"ha":833,"x_min":363,"x_max":471,"o":"m 363 1023 l 471 1023 l 471 -270 l 363 -270 l 363 1023 z "},"}":{"ha":472,"x_min":-1,"x_max":463,"o":"m 463 427 l 463 264 q 374 240 403 261 q 330 175 345 220 q 314 23 314 130 q 302 -160 314 -111 q 263 -238 290 -209 q 185 -287 237 -268 q 35 -306 133 -306 l -1 -306 l -1 -144 q 94 -136 72 -144 q 127 -111 116 -128 q 138 -45 138 -93 q 146 146 138 41 q 182 268 151 214 q 265 346 207 309 q 186 418 216 374 q 148 530 157 462 q 138 719 144 558 q 130 792 136 779 q 97 824 121 814 q -1 835 73 835 l -1 998 l 35 998 q 181 981 134 998 q 258 934 228 965 q 301 856 288 903 q 315 694 315 809 q 329 520 315 565 q 372 453 342 475 q 463 427 401 431 z "},"~":{"ha":833,"x_min":68,"x_max":766,"o":"m 68 382 l 68 599 q 237 649 171 649 q 333 634 281 649 q 471 578 385 620 q 545 546 527 551 q 591 539 568 539 q 766 616 667 539 l 766 397 q 599 349 681 349 q 509 361 554 349 q 361 418 463 373 q 274 453 296 447 q 229 458 252 458 q 161 444 195 458 q 68 382 126 429 z "},"Ä":{"ha":1027,"x_min":33,"x_max":994,"o":"m 418 998 l 610 998 l 994 0 l 797 0 l 719 205 l 312 205 l 231 0 l 33 0 l 418 998 m 515 733 l 382 391 l 648 391 l 515 733 m 363 1269 q 432 1240 404 1269 q 460 1172 460 1212 q 432 1103 460 1131 q 363 1074 404 1074 q 294 1103 323 1074 q 266 1172 266 1131 q 294 1240 266 1212 q 363 1269 323 1269 m 663 1269 q 732 1240 704 1269 q 761 1172 761 1212 q 732 1103 761 1131 q 663 1074 704 1074 q 595 1103 623 1074 q 566 1172 566 1131 q 595 1240 566 1212 q 663 1269 623 1269 z "},"Å":{"ha":1027,"x_min":33,"x_max":994,"o":"m 418 998 l 610 998 l 994 0 l 797 0 l 719 205 l 312 205 l 231 0 l 33 0 l 418 998 m 515 733 l 382 391 l 648 391 l 515 733 m 513 1378 q 618 1334 575 1378 q 662 1227 662 1289 q 618 1119 662 1164 q 513 1075 574 1075 q 409 1119 452 1075 q 365 1227 365 1164 q 408 1334 365 1289 q 513 1378 452 1378 m 513 1291 q 474 1273 490 1291 q 458 1230 458 1255 q 474 1187 458 1204 q 513 1169 491 1169 q 552 1187 536 1169 q 569 1230 569 1204 q 553 1273 569 1255 q 513 1291 536 1291 z "},"Ç":{"ha":1083,"x_min":64,"x_max":1031,"o":"m 1031 822 l 898 695 q 593 838 762 838 q 352 741 450 838 q 254 500 254 643 q 297 323 254 400 q 420 201 340 245 q 596 157 499 157 q 747 188 679 157 q 898 300 816 219 l 1027 166 q 818 17 916 58 q 593 -25 720 -25 q 213 122 361 -25 q 64 500 64 270 q 132 766 64 650 q 325 952 199 882 q 596 1023 451 1023 q 834 970 720 1023 q 1031 822 948 918 m 484 11 l 598 11 l 590 -20 q 662 -60 635 -31 q 688 -125 688 -90 q 642 -219 688 -180 q 513 -258 595 -258 q 363 -227 447 -258 l 387 -140 q 483 -155 436 -155 q 534 -142 517 -155 q 551 -107 551 -129 q 538 -79 551 -90 q 498 -69 526 -69 l 460 -71 l 484 11 z "},"É":{"ha":722,"x_min":115,"x_max":659,"o":"m 115 998 l 659 998 l 659 812 l 303 812 l 303 631 l 659 631 l 659 449 l 303 449 l 303 186 l 659 186 l 659 0 l 115 0 l 115 998 m 418 1341 l 637 1341 l 389 1075 l 256 1075 l 418 1341 z "},"Ñ":{"ha":1027,"x_min":115,"x_max":914,"o":"m 115 998 l 296 998 l 724 341 l 724 998 l 914 998 l 914 0 l 732 0 l 304 654 l 304 0 l 115 0 l 115 998 m 307 1078 l 232 1190 q 408 1257 319 1257 q 522 1234 441 1257 q 609 1219 576 1219 q 727 1254 666 1219 l 798 1148 q 632 1075 712 1075 q 530 1093 589 1075 q 468 1110 481 1107 q 426 1113 450 1113 q 307 1078 366 1113 z "},"Ö":{"ha":1166,"x_min":65,"x_max":1101,"o":"m 585 1023 q 949 869 797 1023 q 1101 496 1101 716 q 951 126 1101 277 q 587 -25 801 -25 q 214 130 362 -25 q 65 499 65 286 q 134 762 65 642 q 325 952 203 882 q 585 1023 446 1023 m 583 837 q 351 741 445 837 q 256 496 256 644 q 375 234 256 330 q 587 159 467 159 q 817 256 722 159 q 911 497 911 354 q 816 738 911 640 q 583 837 720 837 m 433 1269 q 502 1240 473 1269 q 530 1172 530 1212 q 502 1103 530 1131 q 433 1074 473 1074 q 364 1103 393 1074 q 336 1172 336 1131 q 364 1240 336 1212 q 433 1269 393 1269 m 733 1269 q 802 1240 774 1269 q 831 1172 831 1212 q 802 1103 831 1131 q 733 1074 774 1074 q 665 1103 693 1074 q 636 1172 636 1131 q 665 1240 636 1212 q 733 1269 693 1269 z "},"Ü":{"ha":889,"x_min":107,"x_max":783,"o":"m 107 998 l 298 998 l 298 352 q 312 234 298 269 q 360 179 327 199 q 441 158 394 158 q 528 181 492 158 q 578 240 564 204 q 592 376 592 275 l 592 998 l 783 998 l 783 403 q 766 194 783 252 q 701 81 749 136 q 591 1 653 27 q 446 -25 528 -25 q 257 25 337 -25 q 142 150 176 75 q 107 403 107 224 l 107 998 m 294 1269 q 363 1240 335 1269 q 392 1172 392 1212 q 363 1103 392 1131 q 294 1074 335 1074 q 226 1103 254 1074 q 197 1172 197 1131 q 226 1240 197 1212 q 294 1269 254 1269 m 595 1269 q 664 1240 635 1269 q 692 1172 692 1212 q 664 1103 692 1131 q 595 1074 635 1074 q 526 1103 555 1074 q 498 1172 498 1131 q 526 1240 498 1212 q 595 1269 555 1269 z "},"á":{"ha":917,"x_min":60,"x_max":823,"o":"m 639 738 l 823 738 l 823 0 l 639 0 l 639 78 q 530 4 585 26 q 412 -19 475 -19 q 164 92 269 -19 q 60 368 60 203 q 161 648 60 538 q 406 757 262 757 q 531 732 473 757 q 639 656 589 707 l 639 738 m 444 586 q 301 525 358 586 q 244 370 244 465 q 302 212 244 274 q 445 151 360 151 q 590 211 532 151 q 648 370 648 272 q 590 526 648 467 q 444 586 532 586 m 491 1139 l 710 1139 l 462 873 l 329 873 l 491 1139 z "},"à":{"ha":917,"x_min":60,"x_max":823,"o":"m 639 738 l 823 738 l 823 0 l 639 0 l 639 78 q 530 4 585 26 q 412 -19 475 -19 q 164 92 269 -19 q 60 368 60 203 q 161 648 60 538 q 406 757 262 757 q 531 732 473 757 q 639 656 589 707 l 639 738 m 444 586 q 301 525 358 586 q 244 370 244 465 q 302 212 244 274 q 445 151 360 151 q 590 211 532 151 q 648 370 648 272 q 590 526 648 467 q 444 586 532 586 m 426 1139 l 588 873 l 455 873 l 207 1139 l 426 1139 z "},"â":{"ha":917,"x_min":60,"x_max":823,"o":"m 639 738 l 823 738 l 823 0 l 639 0 l 639 78 q 530 4 585 26 q 412 -19 475 -19 q 164 92 269 -19 q 60 368 60 203 q 161 648 60 538 q 406 757 262 757 q 531 732 473 757 q 639 656 589 707 l 639 738 m 444 586 q 301 525 358 586 q 244 370 244 465 q 302 212 244 274 q 445 151 360 151 q 590 211 532 151 q 648 370 648 272 q 590 526 648 467 q 444 586 532 586 m 181 873 l 385 1065 l 533 1065 l 735 873 l 533 873 l 460 962 l 385 873 l 181 873 z "},"ä":{"ha":917,"x_min":60,"x_max":823,"o":"m 639 738 l 823 738 l 823 0 l 639 0 l 639 78 q 530 4 585 26 q 412 -19 475 -19 q 164 92 269 -19 q 60 368 60 203 q 161 648 60 538 q 406 757 262 757 q 531 732 473 757 q 639 656 589 707 l 639 738 m 444 586 q 301 525 358 586 q 244 370 244 465 q 302 212 244 274 q 445 151 360 151 q 590 211 532 151 q 648 370 648 272 q 590 526 648 467 q 444 586 532 586 m 308 1067 q 377 1038 349 1067 q 406 970 406 1010 q 377 901 406 929 q 308 872 349 872 q 239 901 268 872 q 211 970 211 929 q 239 1038 211 1010 q 308 1067 268 1067 m 608 1067 q 677 1038 649 1067 q 706 970 706 1010 q 677 901 706 929 q 608 872 649 872 q 540 901 568 872 q 511 970 511 929 q 540 1038 511 1010 q 608 1067 568 1067 z "},"ã":{"ha":917,"x_min":60,"x_max":823,"o":"m 639 738 l 823 738 l 823 0 l 639 0 l 639 78 q 530 4 585 26 q 412 -19 475 -19 q 164 92 269 -19 q 60 368 60 203 q 161 648 60 538 q 406 757 262 757 q 531 732 473 757 q 639 656 589 707 l 639 738 m 444 586 q 301 525 358 586 q 244 370 244 465 q 302 212 244 274 q 445 151 360 151 q 590 211 532 151 q 648 370 648 272 q 590 526 648 467 q 444 586 532 586 m 250 876 l 176 987 q 351 1055 262 1055 q 465 1031 385 1055 q 553 1017 520 1017 q 671 1052 610 1017 l 741 946 q 576 873 656 873 q 473 891 533 873 q 412 908 425 905 q 370 911 394 911 q 250 876 310 911 z "},"å":{"ha":917,"x_min":60,"x_max":823,"o":"m 639 738 l 823 738 l 823 0 l 639 0 l 639 78 q 530 4 585 26 q 412 -19 475 -19 q 164 92 269 -19 q 60 368 60 203 q 161 648 60 538 q 406 757 262 757 q 531 732 473 757 q 639 656 589 707 l 639 738 m 444 586 q 301 525 358 586 q 244 370 244 465 q 302 212 244 274 q 445 151 360 151 q 590 211 532 151 q 648 370 648 272 q 590 526 648 467 q 444 586 532 586 m 458 1176 q 564 1132 520 1176 q 607 1025 607 1087 q 563 917 607 962 q 458 873 519 873 q 354 917 397 873 q 310 1025 310 962 q 353 1132 310 1087 q 458 1176 397 1176 m 458 1088 q 419 1071 435 1088 q 403 1028 403 1053 q 419 985 403 1002 q 458 967 436 967 q 497 985 481 967 q 514 1028 514 1002 q 498 1071 514 1053 q 458 1088 481 1088 z "},"ç":{"ha":889,"x_min":58,"x_max":816,"o":"m 816 589 l 662 504 q 576 567 618 549 q 477 585 534 585 q 309 523 373 585 q 245 363 245 460 q 307 210 245 269 q 469 150 368 150 q 662 235 593 150 l 808 135 q 473 -19 689 -19 q 168 96 278 -19 q 58 366 58 212 q 111 564 58 473 q 261 705 165 654 q 475 757 357 757 q 673 713 585 757 q 816 589 760 669 m 387 11 l 501 11 l 493 -20 q 565 -60 538 -31 q 591 -125 591 -90 q 545 -219 591 -180 q 416 -258 498 -258 q 266 -227 350 -258 l 290 -140 q 386 -155 339 -155 q 437 -142 420 -155 q 454 -107 454 -129 q 441 -79 454 -90 q 401 -69 429 -69 l 363 -71 l 387 11 z "},"é":{"ha":889,"x_min":59,"x_max":833,"o":"m 833 315 l 238 315 q 307 190 251 237 q 450 144 363 144 q 628 216 553 144 l 784 143 q 644 21 726 60 q 451 -19 563 -19 q 168 91 277 -19 q 59 365 59 200 q 168 645 59 534 q 441 757 277 757 q 724 645 615 757 q 833 351 833 534 l 833 315 m 647 461 q 575 562 629 523 q 450 600 521 600 q 314 557 372 600 q 246 461 277 530 l 647 461 m 477 1139 l 696 1139 l 448 873 l 315 873 l 477 1139 z "},"è":{"ha":889,"x_min":59,"x_max":833,"o":"m 833 315 l 238 315 q 307 190 251 237 q 450 144 363 144 q 628 216 553 144 l 784 143 q 644 21 726 60 q 451 -19 563 -19 q 168 91 277 -19 q 59 365 59 200 q 168 645 59 534 q 441 757 277 757 q 724 645 615 757 q 833 351 833 534 l 833 315 m 647 461 q 575 562 629 523 q 450 600 521 600 q 314 557 372 600 q 246 461 277 530 l 647 461 m 412 1139 l 574 873 l 441 873 l 193 1139 l 412 1139 z "},"ê":{"ha":889,"x_min":59,"x_max":833,"o":"m 833 315 l 238 315 q 307 190 251 237 q 450 144 363 144 q 628 216 553 144 l 784 143 q 644 21 726 60 q 451 -19 563 -19 q 168 91 277 -19 q 59 365 59 200 q 168 645 59 534 q 441 757 277 757 q 724 645 615 757 q 833 351 833 534 l 833 315 m 647 461 q 575 562 629 523 q 450 600 521 600 q 314 557 372 600 q 246 461 277 530 l 647 461 m 168 873 l 371 1065 l 519 1065 l 722 873 l 519 873 l 446 962 l 371 873 l 168 873 z "},"ë":{"ha":889,"x_min":59,"x_max":833,"o":"m 833 315 l 238 315 q 307 190 251 237 q 450 144 363 144 q 628 216 553 144 l 784 143 q 644 21 726 60 q 451 -19 563 -19 q 168 91 277 -19 q 59 365 59 200 q 168 645 59 534 q 441 757 277 757 q 724 645 615 757 q 833 351 833 534 l 833 315 m 647 461 q 575 562 629 523 q 450 600 521 600 q 314 557 372 600 q 246 461 277 530 l 647 461 m 294 1067 q 363 1038 335 1067 q 392 970 392 1010 q 363 901 392 929 q 294 872 335 872 q 226 901 254 872 q 197 970 197 929 q 226 1038 197 1010 q 294 1067 254 1067 m 595 1067 q 664 1038 635 1067 q 692 970 692 1010 q 664 901 692 929 q 595 872 635 872 q 526 901 555 872 q 498 970 498 929 q 526 1038 498 1010 q 595 1067 555 1067 z "},"í":{"ha":333,"x_min":37,"x_max":418,"o":"m 73 738 l 259 738 l 259 0 l 73 0 l 73 738 m 199 1139 l 418 1139 l 170 873 l 37 873 l 199 1139 z "},"ì":{"ha":333,"x_min":-85,"x_max":296,"o":"m 73 738 l 259 738 l 259 0 l 73 0 l 73 738 m 134 1139 l 296 873 l 163 873 l -85 1139 l 134 1139 z "},"î":{"ha":333,"x_min":-111,"x_max":444,"o":"m 73 738 l 259 738 l 259 0 l 73 0 l 73 738 m -111 873 l 93 1065 l 241 1065 l 444 873 l 241 873 l 168 962 l 93 873 l -111 873 z "},"ï":{"ha":333,"x_min":-81,"x_max":414,"o":"m 73 738 l 259 738 l 259 0 l 73 0 l 73 738 m 16 1067 q 85 1038 57 1067 q 114 970 114 1010 q 85 901 114 929 q 16 872 57 872 q -52 901 -24 872 q -81 970 -81 929 q -52 1038 -81 1010 q 16 1067 -24 1067 m 317 1067 q 386 1038 357 1067 q 414 970 414 1010 q 386 901 414 929 q 317 872 357 872 q 248 901 277 872 q 220 970 220 929 q 248 1038 220 1010 q 317 1067 277 1067 z "},"ñ":{"ha":833,"x_min":94,"x_max":748,"o":"m 94 738 l 278 738 l 278 663 q 392 736 341 715 q 497 757 444 757 q 684 680 607 757 q 748 488 748 615 l 748 0 l 565 0 l 565 323 q 553 499 565 456 q 512 565 541 543 q 439 588 482 588 q 342 550 382 588 q 286 446 302 513 q 278 296 278 412 l 278 0 l 94 0 l 94 738 m 209 876 l 134 987 q 310 1055 221 1055 q 424 1031 343 1055 q 511 1017 479 1017 q 629 1052 568 1017 l 700 946 q 534 873 614 873 q 432 891 492 873 q 370 908 383 905 q 328 911 353 911 q 209 876 269 911 z "},"ó":{"ha":889,"x_min":58,"x_max":831,"o":"m 440 757 q 636 705 545 757 q 780 563 728 652 q 831 370 831 473 q 780 174 831 265 q 638 32 728 83 q 441 -19 549 -19 q 170 94 282 -19 q 58 368 58 207 q 184 656 58 541 q 440 757 296 757 m 443 583 q 299 523 357 583 q 242 369 242 463 q 299 213 242 273 q 442 153 355 153 q 587 214 529 153 q 644 369 644 274 q 588 523 644 464 q 443 583 531 583 m 477 1139 l 696 1139 l 448 873 l 315 873 l 477 1139 z "},"ò":{"ha":889,"x_min":58,"x_max":831,"o":"m 440 757 q 636 705 545 757 q 780 563 728 652 q 831 370 831 473 q 780 174 831 265 q 638 32 728 83 q 441 -19 549 -19 q 170 94 282 -19 q 58 368 58 207 q 184 656 58 541 q 440 757 296 757 m 443 583 q 299 523 357 583 q 242 369 242 463 q 299 213 242 273 q 442 153 355 153 q 587 214 529 153 q 644 369 644 274 q 588 523 644 464 q 443 583 531 583 m 412 1139 l 574 873 l 441 873 l 193 1139 l 412 1139 z "},"ô":{"ha":889,"x_min":58,"x_max":831,"o":"m 440 757 q 636 705 545 757 q 780 563 728 652 q 831 370 831 473 q 780 174 831 265 q 638 32 728 83 q 441 -19 549 -19 q 170 94 282 -19 q 58 368 58 207 q 184 656 58 541 q 440 757 296 757 m 443 583 q 299 523 357 583 q 242 369 242 463 q 299 213 242 273 q 442 153 355 153 q 587 214 529 153 q 644 369 644 274 q 588 523 644 464 q 443 583 531 583 m 168 873 l 371 1065 l 519 1065 l 722 873 l 519 873 l 446 962 l 371 873 l 168 873 z "},"ö":{"ha":889,"x_min":58,"x_max":831,"o":"m 440 757 q 636 705 545 757 q 780 563 728 652 q 831 370 831 473 q 780 174 831 265 q 638 32 728 83 q 441 -19 549 -19 q 170 94 282 -19 q 58 368 58 207 q 184 656 58 541 q 440 757 296 757 m 443 583 q 299 523 357 583 q 242 369 242 463 q 299 213 242 273 q 442 153 355 153 q 587 214 529 153 q 644 369 644 274 q 588 523 644 464 q 443 583 531 583 m 294 1067 q 363 1038 334 1067 q 391 970 391 1010 q 363 901 391 929 q 294 872 334 872 q 225 901 254 872 q 197 970 197 929 q 225 1038 197 1010 q 294 1067 254 1067 m 594 1067 q 663 1038 635 1067 q 692 970 692 1010 q 663 901 692 929 q 594 872 635 872 q 526 901 554 872 q 497 970 497 929 q 526 1038 497 1010 q 594 1067 554 1067 z "},"õ":{"ha":889,"x_min":58,"x_max":831,"o":"m 440 757 q 636 705 545 757 q 780 563 728 652 q 831 370 831 473 q 780 174 831 265 q 638 32 728 83 q 441 -19 549 -19 q 170 94 282 -19 q 58 368 58 207 q 184 656 58 541 q 440 757 296 757 m 443 583 q 299 523 357 583 q 242 369 242 463 q 299 213 242 273 q 442 153 355 153 q 587 214 529 153 q 644 369 644 274 q 588 523 644 464 q 443 583 531 583 m 237 876 l 162 987 q 338 1055 249 1055 q 452 1031 371 1055 q 539 1017 507 1017 q 657 1052 596 1017 l 728 946 q 562 873 642 873 q 460 891 519 873 q 398 908 411 905 q 356 911 380 911 q 237 876 296 911 z "},"ú":{"ha":833,"x_min":93,"x_max":741,"o":"m 93 738 l 280 738 l 280 382 q 294 238 280 279 q 340 176 309 198 q 418 153 372 153 q 496 175 464 153 q 544 240 528 197 q 555 376 555 272 l 555 738 l 741 738 l 741 425 q 711 161 741 232 q 601 27 673 74 q 416 -19 528 -19 q 220 35 295 -19 q 115 186 145 90 q 93 431 93 254 l 93 738 m 450 1139 l 669 1139 l 420 873 l 288 873 l 450 1139 z "},"ù":{"ha":833,"x_min":93,"x_max":741,"o":"m 93 738 l 280 738 l 280 382 q 294 238 280 279 q 340 176 309 198 q 418 153 372 153 q 496 175 464 153 q 544 240 528 197 q 555 376 555 272 l 555 738 l 741 738 l 741 425 q 711 161 741 232 q 601 27 673 74 q 416 -19 528 -19 q 220 35 295 -19 q 115 186 145 90 q 93 431 93 254 l 93 738 m 385 1139 l 547 873 l 414 873 l 165 1139 l 385 1139 z "},"û":{"ha":833,"x_min":93,"x_max":741,"o":"m 93 738 l 280 738 l 280 382 q 294 238 280 279 q 340 176 309 198 q 418 153 372 153 q 496 175 464 153 q 544 240 528 197 q 555 376 555 272 l 555 738 l 741 738 l 741 425 q 711 161 741 232 q 601 27 673 74 q 416 -19 528 -19 q 220 35 295 -19 q 115 186 145 90 q 93 431 93 254 l 93 738 m 140 873 l 343 1065 l 492 1065 l 694 873 l 492 873 l 418 962 l 343 873 l 140 873 z "},"ü":{"ha":833,"x_min":93,"x_max":741,"o":"m 93 738 l 280 738 l 280 382 q 294 238 280 279 q 340 176 309 198 q 418 153 372 153 q 496 175 464 153 q 544 240 528 197 q 555 376 555 272 l 555 738 l 741 738 l 741 425 q 711 161 741 232 q 601 27 673 74 q 416 -19 528 -19 q 220 35 295 -19 q 115 186 145 90 q 93 431 93 254 l 93 738 m 267 1067 q 336 1038 307 1067 q 364 970 364 1010 q 336 901 364 929 q 267 872 307 872 q 198 901 227 872 q 170 970 170 929 q 198 1038 170 1010 q 267 1067 227 1067 m 567 1067 q 636 1038 608 1067 q 665 970 665 1010 q 636 901 665 929 q 567 872 608 872 q 498 901 527 872 q 470 970 470 929 q 498 1038 470 1010 q 567 1067 527 1067 z "},"†":{"ha":778,"x_min":27,"x_max":755,"o":"m 300 1023 l 481 1023 l 448 651 l 755 684 l 755 500 l 448 538 l 481 -270 l 300 -270 l 334 538 l 27 500 l 27 684 l 334 651 l 300 1023 z "},"°":{"ha":555,"x_min":44,"x_max":512,"o":"m 512 789 q 444 624 512 691 q 277 556 375 556 q 112 624 180 556 q 44 791 44 692 q 114 955 44 887 q 279 1023 183 1023 q 444 955 376 1023 q 512 789 512 887 m 431 788 q 387 901 431 855 q 280 946 343 946 q 170 900 216 946 q 125 789 125 854 q 171 679 125 726 q 279 632 216 632 q 387 678 342 632 q 431 788 431 724 z "},"¢":{"ha":778,"x_min":57,"x_max":713,"o":"m 557 899 l 662 854 l 598 711 q 713 600 673 665 l 562 511 q 526 551 546 532 l 353 159 q 426 145 391 145 q 576 212 511 145 l 694 96 q 568 9 636 37 q 413 -19 500 -19 q 284 0 349 -19 l 209 -165 l 105 -120 l 186 59 q 57 370 57 186 q 104 572 57 484 q 237 708 152 660 q 427 757 321 757 q 492 751 456 757 l 557 899 m 420 590 q 289 528 336 585 q 241 366 241 470 q 267 242 241 300 l 420 590 z "},"£":{"ha":778,"x_min":33,"x_max":743,"o":"m 686 743 l 496 743 q 397 848 475 848 q 328 819 356 848 q 300 742 300 789 q 319 665 300 714 l 340 610 l 571 610 l 571 439 l 390 439 q 398 365 398 392 q 352 173 398 287 q 446 157 378 170 q 484 153 469 153 q 532 171 513 153 q 567 228 557 194 l 743 228 q 704 101 740 161 q 608 8 668 42 q 481 -25 547 -25 q 385 -16 452 -25 q 229 0 280 0 q 97 -23 162 0 l 33 138 q 141 168 91 161 q 192 279 178 233 q 205 375 205 324 q 199 439 205 403 l 37 439 l 37 610 l 141 610 q 109 746 109 677 q 143 889 109 829 q 247 986 176 949 q 400 1023 317 1023 q 548 987 481 1023 q 650 887 615 951 q 686 743 686 824 z "},"§":{"ha":778,"x_min":73,"x_max":701,"o":"m 668 781 l 488 781 q 379 871 468 871 q 323 856 343 871 q 304 817 304 840 q 319 772 304 792 q 418 694 340 747 l 547 605 q 668 489 635 545 q 701 365 701 433 q 664 239 701 294 q 556 157 626 184 q 645 53 619 104 q 671 -60 671 1 q 598 -223 671 -158 q 396 -289 524 -289 q 203 -223 275 -289 q 114 -33 131 -158 l 290 -33 q 334 -100 308 -80 q 397 -119 360 -119 q 461 -99 438 -119 q 484 -51 484 -79 q 471 -14 484 -34 q 410 37 456 5 l 223 168 q 104 283 136 229 q 73 409 73 338 q 111 542 73 485 q 208 621 149 600 q 137 706 161 659 q 114 808 114 753 q 189 974 114 905 q 385 1042 264 1042 q 580 966 499 1042 q 668 781 661 891 m 314 540 q 252 494 272 522 q 232 436 232 466 q 260 371 232 404 q 344 304 276 352 l 448 232 q 516 276 503 258 q 537 334 537 304 q 516 388 537 360 q 424 464 496 415 l 314 540 z "},"•":{"ha":833,"x_min":208,"x_max":625,"o":"m 416 714 q 564 653 503 714 q 625 506 625 592 q 564 358 625 419 q 416 297 503 297 q 269 358 330 297 q 208 506 208 419 q 269 653 208 592 q 416 714 330 714 z "},"¶":{"ha":833,"x_min":111,"x_max":716,"o":"m 374 -257 l 374 481 q 180 553 250 482 q 111 749 111 623 q 186 956 111 886 q 431 1026 262 1026 l 716 1026 l 716 947 l 661 947 l 661 -257 l 566 -257 l 566 947 l 469 947 l 469 -257 l 374 -257 z "},"ß":{"ha":833,"x_min":93,"x_max":774,"o":"m 393 478 l 393 644 q 503 676 463 644 q 544 762 544 709 q 512 839 544 808 q 433 870 480 870 q 350 842 388 870 q 295 768 311 814 q 278 607 278 721 l 278 0 l 93 0 l 93 607 q 132 857 93 772 q 252 992 172 942 q 439 1042 332 1042 q 650 967 569 1042 q 731 788 731 893 q 706 682 731 730 q 638 605 681 634 q 521 562 595 575 q 658 508 602 548 q 744 410 714 468 q 774 279 774 352 q 735 125 774 194 q 628 19 697 57 q 473 -19 559 -19 q 359 4 416 -19 l 359 177 q 446 155 402 155 q 549 198 507 155 q 591 304 591 242 q 567 392 591 353 q 501 453 543 431 q 393 478 460 475 z "},"®":{"ha":1027,"x_min":-5,"x_max":1034,"o":"m 1034 512 q 964 253 1034 373 q 774 64 895 134 q 514 -5 654 -5 q 254 64 375 -5 q 64 253 134 134 q -5 513 -5 373 q 64 772 -5 652 q 254 961 134 892 q 514 1031 374 1031 q 774 961 654 1031 q 964 772 895 892 q 1034 512 1034 652 m 926 511 q 806 803 926 683 q 515 924 686 924 q 223 804 344 924 q 102 514 102 684 q 156 310 102 404 q 307 161 211 216 q 514 106 404 106 q 720 160 624 106 q 871 309 817 215 q 926 511 926 403 m 299 795 l 551 795 q 667 778 630 795 q 727 722 705 760 q 750 631 750 684 q 736 556 750 585 q 684 500 722 528 q 726 460 715 482 q 741 382 738 438 q 750 259 745 277 q 774 227 754 242 l 631 227 q 619 265 622 250 q 616 319 616 281 q 608 412 614 394 q 586 438 602 429 q 525 447 571 447 l 424 447 l 424 227 l 299 227 l 299 795 m 424 686 l 424 551 l 528 551 q 608 568 589 551 q 628 620 628 584 q 609 671 628 656 q 529 686 589 686 l 424 686 z "},"©":{"ha":1027,"x_min":-5,"x_max":1034,"o":"m 1034 513 q 964 254 1034 374 q 774 64 895 134 q 514 -5 653 -5 q 254 64 375 -5 q 64 254 134 134 q -5 513 -5 374 q 64 772 -5 652 q 254 961 134 892 q 514 1031 374 1031 q 774 961 654 1031 q 964 772 895 892 q 1034 513 1034 652 m 926 511 q 806 803 926 683 q 515 924 686 924 q 308 869 404 924 q 157 719 212 814 q 102 514 102 623 q 157 310 102 405 q 308 161 212 216 q 513 106 404 106 q 720 161 624 106 q 871 310 817 216 q 926 511 926 404 m 665 418 l 784 418 q 704 271 772 329 q 536 214 635 214 q 327 299 408 214 q 245 522 245 385 q 326 738 245 655 q 532 821 406 821 q 698 770 633 821 q 784 622 763 719 l 665 622 q 618 699 653 672 q 533 726 584 726 q 409 672 458 726 q 360 524 360 617 q 412 368 360 427 q 536 309 464 309 q 623 339 587 309 q 665 418 659 370 z "},"™":{"ha":1389,"x_min":68,"x_max":1292,"o":"m 1292 998 l 1292 428 l 1173 428 l 1173 897 l 986 428 l 926 428 l 746 897 l 746 428 l 627 428 l 627 998 l 808 998 l 956 631 l 1112 998 l 1292 998 m 549 998 l 549 898 l 371 898 l 371 428 l 248 428 l 248 898 l 68 898 l 68 998 l 549 998 z "},"´":{"ha":583,"x_min":162,"x_max":543,"o":"m 324 1139 l 543 1139 l 295 873 l 162 873 l 324 1139 z "},"¨":{"ha":694,"x_min":100,"x_max":595,"o":"m 197 1067 q 266 1038 237 1067 q 294 970 294 1010 q 266 901 294 929 q 197 872 237 872 q 128 901 157 872 q 100 970 100 929 q 128 1038 100 1010 q 197 1067 157 1067 m 497 1067 q 566 1038 538 1067 q 595 970 595 1010 q 566 901 595 929 q 497 872 538 872 q 429 901 457 872 q 400 970 400 929 q 429 1038 400 1010 q 497 1067 457 1067 z "},"≠":{"ha":762,"x_min":42,"x_max":720,"o":"m 545 728 l 720 728 l 720 559 l 472 559 l 420 438 l 720 438 l 720 269 l 348 269 l 222 -25 l 91 -25 l 217 269 l 42 269 l 42 438 l 290 438 l 341 559 l 42 559 l 42 728 l 414 728 l 540 1023 l 671 1023 l 545 728 z "},"Æ":{"ha":1250,"x_min":39,"x_max":1178,"o":"m 525 998 l 1178 998 l 1178 812 l 827 812 l 827 631 l 1178 631 l 1178 448 l 827 448 l 827 186 l 1178 186 l 1178 0 l 638 0 l 638 206 l 334 206 l 234 0 l 39 0 l 525 998 m 638 393 l 638 829 l 423 393 l 638 393 z "},"Ø":{"ha":1166,"x_min":66,"x_max":1102,"o":"m 969 848 q 1102 496 1102 700 q 952 126 1102 277 q 588 -25 802 -25 q 299 60 426 -25 l 183 -77 l 97 -5 l 213 132 q 104 298 143 203 q 66 499 66 394 q 135 762 66 642 q 325 952 204 882 q 585 1023 446 1023 q 886 924 747 1023 l 995 1053 l 1080 983 l 969 848 m 334 275 l 766 783 q 585 837 689 837 q 351 741 446 837 q 257 496 257 644 q 334 275 257 364 m 844 704 l 420 203 q 588 159 496 159 q 817 256 722 159 q 912 497 912 354 q 844 704 912 612 z "},"∞":{"ha":990,"x_min":102,"x_max":888,"o":"m 460 572 q 566 692 513 657 q 680 726 618 726 q 829 663 770 726 q 888 490 888 599 q 829 317 888 380 q 680 253 770 253 q 566 287 618 253 q 460 408 513 321 q 368 321 420 352 q 266 291 315 291 q 149 345 196 291 q 102 490 102 399 q 149 634 102 580 q 266 688 196 688 q 368 657 315 688 q 460 572 420 627 m 524 491 q 604 384 581 404 q 682 353 640 353 q 761 393 732 353 q 789 492 789 432 q 759 591 789 555 q 684 627 729 627 q 612 601 647 627 q 524 491 577 574 m 402 492 q 273 588 334 588 q 219 563 241 588 q 197 493 197 537 q 219 421 197 448 q 273 395 241 395 q 323 411 300 395 q 402 492 358 435 z "},"±":{"ha":762,"x_min":42,"x_max":720,"o":"m 296 732 l 296 986 l 466 986 l 466 732 l 720 732 l 720 562 l 466 562 l 466 309 l 296 309 l 296 562 l 42 562 l 42 732 l 296 732 m 42 170 l 720 170 l 720 0 l 42 0 l 42 170 z "},"≤":{"ha":762,"x_min":42,"x_max":720,"o":"m 720 385 l 720 216 l 42 561 l 42 711 l 720 1055 l 720 886 l 237 635 l 720 385 m 42 140 l 720 140 l 720 -30 l 42 -30 l 42 140 z "},"≥":{"ha":762,"x_min":42,"x_max":720,"o":"m 42 385 l 526 635 l 42 886 l 42 1055 l 720 711 l 720 561 l 42 216 l 42 385 m 720 140 l 720 -30 l 42 -30 l 42 140 l 720 140 z "},"¥":{"ha":778,"x_min":33,"x_max":746,"o":"m 33 998 l 230 998 l 389 643 l 549 998 l 746 998 l 535 528 l 714 528 l 714 418 l 485 418 l 485 331 l 714 331 l 714 216 l 485 216 l 485 0 l 293 0 l 293 216 l 63 216 l 63 331 l 293 331 l 293 418 l 63 418 l 63 528 l 243 528 l 33 998 z "},"µ":{"ha":800,"x_min":60,"x_max":740,"o":"m 60 -270 l 60 738 l 248 738 l 248 351 q 264 226 248 264 q 319 163 281 188 q 401 138 357 138 q 480 161 446 138 q 532 227 514 184 q 550 356 550 271 l 550 738 l 740 738 l 740 0 l 550 0 l 550 86 q 483 5 521 29 q 399 -20 446 -20 q 315 4 353 -20 q 248 81 277 27 l 248 -270 l 60 -270 z "},"∂":{"ha":686,"x_min":31,"x_max":663,"o":"m 258 762 l 165 819 q 267 963 200 914 q 416 1011 333 1011 q 541 972 486 1011 q 630 850 596 934 q 663 640 663 767 q 594 260 663 441 q 446 53 542 123 q 241 -17 351 -17 q 89 46 147 -17 q 31 223 31 109 q 91 431 31 336 q 267 583 152 526 q 533 640 381 640 l 561 639 q 518 828 560 769 q 412 888 477 888 q 332 862 367 888 q 258 762 296 836 m 553 514 l 523 515 q 349 477 427 515 q 228 370 271 439 q 186 229 186 302 q 214 145 186 178 q 281 112 242 112 q 448 215 370 112 q 553 514 526 317 z "},"∑":{"ha":990,"x_min":83,"x_max":940,"o":"m 94 1023 l 933 1023 l 933 911 l 263 911 l 675 386 l 235 -161 l 940 -161 l 940 -270 l 83 -270 l 83 -143 l 503 380 l 94 904 l 94 1023 z "},"∏":{"ha":1143,"x_min":110,"x_max":1034,"o":"m 110 1023 l 1034 1023 l 1034 -270 l 904 -270 l 904 905 l 241 905 l 241 -270 l 110 -270 l 110 1023 z "},"":{"ha":762,"x_min":0,"x_max":762,"o":"m 0 721 l 762 721 l 762 584 l 648 584 l 648 0 l 452 0 l 452 584 l 311 584 l 311 0 l 113 0 l 113 584 l 0 584 l 0 721 z "},"∫":{"ha":380,"x_min":0,"x_max":380,"o":"m 136 643 q 147 981 136 785 q 184 1179 154 1106 q 232 1242 201 1220 q 295 1263 264 1263 q 354 1241 328 1263 q 380 1191 380 1219 q 362 1140 380 1160 q 317 1120 344 1120 q 266 1145 294 1120 q 239 1158 250 1158 q 219 1148 227 1158 q 212 1115 212 1139 q 218 1017 212 1086 q 243 566 243 739 q 233 181 243 520 q 176 -97 227 -26 q 80 -149 138 -149 q 22 -126 45 -149 q 0 -67 0 -103 q 17 -19 0 -37 q 61 0 35 0 q 109 -22 88 0 q 141 -43 127 -43 q 160 -34 153 -43 q 168 -2 168 -24 q 161 79 168 26 q 136 643 136 294 z "},"ª":{"ha":500,"x_min":32,"x_max":447,"o":"m 311 1011 l 447 1011 l 447 549 l 311 549 l 311 587 q 263 551 289 563 q 208 538 237 538 q 86 605 140 538 q 32 780 32 672 q 84 957 32 891 q 205 1023 136 1023 q 261 1010 235 1023 q 311 972 288 998 l 311 1011 m 241 901 q 190 870 212 901 q 168 781 168 838 q 193 687 168 724 q 242 659 213 659 q 294 691 271 659 q 316 781 316 722 q 294 870 316 840 q 241 901 271 901 z "},"º":{"ha":500,"x_min":31,"x_max":470,"o":"m 248 1023 q 404 954 338 1023 q 470 781 470 884 q 405 607 470 676 q 248 538 340 538 q 95 608 159 538 q 31 780 31 677 q 96 953 31 883 q 248 1023 161 1023 m 250 899 q 192 867 216 899 q 168 781 168 836 q 192 692 168 724 q 250 661 216 661 q 308 692 283 661 q 333 781 333 724 q 309 868 333 836 q 250 899 284 899 z "},"Ω":{"ha":1067,"x_min":37,"x_max":1038,"o":"m 313 140 q 168 234 224 178 q 82 371 113 291 q 52 550 52 452 q 182 890 52 760 q 527 1019 312 1019 q 795 964 691 1019 q 961 799 899 908 q 1024 551 1024 689 q 958 302 1024 407 q 765 141 891 197 l 989 157 l 1038 157 l 1038 0 l 602 0 l 602 165 q 716 247 673 199 q 784 370 759 296 q 810 532 810 445 q 733 784 810 697 q 534 871 656 871 q 339 782 416 871 q 263 535 263 692 q 290 373 263 448 q 360 248 316 298 q 475 165 404 198 l 475 0 l 37 0 l 37 156 l 104 156 l 313 140 z "},"æ":{"ha":1500,"x_min":60,"x_max":1447,"o":"m 673 738 l 843 738 l 843 684 q 1061 757 935 757 q 1259 705 1168 757 q 1398 562 1349 653 q 1447 356 1447 470 l 1446 314 l 852 314 q 924 188 868 233 q 1067 142 979 142 q 1159 159 1118 142 q 1241 216 1199 176 l 1397 143 q 1312 55 1360 90 q 1202 1 1264 20 q 1066 -19 1139 -19 q 843 53 930 -19 l 843 0 l 673 0 l 673 94 q 562 7 619 33 q 429 -19 504 -19 q 166 91 272 -19 q 60 367 60 201 q 169 644 60 530 q 427 757 277 757 q 578 721 509 757 q 673 642 627 696 l 673 738 m 1261 458 q 1193 560 1244 522 q 1067 599 1141 599 q 939 563 993 599 q 861 458 886 527 l 1261 458 m 463 589 q 310 526 372 589 q 249 368 249 463 q 309 212 249 273 q 461 150 369 150 q 615 211 557 150 q 674 373 674 272 q 614 528 674 467 q 463 589 554 589 z "},"ø":{"ha":917,"x_min":72,"x_max":848,"o":"m 762 610 q 846 370 846 502 q 794 174 846 265 q 652 32 742 83 q 456 -19 563 -19 q 250 41 342 -19 l 162 -58 l 77 15 l 165 114 q 72 368 72 222 q 198 655 72 541 q 455 757 309 757 q 680 687 576 757 l 765 782 l 848 707 l 762 610 m 287 249 l 562 556 q 458 583 516 583 q 314 523 372 583 q 256 369 256 463 q 287 249 256 305 m 637 472 l 369 173 q 458 153 412 153 q 601 214 543 153 q 659 369 659 274 q 637 472 659 425 z "},"¿":{"ha":778,"x_min":66,"x_max":707,"o":"m 399 539 q 314 573 349 539 q 279 655 279 607 q 314 738 279 703 q 397 772 349 772 q 480 738 446 772 q 515 655 515 703 q 481 573 515 607 q 399 539 447 539 m 528 12 l 706 12 q 616 -203 707 -118 q 377 -289 526 -289 q 214 -254 281 -289 q 106 -152 146 -219 q 66 -12 66 -85 q 79 66 66 28 q 119 146 92 105 q 198 226 136 170 q 272 301 256 279 q 297 360 287 323 q 310 462 307 397 l 493 462 l 494 431 q 461 266 494 340 q 353 127 428 192 q 267 40 281 64 q 252 -16 252 16 q 288 -89 252 -59 q 385 -119 323 -119 q 488 -82 448 -119 q 528 12 528 -45 z "},"¡":{"ha":389,"x_min":78,"x_max":311,"o":"m 194 772 q 276 738 242 772 q 311 656 311 704 q 276 574 311 608 q 194 540 242 540 q 112 574 146 540 q 78 656 78 608 q 112 738 78 704 q 194 772 146 772 m 288 -270 l 101 -270 l 101 459 l 288 459 l 288 -270 z "},"¬":{"ha":833,"x_min":78,"x_max":755,"o":"m 78 728 l 755 728 l 755 269 l 587 269 l 587 559 l 78 559 l 78 728 z "},"√":{"ha":762,"x_min":55,"x_max":760,"o":"m 710 1267 l 760 1267 l 549 -53 l 212 640 l 78 578 l 55 621 l 259 724 l 534 165 l 710 1267 z "},"ƒ":{"ha":778,"x_min":49,"x_max":731,"o":"m 731 985 l 709 823 q 614 863 653 863 q 570 840 587 863 q 543 734 554 817 l 528 633 l 680 633 l 657 475 l 504 475 l 432 -38 q 392 -186 418 -137 q 323 -262 366 -236 q 230 -289 280 -289 q 150 -276 191 -289 q 49 -228 109 -263 l 72 -64 q 180 -114 136 -114 q 222 -94 207 -114 q 246 -5 237 -75 l 319 475 l 165 475 l 188 633 l 342 633 l 364 802 q 429 985 382 929 q 564 1042 476 1042 q 643 1030 608 1042 q 731 985 679 1019 z "},"≈":{"ha":762,"x_min":32,"x_max":730,"o":"m 32 547 l 32 762 q 201 812 135 812 q 297 798 245 812 q 435 742 349 784 q 509 709 491 714 q 555 703 532 703 q 730 779 631 703 l 730 561 q 563 512 645 512 q 473 524 518 512 q 325 582 427 536 q 238 616 260 610 q 193 623 216 623 q 125 607 159 623 q 32 547 90 592 m 32 219 l 32 435 q 201 486 135 486 q 297 471 245 486 q 435 414 349 456 q 509 382 491 387 q 555 376 532 376 q 730 452 631 376 l 730 233 q 563 185 645 185 q 473 197 518 185 q 325 254 427 209 q 238 289 260 283 q 193 295 216 295 q 125 280 159 295 q 32 219 90 264 z "},"∆":{"ha":850,"x_min":18,"x_max":831,"o":"m 831 0 l 18 0 l 444 941 l 831 0 m 671 56 l 401 711 l 102 56 l 671 56 z "},"«":{"ha":639,"x_min":17,"x_max":622,"o":"m 141 738 l 314 738 l 189 366 l 314 0 l 141 0 l 17 366 l 141 738 m 449 738 l 622 738 l 496 366 l 622 0 l 449 0 l 324 366 l 449 738 z "},"»":{"ha":639,"x_min":17,"x_max":622,"o":"m 497 0 l 324 0 l 450 372 l 324 738 l 497 738 l 622 372 l 497 0 m 190 0 l 17 0 l 142 372 l 17 738 l 190 738 l 314 372 l 190 0 z "},"…":{"ha":1389,"x_min":125,"x_max":1263,"o":"m 694 193 q 769 162 738 193 q 800 87 800 132 q 769 12 800 43 q 694 -19 738 -19 q 619 12 650 -19 q 588 87 588 43 q 619 162 588 132 q 694 193 650 193 m 231 193 q 307 162 275 193 q 338 87 338 132 q 307 12 338 43 q 231 -19 275 -19 q 156 12 187 -19 q 125 87 125 43 q 156 162 125 132 q 231 193 187 193 m 1157 193 q 1232 162 1201 193 q 1263 87 1263 132 q 1232 12 1263 43 q 1157 -19 1201 -19 q 1082 12 1113 -19 q 1050 87 1050 43 q 1082 162 1050 132 q 1157 193 1113 193 z "}," ":{"ha":389,"x_min":0,"x_max":0,"o":""},"À":{"ha":1027,"x_min":33,"x_max":994,"o":"m 418 998 l 610 998 l 994 0 l 797 0 l 719 205 l 312 205 l 231 0 l 33 0 l 418 998 m 515 733 l 382 391 l 648 391 l 515 733 m 481 1341 l 643 1075 l 510 1075 l 262 1341 l 481 1341 z "},"Ã":{"ha":1027,"x_min":33,"x_max":994,"o":"m 418 998 l 610 998 l 994 0 l 797 0 l 719 205 l 312 205 l 231 0 l 33 0 l 418 998 m 515 733 l 382 391 l 648 391 l 515 733 m 306 1078 l 231 1190 q 407 1257 318 1257 q 521 1234 440 1257 q 608 1219 576 1219 q 726 1254 665 1219 l 797 1148 q 631 1075 711 1075 q 529 1093 589 1075 q 467 1110 480 1107 q 425 1113 450 1113 q 306 1078 366 1113 z "},"Õ":{"ha":1166,"x_min":65,"x_max":1101,"o":"m 585 1023 q 949 869 797 1023 q 1101 496 1101 716 q 951 126 1101 277 q 587 -25 801 -25 q 214 130 362 -25 q 65 499 65 286 q 134 762 65 642 q 325 952 203 882 q 585 1023 446 1023 m 583 837 q 351 741 445 837 q 256 496 256 644 q 375 234 256 330 q 587 159 467 159 q 817 256 722 159 q 911 497 911 354 q 816 738 911 640 q 583 837 720 837 m 375 1078 l 300 1190 q 476 1257 387 1257 q 590 1234 509 1257 q 677 1219 645 1219 q 795 1254 734 1219 l 866 1148 q 701 1075 781 1075 q 598 1093 658 1075 q 536 1110 549 1107 q 494 1113 519 1113 q 375 1078 435 1113 z "},"Œ":{"ha":1472,"x_min":64,"x_max":1412,"o":"m 885 998 l 1412 998 l 1412 811 l 1077 811 l 1077 630 l 1412 630 l 1412 448 l 1077 448 l 1077 186 l 1412 186 l 1412 0 l 885 0 l 885 92 q 740 3 817 31 q 570 -25 663 -25 q 313 41 427 -25 q 131 230 198 108 q 64 497 64 351 q 131 763 64 642 q 316 953 197 884 q 571 1023 435 1023 q 734 995 656 1023 q 885 909 812 968 l 885 998 m 566 840 q 348 742 440 840 q 256 499 256 644 q 298 322 256 399 q 416 201 340 245 q 580 157 492 157 q 796 252 707 157 q 884 493 884 347 q 843 671 884 591 q 726 795 801 750 q 566 840 650 840 z "},"œ":{"ha":1500,"x_min":56,"x_max":1447,"o":"m 1445 313 l 848 313 q 917 188 859 235 q 1061 141 974 141 q 1234 210 1157 141 l 1394 137 q 1248 19 1331 58 q 1059 -19 1166 -19 q 753 122 861 -19 q 620 16 696 52 q 450 -19 544 -19 q 169 94 282 -19 q 56 370 56 207 q 171 643 56 528 q 450 757 287 757 q 571 739 512 757 q 678 688 629 722 q 753 614 715 664 q 1058 757 869 757 q 1263 703 1175 757 q 1399 556 1352 650 q 1445 313 1447 462 m 1261 458 q 1187 561 1240 525 q 1060 597 1134 597 q 929 559 985 597 q 854 458 872 520 l 1261 458 m 452 589 q 344 561 392 589 q 268 481 296 533 q 241 368 241 430 q 268 254 241 306 q 341 175 294 203 q 447 148 387 148 q 598 209 539 148 q 658 370 658 271 q 598 527 658 464 q 452 589 538 589 z "},"–":{"ha":694,"x_min":-8,"x_max":703,"o":"m -8 318 l -8 482 l 703 482 l 703 318 l -8 318 z "},"—":{"ha":1389,"x_min":-8,"x_max":1397,"o":"m -8 318 l -8 482 l 1397 482 l 1397 318 l -8 318 z "},"“":{"ha":667,"x_min":111,"x_max":558,"o":"m 281 642 l 111 642 l 111 736 q 133 890 111 825 q 207 1023 155 955 l 273 970 q 236 907 248 934 q 213 837 224 881 l 281 837 l 281 642 m 558 642 l 387 642 l 387 736 q 409 890 387 825 q 484 1023 431 955 l 550 970 q 513 907 525 934 q 490 837 501 881 l 558 837 l 558 642 z "},"”":{"ha":667,"x_min":109,"x_max":556,"o":"m 385 1023 l 556 1023 l 556 929 q 534 775 556 840 q 459 642 512 711 l 393 694 q 430 758 418 731 q 453 829 442 785 l 385 829 l 385 1023 m 109 1023 l 279 1023 l 279 929 q 257 775 279 840 q 183 642 235 711 l 117 694 q 154 758 142 731 q 177 829 165 785 l 109 829 l 109 1023 z "},"‘":{"ha":389,"x_min":113,"x_max":284,"o":"m 284 642 l 113 642 l 113 736 q 135 890 113 825 q 210 1023 157 955 l 276 970 q 239 907 251 934 q 216 837 227 881 l 284 837 l 284 642 z "},"’":{"ha":389,"x_min":105,"x_max":276,"o":"m 105 1023 l 276 1023 l 276 929 q 254 775 276 840 q 180 642 232 711 l 113 694 q 150 758 138 731 q 174 829 162 785 l 105 829 l 105 1023 z "},"÷":{"ha":762,"x_min":42,"x_max":720,"o":"m 272 899 l 490 899 l 490 682 l 272 682 l 272 899 m 42 583 l 720 583 l 720 414 l 42 414 l 42 583 m 272 316 l 490 316 l 490 98 l 272 98 l 272 316 z "},"◊":{"ha":686,"x_min":32,"x_max":656,"o":"m 372 964 l 656 481 l 372 0 l 297 0 l 32 481 l 297 964 l 372 964 m 336 899 l 105 481 l 336 64 l 579 481 l 336 899 z "},"ÿ":{"ha":806,"x_min":12,"x_max":794,"o":"m 12 738 l 201 738 l 393 275 l 604 738 l 794 738 l 332 -270 l 140 -270 l 292 55 l 12 738 m 252 1067 q 321 1038 293 1067 q 350 970 350 1010 q 321 901 350 929 q 252 872 293 872 q 184 901 212 872 q 155 970 155 929 q 184 1038 155 1010 q 252 1067 212 1067 m 553 1067 q 622 1038 593 1067 q 650 970 650 1010 q 622 901 650 929 q 553 872 593 872 q 484 901 513 872 q 456 970 456 929 q 484 1038 456 1010 q 553 1067 513 1067 z "},"Ÿ":{"ha":861,"x_min":43,"x_max":819,"o":"m 43 998 l 247 998 l 433 640 l 617 998 l 819 998 l 527 432 l 527 0 l 336 0 l 336 432 l 43 998 m 287 1269 q 356 1240 328 1269 q 385 1172 385 1212 q 356 1103 385 1131 q 287 1074 328 1074 q 218 1103 247 1074 q 190 1172 190 1131 q 218 1240 190 1212 q 287 1269 247 1269 m 587 1269 q 656 1240 628 1269 q 685 1172 685 1212 q 656 1103 685 1131 q 587 1074 628 1074 q 519 1103 547 1074 q 490 1172 490 1131 q 519 1240 490 1212 q 587 1269 547 1269 z "},"⁄":{"ha":222,"x_min":-159,"x_max":381,"o":"m -159 -25 l 265 1023 l 381 1023 l -43 -25 l -159 -25 z "},"∕":{"ha":222,"x_min":-159,"x_max":381,"o":"m -159 -25 l 265 1023 l 381 1023 l -43 -25 l -159 -25 z "},"€":{"ha":778,"x_min":7,"x_max":753,"o":"m 304 345 q 428 206 345 255 q 615 157 511 157 q 753 184 682 157 l 753 -7 q 612 -25 690 -25 q 290 73 427 -25 q 104 345 153 170 l 7 345 l 33 456 l 86 456 q 85 500 85 469 q 86 542 85 529 l 7 542 l 35 653 l 106 653 q 297 924 157 825 q 615 1022 438 1022 q 753 1002 684 1022 l 711 823 q 611 840 659 840 q 431 791 513 840 q 306 653 349 741 l 671 653 l 646 542 l 273 542 q 271 500 271 515 q 273 456 271 483 l 625 456 l 599 345 l 304 345 z "},"‹":{"ha":333,"x_min":18,"x_max":315,"o":"m 142 738 l 315 738 l 190 366 l 315 0 l 142 0 l 18 366 l 142 738 z "},"›":{"ha":333,"x_min":18,"x_max":315,"o":"m 191 0 l 18 0 l 144 372 l 18 738 l 191 738 l 315 372 l 191 0 z "},"":{"ha":722,"x_min":3,"x_max":638,"o":"m 3 738 l 71 738 q 102 909 71 850 q 198 1005 133 969 q 357 1042 264 1042 q 498 1015 439 1042 q 591 943 557 989 q 638 821 625 897 l 446 821 q 411 869 435 852 q 355 886 387 886 q 302 870 326 886 q 266 824 278 854 q 257 738 257 804 l 366 738 l 366 582 l 257 582 l 257 0 l 71 0 l 71 582 l 3 582 l 3 738 m 453 738 l 638 738 l 638 0 l 453 0 l 453 738 z "},"ﬁ":{"ha":722,"x_min":3,"x_max":638,"o":"m 3 738 l 71 738 q 102 909 71 850 q 198 1005 133 969 q 357 1042 264 1042 q 498 1015 439 1042 q 591 943 557 989 q 638 821 625 897 l 446 821 q 411 869 435 852 q 355 886 387 886 q 302 870 326 886 q 266 824 278 854 q 257 738 257 804 l 366 738 l 366 582 l 257 582 l 257 0 l 71 0 l 71 582 l 3 582 l 3 738 m 453 738 l 638 738 l 638 0 l 453 0 l 453 738 z "},"":{"ha":722,"x_min":3,"x_max":639,"o":"m 3 738 l 72 738 q 103 909 72 848 q 199 1006 135 971 q 355 1042 262 1042 q 515 1006 451 1042 q 609 913 579 970 q 639 738 639 857 l 639 0 l 453 0 l 453 724 q 435 844 453 815 q 356 886 410 886 q 302 871 325 886 q 268 827 279 855 q 257 738 257 800 l 365 738 l 365 582 l 257 582 l 257 0 l 72 0 l 72 582 l 3 582 l 3 738 z "},"ﬂ":{"ha":722,"x_min":3,"x_max":639,"o":"m 3 738 l 72 738 q 103 909 72 848 q 199 1006 135 971 q 355 1042 262 1042 q 515 1006 451 1042 q 609 913 579 970 q 639 738 639 857 l 639 0 l 453 0 l 453 724 q 435 844 453 815 q 356 886 410 886 q 302 871 325 886 q 268 827 279 855 q 257 738 257 800 l 365 738 l 365 582 l 257 582 l 257 0 l 72 0 l 72 582 l 3 582 l 3 738 z "},"‡":{"ha":778,"x_min":26,"x_max":753,"o":"m 298 1023 l 480 1023 l 446 705 l 753 738 l 753 555 l 446 591 l 480 372 l 446 154 l 753 191 l 753 5 l 446 41 l 480 -270 l 298 -270 l 331 41 l 26 5 l 26 191 l 331 154 l 298 372 l 331 591 l 26 555 l 26 738 l 331 705 l 298 1023 z "},"∙":{"ha":389,"x_min":88,"x_max":301,"o":"m 195 605 q 270 574 239 605 q 301 498 301 543 q 270 423 301 454 q 195 392 239 392 q 119 423 151 392 q 88 498 88 454 q 119 574 88 543 q 195 605 151 605 z "},"‚":{"ha":389,"x_min":105,"x_max":276,"o":"m 105 194 l 276 194 l 276 100 q 254 -54 276 11 q 180 -186 232 -118 l 113 -134 q 150 -71 138 -97 q 174 0 162 -44 l 105 0 l 105 194 z "},"„":{"ha":667,"x_min":109,"x_max":556,"o":"m 385 194 l 556 194 l 556 100 q 534 -54 556 11 q 459 -186 512 -118 l 393 -134 q 430 -71 418 -97 q 453 0 442 -44 l 385 0 l 385 194 m 109 194 l 279 194 l 279 100 q 257 -54 279 11 q 183 -186 235 -118 l 117 -134 q 154 -71 142 -97 q 177 0 165 -44 l 109 0 l 109 194 z "},"‰":{"ha":1777,"x_min":28,"x_max":1750,"o":"m 916 1042 l 1053 1042 l 262 -68 l 125 -68 l 802 885 q 687 870 741 875 q 588 865 633 865 q 489 869 541 865 q 504 783 504 822 q 435 615 504 684 q 267 546 366 546 q 98 615 168 546 q 28 783 28 684 q 59 901 28 846 q 147 989 90 956 q 259 1023 203 1023 q 375 1006 301 1023 q 606 978 506 978 q 773 994 696 978 q 916 1042 851 1010 m 266 899 q 185 865 218 899 q 151 785 151 831 q 185 704 151 737 q 266 670 218 670 q 347 704 313 670 q 380 785 380 737 q 347 865 380 832 q 266 899 313 899 m 1512 450 q 1680 380 1611 450 q 1750 211 1750 310 q 1680 43 1750 113 q 1512 -27 1611 -27 q 1343 43 1413 -27 q 1274 211 1274 113 q 1343 380 1274 310 q 1512 450 1413 450 m 1511 327 q 1430 293 1463 327 q 1396 212 1396 259 q 1430 130 1396 164 q 1511 96 1463 96 q 1593 130 1559 96 q 1626 212 1626 164 q 1593 293 1626 259 q 1511 327 1559 327 m 927 450 q 1095 380 1025 450 q 1165 211 1165 310 q 1095 43 1165 113 q 927 -27 1025 -27 q 759 43 828 -27 q 689 211 689 113 q 759 380 689 310 q 927 450 828 450 m 926 327 q 845 293 878 327 q 811 212 811 259 q 845 130 811 164 q 926 96 878 96 q 1007 130 974 96 q 1041 212 1041 164 q 1007 293 1041 259 q 926 327 974 327 z "},"Â":{"ha":1027,"x_min":33,"x_max":994,"o":"m 418 998 l 610 998 l 994 0 l 797 0 l 719 205 l 312 205 l 231 0 l 33 0 l 418 998 m 515 733 l 382 391 l 648 391 l 515 733 m 237 1075 l 440 1267 l 589 1267 l 791 1075 l 589 1075 l 515 1164 l 440 1075 l 237 1075 z "},"Ê":{"ha":722,"x_min":109,"x_max":663,"o":"m 115 998 l 659 998 l 659 812 l 303 812 l 303 631 l 659 631 l 659 449 l 303 449 l 303 186 l 659 186 l 659 0 l 115 0 l 115 998 m 109 1075 l 312 1267 l 460 1267 l 663 1075 l 460 1075 l 387 1164 l 312 1075 l 109 1075 z "},"Á":{"ha":1027,"x_min":33,"x_max":994,"o":"m 418 998 l 610 998 l 994 0 l 797 0 l 719 205 l 312 205 l 231 0 l 33 0 l 418 998 m 515 733 l 382 391 l 648 391 l 515 733 m 546 1341 l 765 1341 l 517 1075 l 384 1075 l 546 1341 z "},"Ë":{"ha":722,"x_min":115,"x_max":659,"o":"m 115 998 l 659 998 l 659 812 l 303 812 l 303 631 l 659 631 l 659 449 l 303 449 l 303 186 l 659 186 l 659 0 l 115 0 l 115 998 m 235 1269 q 304 1240 276 1269 q 333 1172 333 1212 q 304 1103 333 1131 q 235 1074 276 1074 q 167 1103 195 1074 q 138 1172 138 1131 q 167 1240 138 1212 q 235 1269 195 1269 m 536 1269 q 605 1240 576 1269 q 633 1172 633 1212 q 605 1103 633 1131 q 536 1074 576 1074 q 467 1103 496 1074 q 439 1172 439 1131 q 467 1240 439 1212 q 536 1269 496 1269 z "},"È":{"ha":722,"x_min":115,"x_max":659,"o":"m 115 998 l 659 998 l 659 812 l 303 812 l 303 631 l 659 631 l 659 449 l 303 449 l 303 186 l 659 186 l 659 0 l 115 0 l 115 998 m 353 1341 l 515 1075 l 382 1075 l 134 1341 l 353 1341 z "},"Í":{"ha":389,"x_min":65,"x_max":446,"o":"m 100 998 l 289 998 l 289 0 l 100 0 l 100 998 m 227 1341 l 446 1341 l 198 1075 l 65 1075 l 227 1341 z "},"Î":{"ha":389,"x_min":-83,"x_max":471,"o":"m 100 998 l 289 998 l 289 0 l 100 0 l 100 998 m -83 1075 l 121 1267 l 269 1267 l 471 1075 l 269 1075 l 196 1164 l 121 1075 l -83 1075 z "},"Ï":{"ha":389,"x_min":-53,"x_max":442,"o":"m 100 998 l 289 998 l 289 0 l 100 0 l 100 998 m 44 1269 q 113 1240 85 1269 q 142 1172 142 1212 q 113 1103 142 1131 q 44 1074 85 1074 q -24 1103 4 1074 q -53 1172 -53 1131 q -24 1240 -53 1212 q 44 1269 4 1269 m 345 1269 q 414 1240 385 1269 q 442 1172 442 1212 q 414 1103 442 1131 q 345 1074 385 1074 q 276 1103 304 1074 q 248 1172 248 1131 q 276 1240 248 1212 q 345 1269 304 1269 z "},"Ì":{"ha":389,"x_min":-57,"x_max":324,"o":"m 100 998 l 289 998 l 289 0 l 100 0 l 100 998 m 162 1341 l 324 1075 l 191 1075 l -57 1341 l 162 1341 z "},"Ó":{"ha":1166,"x_min":65,"x_max":1101,"o":"m 585 1023 q 949 869 797 1023 q 1101 496 1101 716 q 951 126 1101 277 q 587 -25 801 -25 q 214 130 362 -25 q 65 499 65 286 q 134 762 65 642 q 325 952 203 882 q 585 1023 446 1023 m 583 837 q 351 741 445 837 q 256 496 256 644 q 375 234 256 330 q 587 159 467 159 q 817 256 722 159 q 911 497 911 354 q 816 738 911 640 q 583 837 720 837 m 616 1341 l 835 1341 l 587 1075 l 454 1075 l 616 1341 z "},"Ô":{"ha":1166,"x_min":65,"x_max":1101,"o":"m 585 1023 q 949 869 797 1023 q 1101 496 1101 716 q 951 126 1101 277 q 587 -25 801 -25 q 214 130 362 -25 q 65 499 65 286 q 134 762 65 642 q 325 952 203 882 q 585 1023 446 1023 m 583 837 q 351 741 445 837 q 256 496 256 644 q 375 234 256 330 q 587 159 467 159 q 817 256 722 159 q 911 497 911 354 q 816 738 911 640 q 583 837 720 837 m 306 1075 l 509 1267 l 658 1267 l 860 1075 l 658 1075 l 585 1164 l 509 1075 l 306 1075 z "},"":{"ha":1097,"x_min":0,"x_max":0,"o":""},"Ò":{"ha":1166,"x_min":65,"x_max":1101,"o":"m 585 1023 q 949 869 797 1023 q 1101 496 1101 716 q 951 126 1101 277 q 587 -25 801 -25 q 214 130 362 -25 q 65 499 65 286 q 134 762 65 642 q 325 952 203 882 q 585 1023 446 1023 m 583 837 q 351 741 445 837 q 256 496 256 644 q 375 234 256 330 q 587 159 467 159 q 817 256 722 159 q 911 497 911 354 q 816 738 911 640 q 583 837 720 837 m 551 1341 l 713 1075 l 580 1075 l 332 1341 l 551 1341 z "},"Ú":{"ha":889,"x_min":107,"x_max":783,"o":"m 107 998 l 298 998 l 298 352 q 312 234 298 269 q 360 179 327 199 q 441 158 394 158 q 528 181 492 158 q 578 240 564 204 q 592 376 592 275 l 592 998 l 783 998 l 783 403 q 766 194 783 252 q 701 81 749 136 q 591 1 653 27 q 446 -25 528 -25 q 257 25 337 -25 q 142 150 176 75 q 107 403 107 224 l 107 998 m 477 1341 l 696 1341 l 448 1075 l 315 1075 l 477 1341 z "},"Û":{"ha":889,"x_min":107,"x_max":783,"o":"m 107 998 l 298 998 l 298 352 q 312 234 298 269 q 360 179 327 199 q 441 158 394 158 q 528 181 492 158 q 578 240 564 204 q 592 376 592 275 l 592 998 l 783 998 l 783 403 q 766 194 783 252 q 701 81 749 136 q 591 1 653 27 q 446 -25 528 -25 q 257 25 337 -25 q 142 150 176 75 q 107 403 107 224 l 107 998 m 168 1075 l 371 1267 l 519 1267 l 722 1075 l 519 1075 l 446 1164 l 371 1075 l 168 1075 z "},"Ù":{"ha":889,"x_min":107,"x_max":783,"o":"m 107 998 l 298 998 l 298 352 q 312 234 298 269 q 360 179 327 199 q 441 158 394 158 q 528 181 492 158 q 578 240 564 204 q 592 376 592 275 l 592 998 l 783 998 l 783 403 q 766 194 783 252 q 701 81 749 136 q 591 1 653 27 q 446 -25 528 -25 q 257 25 337 -25 q 142 150 176 75 q 107 403 107 224 l 107 998 m 412 1341 l 574 1075 l 441 1075 l 193 1341 l 412 1341 z "},"ı":{"ha":333,"x_min":73,"x_max":259,"o":"m 73 738 l 259 738 l 259 0 l 73 0 l 73 738 z "},"ˆ":{"ha":750,"x_min":98,"x_max":652,"o":"m 98 873 l 301 1065 l 450 1065 l 652 873 l 450 873 l 376 962 l 301 873 l 98 873 z "},"˜":{"ha":667,"x_min":51,"x_max":616,"o":"m 125 876 l 51 987 q 227 1055 138 1055 q 340 1031 260 1055 q 428 1017 395 1017 q 546 1052 485 1017 l 616 946 q 451 873 531 873 q 349 891 408 873 q 287 908 300 905 q 245 911 269 911 q 125 876 185 911 z "},"ˉ":{"ha":583,"x_min":98,"x_max":484,"o":"m 98 873 l 98 1023 l 484 1023 l 484 873 l 98 873 z "},"˘":{"ha":667,"x_min":58,"x_max":610,"o":"m 58 1063 l 208 1063 q 257 1022 225 1036 q 334 1008 288 1008 q 417 1024 380 1008 q 460 1063 441 1035 l 610 1063 q 527 925 597 977 q 333 873 458 873 q 192 896 249 873 q 101 963 136 920 q 58 1063 66 1006 z "},"˙":{"ha":389,"x_min":97,"x_max":292,"o":"m 194 1067 q 263 1038 235 1067 q 292 970 292 1010 q 263 901 292 929 q 194 872 235 872 q 125 901 154 872 q 97 970 97 929 q 125 1038 97 1010 q 194 1067 154 1067 z "},"˚":{"ha":500,"x_min":101,"x_max":398,"o":"m 250 1176 q 355 1132 311 1176 q 398 1025 398 1087 q 354 917 398 962 q 250 873 311 873 q 145 917 189 873 q 101 1025 101 962 q 144 1132 101 1087 q 250 1176 188 1176 m 250 1088 q 210 1071 227 1088 q 194 1028 194 1053 q 211 985 194 1002 q 250 967 227 967 q 289 985 272 967 q 305 1028 305 1002 q 289 1071 305 1053 q 250 1088 273 1088 z "},"¸":{"ha":472,"x_min":57,"x_max":382,"o":"m 178 11 l 292 11 l 284 -20 q 356 -60 330 -31 q 382 -125 382 -90 q 336 -219 382 -180 q 208 -258 290 -258 q 57 -227 141 -258 l 81 -140 q 177 -155 130 -155 q 229 -142 212 -155 q 245 -107 245 -129 q 233 -79 245 -90 q 192 -69 220 -69 l 154 -71 l 178 11 z "},"˝":{"ha":972,"x_min":223,"x_max":907,"o":"m 385 1139 l 604 1139 l 356 873 l 223 873 l 385 1139 m 688 1139 l 907 1139 l 659 873 l 526 873 l 688 1139 z "},"˛":{"ha":472,"x_min":109,"x_max":361,"o":"m 229 0 l 327 0 q 232 -112 232 -56 q 252 -157 232 -140 q 302 -175 271 -175 q 361 -157 326 -175 l 361 -264 q 275 -275 315 -275 q 152 -238 195 -275 q 109 -146 109 -201 q 140 -66 109 -105 q 229 0 170 -26 z "},"ˇ":{"ha":750,"x_min":98,"x_max":652,"o":"m 98 1065 l 301 1065 l 376 975 l 450 1065 l 652 1065 l 450 873 l 301 873 l 98 1065 z "},"Ł":{"ha":667,"x_min":28,"x_max":609,"o":"m 332 675 l 484 852 l 484 679 l 332 501 l 332 181 l 609 181 l 609 0 l 142 0 l 142 279 l 28 145 l 28 320 l 142 453 l 142 998 l 332 998 l 332 675 z "},"ł":{"ha":444,"x_min":56,"x_max":389,"o":"m 315 699 l 389 781 l 389 613 l 315 530 l 315 0 l 130 0 l 130 323 l 56 241 l 56 408 l 130 491 l 130 1023 l 315 1023 l 315 699 z "},"Š":{"ha":722,"x_min":28,"x_max":654,"o":"m 637 862 l 496 738 q 346 841 422 841 q 285 821 309 841 q 261 776 261 801 q 278 728 261 751 q 417 600 301 699 q 549 486 526 509 q 630 374 606 427 q 654 258 654 321 q 570 55 654 135 q 349 -25 485 -25 q 163 27 242 -25 q 28 191 84 79 l 187 288 q 353 155 259 155 q 435 184 401 155 q 468 250 468 212 q 443 317 468 283 q 332 421 418 351 q 122 626 170 554 q 75 770 75 699 q 154 948 75 874 q 349 1023 233 1023 q 491 988 423 1023 q 637 862 558 954 m 84 1267 l 288 1267 l 363 1177 l 436 1267 l 638 1267 l 436 1075 l 288 1075 l 84 1267 z "},"š":{"ha":611,"x_min":28,"x_max":583,"o":"m 545 635 l 431 520 q 304 589 361 589 q 255 576 273 589 q 237 543 237 563 q 249 516 237 528 q 304 481 260 503 l 372 448 q 519 340 479 395 q 559 211 559 285 q 487 47 559 113 q 293 -19 414 -19 q 35 107 132 -19 l 149 231 q 225 170 182 193 q 303 146 269 146 q 362 164 340 146 q 385 205 385 182 q 304 288 385 248 l 241 319 q 62 545 62 410 q 130 695 62 633 q 302 757 197 757 q 438 725 374 757 q 545 635 501 694 m 28 1065 l 232 1065 l 307 975 l 380 1065 l 583 1065 l 380 873 l 232 873 l 28 1065 z "},"Ž":{"ha":694,"x_min":32,"x_max":665,"o":"m 61 998 l 665 998 l 309 182 l 642 182 l 642 0 l 32 0 l 387 810 l 61 810 l 61 998 m 70 1267 l 273 1267 l 349 1177 l 422 1267 l 624 1267 l 422 1075 l 273 1075 l 70 1267 z "},"ž":{"ha":639,"x_min":11,"x_max":628,"o":"m 62 738 l 628 738 l 296 157 l 609 157 l 609 0 l 11 0 l 345 581 l 62 581 l 62 738 m 42 1065 l 245 1065 l 321 975 l 394 1065 l 596 1065 l 394 873 l 245 873 l 42 1065 z "},"¦":{"ha":833,"x_min":364,"x_max":471,"o":"m 364 505 l 364 1023 l 471 1023 l 471 542 l 364 505 m 364 -270 l 364 347 l 471 385 l 471 -270 l 364 -270 z "},"Ð":{"ha":1031,"x_min":34,"x_max":956,"o":"m 149 998 l 391 998 q 713 944 608 998 q 888 768 819 890 q 956 485 956 647 q 918 273 956 370 q 812 113 880 176 q 666 24 745 49 q 393 0 587 0 l 149 0 l 149 444 l 34 444 l 34 554 l 149 554 l 149 998 m 338 814 l 338 554 l 543 554 l 543 444 l 338 444 l 338 186 l 442 186 q 631 216 572 186 q 727 316 690 245 q 764 490 764 387 q 675 736 764 648 q 418 814 595 814 l 338 814 z "},"ð":{"ha":889,"x_min":59,"x_max":836,"o":"m 260 1023 l 440 1023 l 496 982 l 631 1023 l 665 916 l 594 893 q 773 655 711 785 q 836 395 836 525 q 723 97 836 214 q 443 -19 610 -19 q 171 94 283 -19 q 59 369 59 208 q 185 657 59 540 q 424 757 292 757 q 511 738 467 757 q 440 846 492 781 l 260 790 l 226 898 l 356 939 q 260 1023 291 1000 m 446 582 q 301 523 358 582 q 244 369 244 464 q 300 213 244 273 q 443 153 356 153 q 589 214 530 153 q 647 368 647 274 q 590 522 647 462 q 446 582 533 582 z "},"Ý":{"ha":861,"x_min":43,"x_max":819,"o":"m 43 998 l 247 998 l 433 640 l 617 998 l 819 998 l 527 432 l 527 0 l 336 0 l 336 432 l 43 998 m 463 1341 l 682 1341 l 434 1075 l 301 1075 l 463 1341 z "},"ý":{"ha":806,"x_min":12,"x_max":794,"o":"m 12 738 l 201 738 l 393 275 l 604 738 l 794 738 l 332 -270 l 140 -270 l 292 55 l 12 738 m 435 1139 l 654 1139 l 406 873 l 273 873 l 435 1139 z "},"Þ":{"ha":778,"x_min":113,"x_max":706,"o":"m 113 998 l 303 998 l 303 786 q 549 756 477 786 q 664 660 621 727 q 706 497 706 592 q 651 323 706 392 q 503 227 597 254 q 303 211 448 211 l 303 0 l 113 0 l 113 998 m 303 396 l 363 396 q 463 406 435 396 q 506 440 490 416 q 522 497 522 464 q 477 581 522 554 q 357 601 445 601 l 303 601 l 303 396 z "},"þ":{"ha":917,"x_min":94,"x_max":857,"o":"m 277 1023 l 277 656 q 386 732 328 707 q 511 757 444 757 q 756 648 655 757 q 857 368 857 538 q 753 92 857 203 q 505 -19 648 -19 q 387 4 441 -19 q 277 78 332 26 l 277 -270 l 94 -270 l 94 1023 l 277 1023 m 472 586 q 327 526 385 586 q 269 370 269 467 q 327 211 269 272 q 472 151 385 151 q 615 212 557 151 q 673 370 673 274 q 616 525 673 465 q 472 586 559 586 z "},"−":{"ha":833,"x_min":78,"x_max":755,"o":"m 78 583 l 755 583 l 755 414 l 78 414 l 78 583 z "},"×":{"ha":833,"x_min":100,"x_max":730,"o":"m 416 399 l 201 184 l 100 284 l 315 499 l 100 714 l 201 814 l 416 600 l 630 814 l 730 714 l 515 499 l 730 284 l 630 184 l 416 399 z "},"¹":{"ha":467,"x_min":56,"x_max":315,"o":"m 135 1010 l 315 1010 l 315 497 l 187 497 l 187 903 l 56 903 l 135 1010 z "},"²":{"ha":467,"x_min":13,"x_max":437,"o":"m 154 832 l 28 832 q 89 972 33 922 q 239 1023 144 1023 q 383 972 334 1023 q 432 867 432 922 q 402 769 432 821 q 291 646 372 717 l 243 604 l 437 604 l 437 497 l 13 497 l 13 557 l 197 714 q 283 802 263 770 q 304 859 304 834 q 284 900 304 884 q 232 916 265 916 q 176 894 197 916 q 154 832 155 872 z "},"³":{"ha":467,"x_min":20,"x_max":444,"o":"m 165 869 l 41 869 q 95 976 57 943 q 232 1023 148 1023 q 361 982 311 1023 q 411 886 411 941 q 348 785 411 821 q 418 731 393 767 q 444 655 444 696 q 384 536 444 587 q 225 485 324 485 q 78 534 133 485 q 20 665 22 584 l 145 665 q 231 590 158 590 q 292 609 268 590 q 315 652 315 627 q 182 723 315 719 l 182 817 q 264 832 241 817 q 286 872 286 847 q 272 904 286 891 q 235 918 258 918 q 165 869 190 918 z "},"½":{"ha":1166,"x_min":62,"x_max":1131,"o":"m 140 1010 l 320 1010 l 320 497 l 193 497 l 193 903 l 62 903 l 140 1010 m 289 -25 l 713 1023 l 829 1023 l 405 -25 l 289 -25 m 848 335 l 723 335 q 783 475 727 425 q 934 526 839 526 q 1077 475 1028 526 q 1126 370 1126 425 q 1097 272 1126 324 q 985 149 1067 220 l 938 106 l 1131 106 l 1131 0 l 707 0 l 707 60 l 892 217 q 978 305 958 273 q 998 362 998 337 q 979 402 998 387 q 926 418 960 418 q 870 397 891 418 q 848 335 849 375 z "},"¼":{"ha":1166,"x_min":62,"x_max":1142,"o":"m 140 1010 l 320 1010 l 320 497 l 193 497 l 193 903 l 62 903 l 140 1010 m 313 -25 l 738 1023 l 854 1023 l 429 -25 l 313 -25 m 966 526 l 1089 526 l 1089 197 l 1142 197 l 1142 102 l 1089 102 l 1089 0 l 975 0 l 975 102 l 707 102 l 707 202 l 966 526 m 975 197 l 975 379 l 827 197 l 975 197 z "},"¾":{"ha":1166,"x_min":26,"x_max":1142,"o":"m 171 869 l 47 869 q 100 976 62 943 q 237 1023 153 1023 q 367 982 317 1023 q 416 886 416 941 q 353 785 416 821 q 424 731 398 767 q 449 655 449 696 q 389 536 449 587 q 231 485 330 485 q 83 534 138 485 q 26 665 28 584 l 151 665 q 236 590 163 590 q 297 609 273 590 q 321 652 321 627 q 187 723 321 719 l 187 817 q 269 832 247 817 q 292 872 292 847 q 278 904 292 891 q 241 918 264 918 q 171 869 195 918 m 330 -25 l 754 1023 l 870 1023 l 446 -25 l 330 -25 m 966 526 l 1089 526 l 1089 197 l 1142 197 l 1142 102 l 1089 102 l 1089 0 l 975 0 l 975 102 l 707 102 l 707 202 l 966 526 m 975 197 l 975 379 l 827 197 l 975 197 z "},"₣":{"ha":667,"x_min":0,"x_max":612,"o":"m 304 280 l 458 280 l 458 170 l 304 170 l 304 0 l 117 0 l 117 170 l 0 170 l 0 280 l 117 280 l 117 998 l 612 998 l 612 812 l 304 812 l 304 631 l 612 631 l 612 449 l 304 449 l 304 280 z "},"Ğ":{"ha":1166,"x_min":69,"x_max":1106,"o":"m 1035 835 l 901 703 q 606 837 774 837 q 359 739 458 837 q 260 502 260 642 q 363 257 260 357 q 617 157 466 157 q 783 198 715 157 q 892 328 850 239 l 603 328 l 603 506 l 1105 506 l 1106 464 q 1038 216 1106 333 q 863 37 970 98 q 610 -25 755 -25 q 333 42 454 -25 q 140 235 211 110 q 69 504 69 359 q 200 848 69 702 q 604 1023 355 1023 q 848 975 734 1023 q 1035 835 943 934 m 307 1264 l 457 1264 q 506 1222 475 1236 q 583 1208 538 1208 q 667 1225 629 1208 q 709 1264 691 1236 l 859 1264 q 777 1126 846 1178 q 583 1074 707 1074 q 442 1097 498 1074 q 351 1164 385 1120 q 307 1264 316 1207 z "},"ğ":{"ha":917,"x_min":61,"x_max":823,"o":"m 639 738 l 823 738 l 823 106 q 748 -170 823 -81 q 444 -289 647 -289 q 261 -262 335 -289 q 136 -182 187 -235 q 61 -54 85 -130 l 265 -54 q 335 -101 292 -85 q 436 -117 378 -117 q 556 -94 511 -117 q 620 -35 602 -71 q 639 92 639 2 q 536 21 590 43 q 415 0 483 0 q 164 107 267 0 q 62 378 62 214 q 170 661 62 554 q 405 757 269 757 q 525 733 469 757 q 639 656 582 710 l 639 738 m 447 584 q 302 525 359 584 q 245 378 245 467 q 304 227 245 286 q 450 168 362 168 q 592 225 536 168 q 648 376 648 283 q 592 526 648 469 q 447 584 536 584 m 207 1063 l 357 1063 q 406 1022 374 1036 q 483 1008 437 1008 q 566 1024 529 1008 q 609 1063 591 1035 l 759 1063 q 676 925 746 977 q 482 873 607 873 q 341 896 398 873 q 250 963 285 920 q 207 1063 216 1006 z "},"İ":{"ha":389,"x_min":97,"x_max":292,"o":"m 100 998 l 289 998 l 289 0 l 100 0 l 100 998 m 194 1267 q 263 1239 235 1267 q 292 1171 292 1211 q 263 1101 292 1130 q 194 1073 235 1073 q 125 1101 154 1073 q 97 1171 97 1130 q 125 1239 97 1211 q 194 1267 154 1267 z "},"Ş":{"ha":722,"x_min":28,"x_max":654,"o":"m 637 862 l 496 738 q 346 841 422 841 q 285 821 309 841 q 261 776 261 801 q 278 728 261 751 q 417 600 301 699 q 549 486 526 509 q 630 374 606 427 q 654 258 654 321 q 570 55 654 135 q 349 -25 485 -25 q 163 27 242 -25 q 28 191 84 79 l 187 288 q 353 155 259 155 q 435 184 401 155 q 468 250 468 212 q 443 317 468 283 q 332 421 418 351 q 122 626 170 554 q 75 770 75 699 q 154 948 75 874 q 349 1023 233 1023 q 491 988 423 1023 q 637 862 558 954 m 303 11 l 418 11 l 410 -20 q 481 -60 455 -31 q 507 -125 507 -90 q 461 -219 507 -180 q 333 -258 415 -258 q 182 -227 267 -258 l 207 -140 q 302 -155 256 -155 q 354 -142 337 -155 q 371 -107 371 -129 q 358 -79 371 -90 q 317 -69 345 -69 l 279 -71 l 303 11 z "},"ş":{"ha":611,"x_min":35,"x_max":559,"o":"m 545 635 l 431 520 q 304 589 361 589 q 255 576 273 589 q 237 543 237 563 q 249 516 237 528 q 304 481 260 503 l 372 448 q 519 340 479 395 q 559 211 559 285 q 487 47 559 113 q 293 -19 414 -19 q 35 107 132 -19 l 149 231 q 225 170 182 193 q 303 146 269 146 q 362 164 340 146 q 385 205 385 182 q 304 288 385 248 l 241 319 q 62 545 62 410 q 130 695 62 633 q 302 757 197 757 q 438 725 374 757 q 545 635 501 694 m 248 11 l 362 11 l 354 -20 q 426 -60 399 -31 q 452 -125 452 -90 q 406 -219 452 -180 q 277 -258 359 -258 q 127 -227 211 -258 l 151 -140 q 247 -155 200 -155 q 298 -142 281 -155 q 315 -107 315 -129 q 302 -79 315 -90 q 262 -69 290 -69 l 224 -71 l 248 11 z "},"Ć":{"ha":1083,"x_min":64,"x_max":1031,"o":"m 1031 822 l 898 695 q 593 838 762 838 q 352 741 450 838 q 254 500 254 643 q 297 323 254 400 q 420 201 340 245 q 596 157 499 157 q 747 188 679 157 q 898 300 816 219 l 1027 166 q 818 17 916 58 q 593 -25 720 -25 q 213 122 361 -25 q 64 500 64 270 q 132 766 64 650 q 325 952 199 882 q 596 1023 451 1023 q 834 970 720 1023 q 1031 822 948 918 m 607 1339 l 826 1339 l 578 1074 l 445 1074 l 607 1339 z "},"ć":{"ha":889,"x_min":58,"x_max":816,"o":"m 816 589 l 662 504 q 576 567 618 549 q 477 585 534 585 q 309 523 373 585 q 245 363 245 460 q 307 210 245 269 q 469 150 368 150 q 662 235 593 150 l 808 135 q 473 -19 689 -19 q 168 96 278 -19 q 58 366 58 212 q 111 564 58 473 q 261 705 165 654 q 475 757 357 757 q 673 713 585 757 q 816 589 760 669 m 502 1139 l 721 1139 l 473 873 l 340 873 l 502 1139 z "},"Č":{"ha":1083,"x_min":64,"x_max":1031,"o":"m 1031 822 l 898 695 q 593 838 762 838 q 352 741 450 838 q 254 500 254 643 q 297 323 254 400 q 420 201 340 245 q 596 157 499 157 q 747 188 679 157 q 898 300 816 219 l 1027 166 q 818 17 916 58 q 593 -25 720 -25 q 213 122 361 -25 q 64 500 64 270 q 132 766 64 650 q 325 952 199 882 q 596 1023 451 1023 q 834 970 720 1023 q 1031 822 948 918 m 314 1265 l 517 1265 l 593 1176 l 666 1265 l 868 1265 l 666 1074 l 517 1074 l 314 1265 z "},"č":{"ha":889,"x_min":58,"x_max":816,"o":"m 816 589 l 662 504 q 576 567 618 549 q 477 585 534 585 q 309 523 373 585 q 245 363 245 460 q 307 210 245 269 q 469 150 368 150 q 662 235 593 150 l 808 135 q 473 -19 689 -19 q 168 96 278 -19 q 58 366 58 212 q 111 564 58 473 q 261 705 165 654 q 475 757 357 757 q 673 713 585 757 q 816 589 760 669 m 192 1065 l 395 1065 l 471 975 l 544 1065 l 746 1065 l 544 873 l 395 873 l 192 1065 z "},"đ":{"ha":917,"x_min":60,"x_max":916,"o":"m 639 1023 l 823 1023 l 823 945 l 916 945 l 916 835 l 823 835 l 823 0 l 639 0 l 639 78 q 530 4 585 26 q 412 -19 475 -19 q 164 92 269 -19 q 60 368 60 203 q 161 648 60 538 q 406 757 262 757 q 531 732 473 757 q 639 656 589 707 l 639 835 l 349 835 l 349 945 l 639 945 l 639 1023 m 444 586 q 301 525 358 586 q 244 370 244 465 q 302 212 244 274 q 445 151 360 151 q 590 211 532 151 q 648 370 648 272 q 590 526 648 467 q 444 586 532 586 z "},"¯":{"ha":694,"x_min":-8,"x_max":703,"o":"m -8 1143 l 703 1143 l 703 1074 l -8 1074 l -8 1143 z "},"·":{"ha":463,"x_min":375,"x_max":570,"o":"m 472 608 q 541 580 513 608 q 570 511 570 552 q 541 443 570 471 q 472 414 513 414 q 404 443 432 414 q 375 511 375 471 q 404 580 375 552 q 472 608 432 608 z "},"":{"ha":467,"x_min":12,"x_max":448,"o":"m 271 1023 l 395 1023 l 395 694 l 448 694 l 448 599 l 395 599 l 395 497 l 280 497 l 280 599 l 12 599 l 12 699 l 271 1023 m 280 694 l 280 876 l 133 694 l 280 694 z "},"Ă":{"ha":1027,"x_min":33,"x_max":994,"o":"m 418 998 l 610 998 l 994 0 l 797 0 l 719 205 l 312 205 l 231 0 l 33 0 l 418 998 m 515 733 l 382 391 l 648 391 l 515 733 m 244 1265 l 394 1265 q 443 1224 412 1238 q 520 1210 475 1210 q 604 1226 566 1210 q 646 1265 628 1237 l 796 1265 q 714 1127 783 1179 q 519 1075 644 1075 q 379 1098 435 1075 q 288 1165 322 1122 q 244 1265 253 1208 z "},"ă":{"ha":917,"x_min":60,"x_max":823,"o":"m 639 738 l 823 738 l 823 0 l 639 0 l 639 78 q 530 4 585 26 q 412 -19 475 -19 q 164 92 269 -19 q 60 368 60 203 q 161 648 60 538 q 406 757 262 757 q 531 732 473 757 q 639 656 589 707 l 639 738 m 444 586 q 301 525 358 586 q 244 370 244 465 q 302 212 244 274 q 445 151 360 151 q 590 211 532 151 q 648 370 648 272 q 590 526 648 467 q 444 586 532 586 m 170 1063 l 320 1063 q 369 1022 338 1036 q 446 1008 401 1008 q 530 1024 492 1008 q 572 1063 554 1035 l 722 1063 q 640 925 709 977 q 446 873 570 873 q 305 896 361 873 q 214 963 248 920 q 170 1063 179 1006 z "},"Ą":{"ha":1027,"x_min":33,"x_max":1023,"o":"m 418 998 l 610 998 l 994 0 l 797 0 l 719 205 l 312 205 l 231 0 l 33 0 l 418 998 m 515 733 l 382 391 l 648 391 l 515 733 m 890 0 l 988 0 q 893 -112 893 -56 q 913 -157 893 -140 q 964 -175 932 -175 q 1023 -157 987 -175 l 1023 -264 q 936 -275 976 -275 q 813 -238 856 -275 q 770 -146 770 -201 q 801 -66 770 -105 q 890 0 831 -26 z "},"ą":{"ha":917,"x_min":60,"x_max":867,"o":"m 639 738 l 823 738 l 823 0 l 639 0 l 639 78 q 530 4 585 26 q 412 -19 475 -19 q 164 92 269 -19 q 60 368 60 203 q 161 648 60 538 q 406 757 262 757 q 531 732 473 757 q 639 656 589 707 l 639 738 m 444 586 q 301 525 358 586 q 244 370 244 465 q 302 212 244 274 q 445 151 360 151 q 590 211 532 151 q 648 370 648 272 q 590 526 648 467 q 444 586 532 586 m 735 0 l 833 0 q 738 -112 738 -56 q 758 -157 738 -140 q 808 -175 777 -175 q 867 -157 831 -175 l 867 -264 q 781 -275 821 -275 q 658 -238 701 -275 q 615 -146 615 -201 q 646 -66 615 -105 q 735 0 676 -26 z "},"Ď":{"ha":972,"x_min":109,"x_max":906,"o":"m 115 998 l 340 998 q 663 944 557 998 q 838 768 769 890 q 906 485 906 647 q 868 273 906 370 q 762 113 829 176 q 616 24 694 49 q 343 0 537 0 l 115 0 l 115 998 m 304 814 l 304 186 l 392 186 q 581 216 522 186 q 677 316 640 245 q 714 490 714 387 q 625 736 714 648 q 368 814 545 814 l 304 814 m 109 1267 l 312 1267 l 387 1177 l 460 1267 l 663 1267 l 460 1075 l 312 1075 l 109 1267 z "},"ď":{"ha":1002,"x_min":60,"x_max":1045,"o":"m 639 1023 l 823 1023 l 823 0 l 639 0 l 639 78 q 530 4 585 26 q 412 -19 475 -19 q 164 92 269 -19 q 60 368 60 203 q 161 648 60 538 q 406 757 262 757 q 531 732 473 757 q 639 656 589 707 l 639 1023 m 444 586 q 301 525 358 586 q 244 370 244 465 q 302 212 244 274 q 445 151 360 151 q 590 211 532 151 q 648 370 648 272 q 590 526 648 467 q 444 586 532 586 m 874 1023 l 1045 1023 l 1045 929 q 1023 775 1045 840 q 949 642 1001 711 l 882 694 q 919 758 907 731 q 943 829 931 785 l 874 829 l 874 1023 z "},"Đ":{"ha":1031,"x_min":34,"x_max":956,"o":"m 149 998 l 391 998 q 713 944 608 998 q 888 768 819 890 q 956 485 956 647 q 918 273 956 370 q 812 113 880 176 q 666 24 745 49 q 393 0 587 0 l 149 0 l 149 444 l 34 444 l 34 554 l 149 554 l 149 998 m 338 814 l 338 554 l 543 554 l 543 444 l 338 444 l 338 186 l 442 186 q 631 216 572 186 q 727 316 690 245 q 764 490 764 387 q 675 736 764 648 q 418 814 595 814 l 338 814 z "},"Ę":{"ha":722,"x_min":115,"x_max":659,"o":"m 115 998 l 659 998 l 659 812 l 303 812 l 303 631 l 659 631 l 659 449 l 303 449 l 303 186 l 659 186 l 659 0 l 115 0 l 115 998 m 470 0 l 568 0 q 473 -112 473 -56 q 492 -157 473 -140 q 543 -175 512 -175 q 602 -157 566 -175 l 602 -264 q 515 -275 555 -275 q 393 -238 435 -275 q 350 -146 350 -201 q 380 -66 350 -105 q 470 0 411 -26 z "},"ę":{"ha":889,"x_min":59,"x_max":833,"o":"m 833 315 l 238 315 q 307 190 251 237 q 450 144 363 144 q 628 216 553 144 l 784 143 q 644 21 726 60 q 451 -19 563 -19 q 168 91 277 -19 q 59 365 59 200 q 168 645 59 534 q 441 757 277 757 q 724 645 615 757 q 833 351 833 534 l 833 315 m 647 461 q 575 562 629 523 q 450 600 521 600 q 314 557 372 600 q 246 461 277 530 l 647 461 m 433 0 l 530 0 q 435 -112 435 -56 q 455 -157 435 -140 q 506 -175 475 -175 q 565 -157 529 -175 l 565 -264 q 478 -275 518 -275 q 355 -238 398 -275 q 313 -146 313 -201 q 343 -66 313 -105 q 433 0 374 -26 z "},"Ě":{"ha":722,"x_min":115,"x_max":686,"o":"m 115 998 l 659 998 l 659 812 l 303 812 l 303 631 l 659 631 l 659 449 l 303 449 l 303 186 l 659 186 l 659 0 l 115 0 l 115 998 m 132 1267 l 335 1267 l 410 1177 l 484 1267 l 686 1267 l 484 1075 l 335 1075 l 132 1267 z "},"ě":{"ha":889,"x_min":59,"x_max":833,"o":"m 833 315 l 238 315 q 307 190 251 237 q 450 144 363 144 q 628 216 553 144 l 784 143 q 644 21 726 60 q 451 -19 563 -19 q 168 91 277 -19 q 59 365 59 200 q 168 645 59 534 q 441 757 277 757 q 724 645 615 757 q 833 351 833 534 l 833 315 m 647 461 q 575 562 629 523 q 450 600 521 600 q 314 557 372 600 q 246 461 277 530 l 647 461 m 168 1065 l 371 1065 l 446 975 l 519 1065 l 722 1065 l 519 873 l 371 873 l 168 1065 z "},"Ĳ":{"ha":1055,"x_min":100,"x_max":941,"o":"m 100 998 l 289 998 l 289 0 l 100 0 l 100 998 m 751 998 l 941 998 l 941 336 q 923 131 941 197 q 844 20 904 64 q 694 -25 783 -25 q 414 119 530 -25 l 551 248 q 691 161 626 161 q 738 191 726 161 q 751 300 751 220 l 751 998 z "},"ĳ":{"ha":694,"x_min":48,"x_max":635,"o":"m 635 923 q 600 839 635 873 q 515 804 565 804 q 431 839 467 804 q 396 923 396 873 q 431 1007 396 972 q 515 1042 467 1042 q 600 1007 565 1042 q 635 923 635 972 m 287 923 q 252 839 287 873 q 168 804 216 804 q 83 839 119 804 q 48 923 48 873 q 83 1007 48 972 q 168 1042 119 1042 q 252 1007 217 1042 q 287 923 287 972 m 75 738 l 260 738 l 260 0 l 75 0 l 75 738 m 422 738 l 608 738 l 608 -24 q 552 -238 608 -188 q 415 -289 496 -289 q 276 -261 357 -289 l 276 -115 q 352 -136 318 -136 q 404 -117 385 -136 q 422 -38 422 -98 l 422 738 z "},"Ĺ":{"ha":611,"x_min":114,"x_max":581,"o":"m 114 998 l 304 998 l 304 181 l 581 181 l 581 0 l 114 0 l 114 998 m 307 1341 l 526 1341 l 278 1075 l 145 1075 l 307 1341 z "},"ĺ":{"ha":333,"x_min":13,"x_max":394,"o":"m 74 1023 l 259 1023 l 259 0 l 74 0 l 74 1023 m 175 1341 l 394 1341 l 146 1075 l 13 1075 l 175 1341 z "},"Ľ":{"ha":611,"x_min":114,"x_max":581,"o":"m 114 998 l 304 998 l 304 181 l 581 181 l 581 0 l 114 0 l 114 998 m 393 1023 l 564 1023 l 564 929 q 542 775 564 840 q 468 642 520 711 l 401 694 q 438 758 427 731 q 462 829 450 785 l 393 829 l 393 1023 z "},"ľ":{"ha":437,"x_min":74,"x_max":496,"o":"m 74 1023 l 259 1023 l 259 0 l 74 0 l 74 1023 m 326 1023 l 496 1023 l 496 929 q 474 775 496 840 q 400 642 452 711 l 334 694 q 371 758 359 731 q 394 829 382 785 l 326 829 l 326 1023 z "},"Ŀ":{"ha":611,"x_min":114,"x_max":581,"o":"m 114 998 l 304 998 l 304 181 l 581 181 l 581 0 l 114 0 l 114 998 m 458 608 q 528 580 499 608 q 556 511 556 552 q 528 443 556 471 q 458 414 499 414 q 390 443 418 414 q 361 511 361 471 q 390 580 361 552 q 458 608 418 608 z "},"ŀ":{"ha":482,"x_min":74,"x_max":502,"o":"m 74 1023 l 259 1023 l 259 0 l 74 0 l 74 1023 m 404 608 q 473 580 445 608 q 502 511 502 552 q 473 443 502 471 q 404 414 445 414 q 336 443 364 414 q 307 511 307 471 q 336 580 307 552 q 404 608 364 608 z "},"Ń":{"ha":1027,"x_min":115,"x_max":914,"o":"m 115 998 l 296 998 l 724 341 l 724 998 l 914 998 l 914 0 l 732 0 l 304 654 l 304 0 l 115 0 l 115 998 m 573 1341 l 792 1341 l 544 1075 l 411 1075 l 573 1341 z "},"ń":{"ha":833,"x_min":94,"x_max":748,"o":"m 94 738 l 278 738 l 278 663 q 392 736 341 715 q 497 757 444 757 q 684 680 607 757 q 748 488 748 615 l 748 0 l 565 0 l 565 323 q 553 499 565 456 q 512 565 541 543 q 439 588 482 588 q 342 550 382 588 q 286 446 302 513 q 278 296 278 412 l 278 0 l 94 0 l 94 738 m 441 1139 l 661 1139 l 412 873 l 279 873 l 441 1139 z "},"Ň":{"ha":1027,"x_min":115,"x_max":914,"o":"m 115 998 l 296 998 l 724 341 l 724 998 l 914 998 l 914 0 l 732 0 l 304 654 l 304 0 l 115 0 l 115 998 m 211 1267 l 414 1267 l 490 1177 l 563 1267 l 765 1267 l 563 1075 l 414 1075 l 211 1267 z "},"ň":{"ha":833,"x_min":94,"x_max":755,"o":"m 94 738 l 278 738 l 278 663 q 392 736 341 715 q 497 757 444 757 q 684 680 607 757 q 748 488 748 615 l 748 0 l 565 0 l 565 323 q 553 499 565 456 q 512 565 541 543 q 439 588 482 588 q 342 550 382 588 q 286 446 302 513 q 278 296 278 412 l 278 0 l 94 0 l 94 738 m 201 1065 l 405 1065 l 480 975 l 553 1065 l 755 1065 l 553 873 l 405 873 l 201 1065 z "},"ŉ":{"ha":893,"x_min":-35,"x_max":808,"o":"m 153 738 l 338 738 l 338 663 q 452 736 401 715 q 557 757 503 757 q 743 680 667 757 q 808 488 808 615 l 808 0 l 625 0 l 625 323 q 613 499 625 456 q 571 565 601 543 q 498 588 542 588 q 402 550 442 588 q 346 446 361 513 q 338 296 338 412 l 338 0 l 153 0 l 153 738 m -35 1023 l 136 1023 l 136 929 q 114 775 136 840 q 40 642 92 711 l -26 694 q 11 758 -1 731 q 34 829 22 785 l -35 829 l -35 1023 z "},"Ő":{"ha":1166,"x_min":65,"x_max":1101,"o":"m 585 1023 q 949 869 797 1023 q 1101 496 1101 716 q 951 126 1101 277 q 587 -25 801 -25 q 214 130 362 -25 q 65 499 65 286 q 134 762 65 642 q 325 952 203 882 q 585 1023 446 1023 m 583 837 q 351 741 445 837 q 256 496 256 644 q 375 234 256 330 q 587 159 467 159 q 817 256 722 159 q 911 497 911 354 q 816 738 911 640 q 583 837 720 837 m 538 1341 l 757 1341 l 509 1075 l 376 1075 l 538 1341 m 840 1341 l 1059 1341 l 812 1075 l 678 1075 l 840 1341 z "},"ő":{"ha":889,"x_min":58,"x_max":936,"o":"m 440 757 q 636 705 545 757 q 780 563 728 652 q 831 370 831 473 q 780 174 831 265 q 638 32 728 83 q 441 -19 549 -19 q 170 94 282 -19 q 58 368 58 207 q 184 656 58 541 q 440 757 296 757 m 443 583 q 299 523 357 583 q 242 369 242 463 q 299 213 242 273 q 442 153 355 153 q 587 214 529 153 q 644 369 644 274 q 588 523 644 464 q 443 583 531 583 m 414 1139 l 633 1139 l 385 873 l 252 873 l 414 1139 m 717 1139 l 936 1139 l 688 873 l 555 873 l 717 1139 z "},"Ŕ":{"ha":806,"x_min":127,"x_max":766,"o":"m 127 998 l 328 998 q 564 968 494 998 q 677 870 634 939 q 720 708 720 802 q 672 544 720 610 q 530 444 625 477 l 766 0 l 559 0 l 334 422 l 317 422 l 317 0 l 127 0 l 127 998 m 317 608 l 376 608 q 502 631 467 608 q 536 710 536 655 q 519 767 536 743 q 473 801 502 791 q 369 812 445 812 l 317 812 l 317 608 m 460 1341 l 679 1341 l 431 1075 l 298 1075 l 460 1341 z "},"ŕ":{"ha":444,"x_min":50,"x_max":492,"o":"m 50 738 l 209 738 l 209 645 q 277 728 235 700 q 371 757 320 757 q 446 738 407 757 l 389 578 q 335 595 356 595 q 263 542 292 595 q 233 334 233 489 l 234 298 l 234 0 l 50 0 l 50 738 m 273 1139 l 492 1139 l 244 873 l 111 873 l 273 1139 z "},"Ř":{"ha":806,"x_min":125,"x_max":766,"o":"m 127 998 l 328 998 q 564 968 494 998 q 677 870 634 939 q 720 708 720 802 q 672 544 720 610 q 530 444 625 477 l 766 0 l 559 0 l 334 422 l 317 422 l 317 0 l 127 0 l 127 998 m 317 608 l 376 608 q 502 631 467 608 q 536 710 536 655 q 519 767 536 743 q 473 801 502 791 q 369 812 445 812 l 317 812 l 317 608 m 125 1267 l 329 1267 l 404 1177 l 477 1267 l 680 1267 l 477 1075 l 329 1075 l 125 1267 z "},"ř":{"ha":444,"x_min":-55,"x_max":499,"o":"m 50 738 l 209 738 l 209 645 q 277 728 235 700 q 371 757 320 757 q 446 738 407 757 l 389 578 q 335 595 356 595 q 263 542 292 595 q 233 334 233 489 l 234 298 l 234 0 l 50 0 l 50 738 m -55 1065 l 149 1065 l 224 975 l 297 1065 l 499 1065 l 297 873 l 149 873 l -55 1065 z "},"Ś":{"ha":722,"x_min":28,"x_max":654,"o":"m 637 862 l 496 738 q 346 841 422 841 q 285 821 309 841 q 261 776 261 801 q 278 728 261 751 q 417 600 301 699 q 549 486 526 509 q 630 374 606 427 q 654 258 654 321 q 570 55 654 135 q 349 -25 485 -25 q 163 27 242 -25 q 28 191 84 79 l 187 288 q 353 155 259 155 q 435 184 401 155 q 468 250 468 212 q 443 317 468 283 q 332 421 418 351 q 122 626 170 554 q 75 770 75 699 q 154 948 75 874 q 349 1023 233 1023 q 491 988 423 1023 q 637 862 558 954 m 345 1341 l 564 1341 l 315 1075 l 182 1075 l 345 1341 z "},"ś":{"ha":611,"x_min":35,"x_max":559,"o":"m 545 635 l 431 520 q 304 589 361 589 q 255 576 273 589 q 237 543 237 563 q 249 516 237 528 q 304 481 260 503 l 372 448 q 519 340 479 395 q 559 211 559 285 q 487 47 559 113 q 293 -19 414 -19 q 35 107 132 -19 l 149 231 q 225 170 182 193 q 303 146 269 146 q 362 164 340 146 q 385 205 385 182 q 304 288 385 248 l 241 319 q 62 545 62 410 q 130 695 62 633 q 302 757 197 757 q 438 725 374 757 q 545 635 501 694 m 324 1139 l 543 1139 l 295 873 l 162 873 l 324 1139 z "},"Ţ":{"ha":583,"x_min":16,"x_max":567,"o":"m 16 998 l 567 998 l 567 810 l 388 810 l 388 0 l 195 0 l 195 810 l 16 810 l 16 998 m 231 -82 l 353 -82 l 353 -102 q 340 -223 353 -190 q 285 -290 327 -256 l 249 -254 q 290 -194 281 -228 l 231 -194 l 231 -82 z "},"ţ":{"ha":416,"x_min":21,"x_max":410,"o":"m 116 1010 l 300 1010 l 300 738 l 410 738 l 410 578 l 300 578 l 300 0 l 116 0 l 116 578 l 21 578 l 21 738 l 116 738 l 116 1010 m 147 -82 l 269 -82 l 269 -102 q 256 -223 269 -190 q 201 -290 243 -256 l 165 -254 q 207 -194 197 -228 l 147 -194 l 147 -82 z "},"Ť":{"ha":583,"x_min":16,"x_max":570,"o":"m 16 998 l 567 998 l 567 810 l 385 810 l 385 0 l 193 0 l 193 810 l 16 810 l 16 998 m 16 1267 l 220 1267 l 295 1177 l 368 1267 l 570 1267 l 368 1075 l 220 1075 l 16 1267 z "},"ť":{"ha":498,"x_min":21,"x_max":542,"o":"m 404 1023 l 542 1023 l 542 989 q 464 760 542 854 l 410 801 q 459 908 454 856 l 404 908 l 404 1023 m 116 1010 l 300 1010 l 300 738 l 410 738 l 410 578 l 300 578 l 300 0 l 116 0 l 116 578 l 21 578 l 21 738 l 116 738 l 116 1010 z "},"Ů":{"ha":889,"x_min":107,"x_max":783,"o":"m 107 998 l 298 998 l 298 352 q 312 234 298 269 q 360 179 327 199 q 441 158 394 158 q 528 181 492 158 q 578 240 564 204 q 592 376 592 275 l 592 998 l 783 998 l 783 403 q 766 194 783 252 q 701 81 749 136 q 591 1 653 27 q 446 -25 528 -25 q 257 25 337 -25 q 142 150 176 75 q 107 403 107 224 l 107 998 m 453 1378 q 558 1334 515 1378 q 602 1227 602 1289 q 558 1119 602 1164 q 453 1075 514 1075 q 348 1119 392 1075 q 304 1227 304 1164 q 348 1334 304 1289 q 453 1378 391 1378 m 453 1291 q 414 1273 430 1291 q 397 1230 397 1255 q 414 1187 397 1204 q 453 1169 431 1169 q 492 1187 475 1169 q 509 1230 509 1204 q 492 1273 509 1255 q 453 1291 476 1291 z "},"ů":{"ha":833,"x_min":93,"x_max":741,"o":"m 93 738 l 280 738 l 280 382 q 294 238 280 279 q 340 176 309 198 q 418 153 372 153 q 496 175 464 153 q 544 240 528 197 q 555 376 555 272 l 555 738 l 741 738 l 741 425 q 711 161 741 232 q 601 27 673 74 q 416 -19 528 -19 q 220 35 295 -19 q 115 186 145 90 q 93 431 93 254 l 93 738 m 387 1176 q 492 1132 449 1176 q 536 1025 536 1087 q 492 917 536 962 q 387 873 448 873 q 282 917 326 873 q 239 1025 239 962 q 282 1132 239 1087 q 387 1176 326 1176 m 387 1088 q 348 1071 364 1088 q 332 1028 332 1053 q 348 985 332 1002 q 387 967 365 967 q 426 985 410 967 q 443 1028 443 1002 q 427 1071 443 1053 q 387 1088 410 1088 z "},"Ű":{"ha":889,"x_min":107,"x_max":907,"o":"m 107 998 l 298 998 l 298 352 q 312 234 298 269 q 360 179 327 199 q 441 158 394 158 q 528 181 492 158 q 578 240 564 204 q 592 376 592 275 l 592 998 l 783 998 l 783 403 q 766 194 783 252 q 701 81 749 136 q 591 1 653 27 q 446 -25 528 -25 q 257 25 337 -25 q 142 150 176 75 q 107 403 107 224 l 107 998 m 385 1341 l 604 1341 l 356 1075 l 223 1075 l 385 1341 m 688 1341 l 907 1341 l 659 1075 l 526 1075 l 688 1341 z "},"ű":{"ha":833,"x_min":93,"x_max":839,"o":"m 93 738 l 280 738 l 280 382 q 294 238 280 279 q 340 176 309 198 q 418 153 372 153 q 496 175 464 153 q 544 240 528 197 q 555 376 555 272 l 555 738 l 741 738 l 741 425 q 711 161 741 232 q 601 27 673 74 q 416 -19 528 -19 q 220 35 295 -19 q 115 186 145 90 q 93 431 93 254 l 93 738 m 317 1139 l 536 1139 l 288 873 l 155 873 l 317 1139 m 620 1139 l 839 1139 l 591 873 l 458 873 l 620 1139 z "},"Ź":{"ha":694,"x_min":32,"x_max":665,"o":"m 61 998 l 665 998 l 309 182 l 642 182 l 642 0 l 32 0 l 387 810 l 61 810 l 61 998 m 392 1341 l 611 1341 l 363 1075 l 230 1075 l 392 1341 z "},"ź":{"ha":639,"x_min":11,"x_max":628,"o":"m 62 738 l 628 738 l 296 157 l 609 157 l 609 0 l 11 0 l 345 581 l 62 581 l 62 738 m 324 1139 l 543 1139 l 295 873 l 162 873 l 324 1139 z "},"Ż":{"ha":694,"x_min":32,"x_max":665,"o":"m 61 998 l 665 998 l 309 182 l 642 182 l 642 0 l 32 0 l 387 810 l 61 810 l 61 998 m 330 1269 q 399 1240 370 1269 q 427 1172 427 1212 q 399 1103 427 1131 q 330 1074 370 1074 q 261 1103 290 1074 q 233 1172 233 1131 q 261 1240 233 1212 q 330 1269 290 1269 z "},"ż":{"ha":639,"x_min":11,"x_max":628,"o":"m 62 738 l 628 738 l 296 157 l 609 157 l 609 0 l 11 0 l 345 581 l 62 581 l 62 738 m 330 1067 q 399 1038 370 1067 q 427 970 427 1010 q 399 901 427 929 q 330 872 370 872 q 261 901 290 872 q 233 970 233 929 q 261 1038 233 1010 q 330 1067 290 1067 z "},"":{"ha":747,"x_min":113,"x_max":724,"o":"m 113 995 l 724 995 l 724 840 l 317 840 l 317 0 l 113 0 l 113 995 z "},"":{"ha":1109,"x_min":65,"x_max":1043,"o":"m 562 1019 q 913 887 783 1019 q 1043 505 1043 755 q 912 106 1043 240 q 566 -28 782 -28 q 192 112 318 -28 q 65 498 65 252 q 188 876 65 732 q 562 1019 311 1019 m 562 875 q 351 787 425 875 q 277 490 277 699 q 353 206 277 294 q 554 119 429 119 q 704 160 639 119 q 802 284 770 202 q 833 495 833 367 q 753 795 833 715 q 562 875 673 875 m 379 587 l 732 587 l 732 430 l 379 430 l 379 587 z "},"":{"ha":1286,"x_min":65,"x_max":1221,"o":"m 538 1019 l 744 1019 l 744 905 q 1221 495 1221 882 q 1093 186 1221 290 q 745 77 964 81 l 745 -119 l 538 -119 l 538 77 q 179 195 293 87 q 65 488 65 304 q 103 685 65 597 q 243 834 141 772 q 538 907 345 896 l 538 1019 m 538 763 q 382 715 443 758 q 298 614 321 673 q 275 492 275 556 q 298 372 275 432 q 380 268 320 311 q 538 220 441 224 l 538 763 m 744 762 l 744 220 q 881 255 825 229 q 973 346 937 282 q 1008 492 1008 409 q 938 685 1008 612 q 744 762 868 757 z "},"":{"ha":917,"x_min":58,"x_max":876,"o":"m 646 155 q 369 -19 553 -19 q 142 76 227 -19 q 58 343 58 172 q 145 619 58 505 q 383 732 232 732 q 642 576 545 732 q 672 713 649 635 l 865 713 q 817 380 817 562 q 876 0 817 178 l 682 0 q 646 155 656 80 m 444 606 q 306 539 353 606 q 259 351 259 472 q 310 170 259 227 q 438 113 361 113 q 576 180 525 113 q 628 369 628 248 q 580 541 628 475 q 444 606 532 606 z "},"":{"ha":913,"x_min":58,"x_max":856,"o":"m 424 650 q 267 878 267 769 q 338 1005 267 956 q 550 1055 410 1055 q 729 1031 614 1055 l 729 901 q 591 920 648 920 q 465 856 465 920 q 489 802 465 829 q 584 723 513 775 q 792 532 728 618 q 856 329 856 447 q 752 78 856 175 q 466 -19 648 -19 q 160 82 263 -19 q 58 328 58 182 q 155 563 58 473 q 424 650 252 653 m 459 553 q 260 323 260 553 q 310 166 260 226 q 456 107 361 107 q 603 169 552 107 q 654 338 654 230 q 603 496 654 438 q 459 553 551 553 z "},"":{"ha":755,"x_min":58,"x_max":696,"o":"m 696 -2 q 515 -19 620 -19 q 268 26 370 -19 q 111 158 165 71 q 58 355 58 245 q 171 626 58 519 q 510 732 284 732 q 684 714 602 732 l 684 579 q 515 598 602 598 q 343 552 412 598 q 264 428 275 507 l 680 428 l 680 301 l 264 301 q 535 115 291 115 q 696 132 614 115 l 696 -2 z "},"":{"ha":1023,"x_min":58,"x_max":1000,"o":"m 777 584 q 854 363 854 496 q 746 89 854 196 q 456 -19 637 -19 q 166 90 274 -19 q 58 365 58 198 q 171 631 58 530 q 435 732 284 732 q 524 728 467 732 q 638 721 597 721 l 1000 721 l 1000 584 l 777 584 m 452 618 q 309 553 360 618 q 258 358 258 488 q 310 171 258 235 q 459 107 362 107 q 600 174 546 107 q 654 374 654 240 q 600 554 654 490 q 452 618 545 618 z "},"":{"ha":753,"x_min":23,"x_max":730,"o":"m 23 721 l 730 721 l 730 583 l 475 583 l 475 0 l 278 0 l 278 583 l 23 583 l 23 721 z "},"":{"ha":1125,"x_min":58,"x_max":1067,"o":"m 463 903 l 660 903 l 660 730 q 972 617 876 720 q 1067 357 1067 514 q 976 110 1067 214 q 663 -9 884 6 l 663 -264 l 462 -264 l 462 -10 q 155 101 253 3 q 58 360 58 200 q 114 566 58 480 q 246 682 170 651 q 463 732 322 713 l 463 903 m 464 606 q 259 355 259 597 q 315 174 259 235 q 464 113 372 113 l 464 606 m 661 606 l 661 113 q 866 365 866 124 q 814 538 866 472 q 661 606 763 605 z "},"‗":{"ha":694,"x_min":-8,"x_max":703,"o":"m -8 -77 l 703 -77 l 703 -146 l -8 -146 l -8 -77 m -8 -197 l 703 -197 l 703 -266 l -8 -266 l -8 -197 z "},"′":{"ha":306,"x_min":89,"x_max":280,"o":"m 195 681 l 89 681 l 100 1023 l 280 1023 l 195 681 z "},"″":{"ha":500,"x_min":47,"x_max":517,"o":"m 431 681 l 326 681 l 336 1023 l 517 1023 l 431 681 m 153 681 l 47 681 l 58 1023 l 239 1023 l 153 681 z "},"‼":{"ha":782,"x_min":75,"x_max":708,"o":"m 97 1023 l 284 1023 l 284 294 l 97 294 l 97 1023 m 498 1023 l 685 1023 l 685 294 l 498 294 l 498 1023 m 191 213 q 273 180 238 213 q 307 97 307 146 q 273 15 307 50 q 191 -19 239 -19 q 109 15 143 -19 q 75 97 75 50 q 109 180 75 147 q 191 213 144 213 m 591 213 q 673 180 639 213 q 708 97 708 146 q 674 15 708 50 q 591 -19 640 -19 q 509 15 543 -19 q 475 97 475 49 q 510 179 475 145 q 591 213 544 213 z "},"ⁿ":{"ha":475,"x_min":52,"x_max":428,"o":"m 52 852 l 189 852 l 189 815 q 293 863 239 863 q 391 818 353 863 q 428 692 428 772 l 428 390 l 292 390 l 292 593 q 283 714 292 685 q 248 743 275 743 q 202 705 216 743 q 189 577 189 668 l 189 390 l 52 390 l 52 852 z "},"₧":{"ha":1606,"x_min":113,"x_max":1554,"o":"m 709 738 l 770 738 l 770 1010 l 955 1010 l 955 738 l 1196 738 q 1293 757 1238 757 q 1540 635 1448 757 l 1426 520 q 1299 589 1358 589 q 1252 577 1272 589 q 1232 543 1232 566 q 1245 514 1232 527 q 1299 481 1257 502 l 1367 448 q 1513 340 1472 395 q 1554 211 1554 285 q 1481 46 1554 112 q 1288 -19 1408 -19 q 1030 107 1126 -19 l 1144 231 q 1213 174 1168 201 q 1298 146 1258 146 q 1356 163 1333 146 q 1379 205 1379 180 q 1299 288 1379 248 l 1236 319 q 1057 545 1057 410 q 1061 578 1057 561 l 955 578 l 955 0 l 770 0 l 770 578 l 680 578 q 303 412 606 420 l 303 0 l 113 0 l 113 998 l 345 998 q 526 978 460 998 q 646 894 591 958 q 709 738 700 830 m 303 591 q 477 620 433 591 q 522 709 522 650 q 483 789 522 766 q 351 812 444 812 l 303 812 l 303 591 z "},"℅":{"ha":1224,"x_min":28,"x_max":1195,"o":"m 470 909 l 355 850 q 269 901 321 901 q 194 865 222 901 q 167 777 167 829 q 193 692 167 725 q 264 659 220 659 q 355 712 324 659 l 465 642 q 267 538 395 538 q 92 610 155 538 q 28 779 28 682 q 97 953 28 883 q 269 1023 165 1023 q 470 909 404 1023 m 345 -25 l 770 1023 l 886 1023 l 461 -25 l 345 -25 m 973 473 q 1130 403 1065 473 q 1195 231 1195 332 q 1132 60 1195 131 q 974 -12 1068 -12 q 819 60 882 -12 q 756 230 756 131 q 822 403 756 333 q 973 473 887 473 m 975 349 q 917 316 940 349 q 893 231 893 283 q 916 145 893 179 q 975 111 939 111 q 1035 144 1010 111 q 1059 231 1059 177 q 1037 314 1059 279 q 975 349 1015 349 z "},"ℓ":{"ha":671,"x_min":14,"x_max":627,"o":"m 44 252 l 14 426 l 115 475 q 142 794 115 700 q 239 950 170 888 q 404 1011 309 1011 q 566 944 505 1011 q 627 776 627 876 q 562 590 627 678 q 306 381 497 503 q 335 179 305 227 q 425 131 365 131 q 606 214 496 131 l 606 51 q 406 -16 509 -16 q 121 287 157 -16 q 44 252 83 268 m 306 583 q 432 694 398 650 q 465 783 465 738 q 447 836 465 816 q 401 856 429 856 q 337 815 365 856 q 307 639 309 774 l 306 583 z "},"←":{"ha":1389,"x_min":54,"x_max":1335,"o":"m 334 594 l 385 594 q 253 385 330 479 l 1335 385 l 1335 316 l 253 316 q 387 106 322 247 l 334 106 q 54 338 183 278 l 54 368 q 334 594 174 416 z "},"↑":{"ha":694,"x_min":104,"x_max":591,"o":"m 104 712 q 330 992 281 872 l 361 992 q 591 711 420 862 l 591 659 q 382 792 451 724 l 382 -291 l 313 -291 l 313 792 q 104 660 219 715 l 104 712 z "},"→":{"ha":1389,"x_min":54,"x_max":1335,"o":"m 1055 594 q 1335 368 1215 416 l 1335 338 q 1054 106 1205 278 l 1002 106 q 1135 316 1066 247 l 54 316 l 54 385 l 1135 385 q 1003 594 1058 479 l 1055 594 z "},"↓":{"ha":694,"x_min":104,"x_max":591,"o":"m 104 -11 l 104 41 q 313 -92 219 -14 l 313 992 l 382 992 l 382 -92 q 591 42 451 -22 l 591 -10 q 361 -291 420 -161 l 330 -291 q 104 -11 281 -172 z "},"↔":{"ha":1389,"x_min":54,"x_max":1335,"o":"m 1335 366 l 1335 336 q 1059 107 1212 282 l 1005 107 q 1137 318 1052 224 l 252 318 q 383 107 336 224 l 329 107 q 54 336 177 282 l 54 366 q 329 595 177 420 l 383 595 q 252 385 336 479 l 1137 385 q 1005 595 1052 479 l 1059 595 q 1335 366 1212 420 z "},"↕":{"ha":694,"x_min":103,"x_max":591,"o":"m 332 992 l 362 992 q 591 716 416 869 l 591 662 q 380 794 475 709 l 380 -92 q 591 40 475 -6 l 591 -14 q 362 -290 416 -166 l 332 -290 q 103 -14 278 -166 l 103 40 q 314 -92 219 -6 l 314 794 q 103 662 219 709 l 103 716 q 332 992 278 869 z "},"↨":{"ha":694,"x_min":103,"x_max":591,"o":"m 332 992 l 362 992 q 591 716 416 869 l 591 662 q 380 794 475 709 l 380 -92 q 591 40 475 -6 l 591 -14 q 362 -290 416 -166 l 332 -290 q 103 -14 278 -166 l 103 40 q 314 -92 219 -6 l 314 794 q 103 662 219 709 l 103 716 q 332 992 278 869 m 104 -354 l 591 -354 l 591 -420 l 104 -420 l 104 -354 z "},"∟":{"ha":1360,"x_min":245,"x_max":1114,"o":"m 245 867 l 313 867 l 313 68 l 1114 68 l 1114 0 l 245 0 l 245 867 z "},"∩":{"ha":818,"x_min":87,"x_max":731,"o":"m 162 0 l 87 0 l 87 421 l 89 583 q 101 724 90 661 q 141 839 113 787 q 213 931 169 890 q 308 991 257 971 q 409 1012 358 1012 q 562 965 489 1012 q 673 847 634 919 q 722 695 713 776 q 731 421 731 615 l 731 0 l 656 0 l 656 426 q 650 662 656 591 q 614 791 643 734 q 528 886 586 848 q 409 923 470 923 q 291 886 348 923 q 205 793 233 848 q 170 664 177 737 q 162 426 162 591 l 162 0 z "},"≡":{"ha":833,"x_min":78,"x_max":755,"o":"m 78 873 l 755 873 l 755 704 l 78 704 l 78 873 m 78 583 l 755 583 l 755 414 l 78 414 l 78 583 m 78 293 l 755 293 l 755 123 l 78 123 l 78 293 z "},"□":{"ha":839,"x_min":99,"x_max":739,"o":"m 99 640 l 739 640 l 739 0 l 99 0 l 99 640 m 151 589 l 151 52 l 688 52 l 688 589 l 151 589 z "},"▪":{"ha":492,"x_min":89,"x_max":403,"o":"m 403 616 l 403 302 l 89 302 l 89 616 l 403 616 z "},"▫":{"ha":492,"x_min":89,"x_max":403,"o":"m 403 616 l 403 302 l 89 302 l 89 616 l 403 616 m 351 565 l 140 564 l 140 353 l 351 353 l 351 565 z "},"●":{"ha":839,"x_min":121,"x_max":718,"o":"m 420 690 q 630 603 543 690 q 718 392 718 515 q 631 181 718 269 q 420 93 543 93 q 209 181 296 93 q 121 392 121 269 q 210 605 121 520 q 420 690 299 690 z "},"◦":{"ha":492,"x_min":76,"x_max":416,"o":"m 246 629 q 366 581 315 629 q 416 459 416 532 q 367 339 416 389 q 246 289 317 289 q 126 339 176 289 q 76 459 76 389 q 126 579 76 530 q 246 629 176 629 m 246 578 q 163 544 198 578 q 127 459 127 510 q 162 375 127 410 q 246 340 197 340 q 330 375 295 340 q 365 459 365 410 q 330 544 365 509 q 246 578 294 578 z "},"":{"ha":389,"x_min":54,"x_max":288,"o":"m 171 -51 l 288 -112 l 138 -369 l 54 -329 l 171 -51 z "},"Ā":{"ha":1027,"x_min":33,"x_max":994,"o":"m 418 998 l 610 998 l 994 0 l 797 0 l 719 205 l 312 205 l 231 0 l 33 0 l 418 998 m 515 733 l 382 391 l 648 391 l 515 733 m 321 1075 l 321 1225 l 707 1225 l 707 1075 l 321 1075 z "},"ā":{"ha":917,"x_min":60,"x_max":823,"o":"m 639 738 l 823 738 l 823 0 l 639 0 l 639 78 q 530 4 585 26 q 412 -19 475 -19 q 164 92 269 -19 q 60 368 60 203 q 161 648 60 538 q 406 757 262 757 q 531 732 473 757 q 639 656 589 707 l 639 738 m 444 586 q 301 525 358 586 q 244 370 244 465 q 302 212 244 274 q 445 151 360 151 q 590 211 532 151 q 648 370 648 272 q 590 526 648 467 q 444 586 532 586 m 248 873 l 248 1023 l 634 1023 l 634 873 l 248 873 z "},"Ĉ":{"ha":1083,"x_min":64,"x_max":1031,"o":"m 1031 822 l 898 695 q 593 838 762 838 q 352 741 450 838 q 254 500 254 643 q 297 323 254 400 q 420 201 340 245 q 596 157 499 157 q 747 188 679 157 q 898 300 816 219 l 1027 166 q 818 17 916 58 q 593 -25 720 -25 q 213 122 361 -25 q 64 500 64 270 q 132 766 64 650 q 325 952 199 882 q 596 1023 451 1023 q 834 970 720 1023 q 1031 822 948 918 m 296 1075 l 499 1267 l 648 1267 l 850 1075 l 648 1075 l 574 1164 l 499 1075 l 296 1075 z "},"ĉ":{"ha":889,"x_min":58,"x_max":816,"o":"m 816 589 l 662 504 q 576 567 618 549 q 477 585 534 585 q 309 523 373 585 q 245 363 245 460 q 307 210 245 269 q 469 150 368 150 q 662 235 593 150 l 808 135 q 473 -19 689 -19 q 168 96 278 -19 q 58 366 58 212 q 111 564 58 473 q 261 705 165 654 q 475 757 357 757 q 673 713 585 757 q 816 589 760 669 m 159 873 l 363 1065 l 511 1065 l 713 873 l 511 873 l 438 962 l 363 873 l 159 873 z "},"Ċ":{"ha":1083,"x_min":64,"x_max":1031,"o":"m 1031 822 l 898 695 q 593 838 762 838 q 352 741 450 838 q 254 500 254 643 q 297 323 254 400 q 420 201 340 245 q 596 157 499 157 q 747 188 679 157 q 898 300 816 219 l 1027 166 q 818 17 916 58 q 593 -25 720 -25 q 213 122 361 -25 q 64 500 64 270 q 132 766 64 650 q 325 952 199 882 q 596 1023 451 1023 q 834 970 720 1023 q 1031 822 948 918 m 581 1269 q 650 1240 622 1269 q 679 1172 679 1212 q 650 1103 679 1131 q 581 1074 622 1074 q 513 1103 541 1074 q 484 1172 484 1131 q 513 1240 484 1212 q 581 1269 541 1269 z "},"ċ":{"ha":889,"x_min":58,"x_max":816,"o":"m 816 589 l 662 504 q 576 567 618 549 q 477 585 534 585 q 309 523 373 585 q 245 363 245 460 q 307 210 245 269 q 469 150 368 150 q 662 235 593 150 l 808 135 q 473 -19 689 -19 q 168 96 278 -19 q 58 366 58 212 q 111 564 58 473 q 261 705 165 654 q 475 757 357 757 q 673 713 585 757 q 816 589 760 669 m 462 1067 q 531 1038 503 1067 q 559 970 559 1010 q 531 901 559 929 q 462 872 503 872 q 393 901 422 872 q 365 970 365 929 q 393 1038 365 1010 q 462 1067 422 1067 z "},"Ē":{"ha":722,"x_min":115,"x_max":659,"o":"m 115 998 l 659 998 l 659 812 l 303 812 l 303 631 l 659 631 l 659 449 l 303 449 l 303 186 l 659 186 l 659 0 l 115 0 l 115 998 m 194 1075 l 194 1225 l 580 1225 l 580 1075 l 194 1075 z "},"ē":{"ha":889,"x_min":59,"x_max":833,"o":"m 833 315 l 238 315 q 307 190 251 237 q 450 144 363 144 q 628 216 553 144 l 784 143 q 644 21 726 60 q 451 -19 563 -19 q 168 91 277 -19 q 59 365 59 200 q 168 645 59 534 q 441 757 277 757 q 724 645 615 757 q 833 351 833 534 l 833 315 m 647 461 q 575 562 629 523 q 450 600 521 600 q 314 557 372 600 q 246 461 277 530 l 647 461 m 254 873 l 254 1023 l 640 1023 l 640 873 l 254 873 z "},"Ĕ":{"ha":722,"x_min":111,"x_max":663,"o":"m 115 998 l 659 998 l 659 812 l 303 812 l 303 631 l 659 631 l 659 449 l 303 449 l 303 186 l 659 186 l 659 0 l 115 0 l 115 998 m 111 1265 l 261 1265 q 310 1224 279 1238 q 387 1210 342 1210 q 471 1226 433 1210 q 513 1265 495 1237 l 663 1265 q 581 1127 650 1179 q 387 1075 511 1075 q 246 1098 302 1075 q 155 1165 189 1122 q 111 1265 120 1208 z "},"ĕ":{"ha":889,"x_min":59,"x_max":833,"o":"m 833 315 l 238 315 q 307 190 251 237 q 450 144 363 144 q 628 216 553 144 l 784 143 q 644 21 726 60 q 451 -19 563 -19 q 168 91 277 -19 q 59 365 59 200 q 168 645 59 534 q 441 757 277 757 q 724 645 615 757 q 833 351 833 534 l 833 315 m 647 461 q 575 562 629 523 q 450 600 521 600 q 314 557 372 600 q 246 461 277 530 l 647 461 m 170 1063 l 320 1063 q 369 1022 338 1036 q 446 1008 401 1008 q 530 1024 492 1008 q 572 1063 554 1035 l 722 1063 q 640 925 709 977 q 446 873 570 873 q 305 896 361 873 q 214 963 248 920 q 170 1063 179 1006 z "},"Ė":{"ha":722,"x_min":115,"x_max":659,"o":"m 115 998 l 659 998 l 659 812 l 303 812 l 303 631 l 659 631 l 659 449 l 303 449 l 303 186 l 659 186 l 659 0 l 115 0 l 115 998 m 387 1269 q 456 1240 427 1269 q 484 1172 484 1212 q 456 1103 484 1131 q 387 1074 427 1074 q 318 1103 347 1074 q 290 1172 290 1131 q 318 1240 290 1212 q 387 1269 347 1269 z "},"ė":{"ha":889,"x_min":59,"x_max":833,"o":"m 833 315 l 238 315 q 307 190 251 237 q 450 144 363 144 q 628 216 553 144 l 784 143 q 644 21 726 60 q 451 -19 563 -19 q 168 91 277 -19 q 59 365 59 200 q 168 645 59 534 q 441 757 277 757 q 724 645 615 757 q 833 351 833 534 l 833 315 m 647 461 q 575 562 629 523 q 450 600 521 600 q 314 557 372 600 q 246 461 277 530 l 647 461 m 446 1067 q 515 1038 487 1067 q 544 970 544 1010 q 515 901 544 929 q 446 872 487 872 q 378 901 406 872 q 349 970 349 929 q 378 1038 349 1010 q 446 1067 406 1067 z "},"Ĝ":{"ha":1166,"x_min":69,"x_max":1106,"o":"m 1035 835 l 901 703 q 606 837 774 837 q 359 739 458 837 q 260 502 260 642 q 363 257 260 357 q 617 157 466 157 q 783 198 715 157 q 892 328 850 239 l 603 328 l 603 506 l 1105 506 l 1106 464 q 1038 216 1106 333 q 863 37 970 98 q 610 -25 755 -25 q 333 42 454 -25 q 140 235 211 110 q 69 504 69 359 q 200 848 69 702 q 604 1023 355 1023 q 848 975 734 1023 q 1035 835 943 934 m 311 1075 l 514 1267 l 663 1267 l 865 1075 l 663 1075 l 589 1164 l 514 1075 l 311 1075 z "},"ĝ":{"ha":917,"x_min":61,"x_max":823,"o":"m 639 738 l 823 738 l 823 106 q 748 -170 823 -81 q 444 -289 647 -289 q 261 -262 335 -289 q 136 -182 187 -235 q 61 -54 85 -130 l 265 -54 q 335 -101 292 -85 q 436 -117 378 -117 q 556 -94 511 -117 q 620 -35 602 -71 q 639 92 639 2 q 536 21 590 43 q 415 0 483 0 q 164 107 267 0 q 62 378 62 214 q 170 661 62 554 q 405 757 269 757 q 525 733 469 757 q 639 656 582 710 l 639 738 m 447 584 q 302 525 359 584 q 245 378 245 467 q 304 227 245 286 q 450 168 362 168 q 592 225 536 168 q 648 376 648 283 q 592 526 648 469 q 447 584 536 584 m 165 873 l 368 1065 l 517 1065 l 719 873 l 517 873 l 444 962 l 368 873 l 165 873 z "},"Ġ":{"ha":1166,"x_min":69,"x_max":1106,"o":"m 1035 835 l 901 703 q 606 837 774 837 q 359 739 458 837 q 260 502 260 642 q 363 257 260 357 q 617 157 466 157 q 783 198 715 157 q 892 328 850 239 l 603 328 l 603 506 l 1105 506 l 1106 464 q 1038 216 1106 333 q 863 37 970 98 q 610 -25 755 -25 q 333 42 454 -25 q 140 235 211 110 q 69 504 69 359 q 200 848 69 702 q 604 1023 355 1023 q 848 975 734 1023 q 1035 835 943 934 m 587 1269 q 656 1240 628 1269 q 685 1172 685 1212 q 656 1103 685 1131 q 587 1074 628 1074 q 519 1103 547 1074 q 490 1172 490 1131 q 519 1240 490 1212 q 587 1269 547 1269 z "},"ġ":{"ha":917,"x_min":61,"x_max":823,"o":"m 639 738 l 823 738 l 823 106 q 748 -170 823 -81 q 444 -289 647 -289 q 261 -262 335 -289 q 136 -182 187 -235 q 61 -54 85 -130 l 265 -54 q 335 -101 292 -85 q 436 -117 378 -117 q 556 -94 511 -117 q 620 -35 602 -71 q 639 92 639 2 q 536 21 590 43 q 415 0 483 0 q 164 107 267 0 q 62 378 62 214 q 170 661 62 554 q 405 757 269 757 q 525 733 469 757 q 639 656 582 710 l 639 738 m 447 584 q 302 525 359 584 q 245 378 245 467 q 304 227 245 286 q 450 168 362 168 q 592 225 536 168 q 648 376 648 283 q 592 526 648 469 q 447 584 536 584 m 441 1067 q 511 1038 482 1067 q 539 970 539 1010 q 511 901 539 929 q 441 872 482 872 q 373 901 401 872 q 345 970 345 929 q 373 1038 345 1010 q 441 1067 401 1067 z "},"Ģ":{"ha":1166,"x_min":69,"x_max":1106,"o":"m 1035 835 l 901 703 q 606 837 774 837 q 359 739 458 837 q 260 502 260 642 q 363 257 260 357 q 617 157 466 157 q 783 198 715 157 q 892 328 850 239 l 603 328 l 603 506 l 1105 506 l 1106 464 q 1038 216 1106 333 q 863 37 970 98 q 610 -25 755 -25 q 333 42 454 -25 q 140 235 211 110 q 69 504 69 359 q 200 848 69 702 q 604 1023 355 1023 q 848 975 734 1023 q 1035 835 943 934 m 534 11 l 648 11 l 640 -20 q 712 -60 686 -31 q 738 -125 738 -90 q 692 -219 738 -180 q 564 -258 646 -258 q 413 -227 497 -258 l 437 -140 q 533 -155 486 -155 q 585 -142 568 -155 q 602 -107 602 -129 q 589 -79 602 -90 q 548 -69 576 -69 l 510 -71 l 534 11 z "},"ģ":{"ha":917,"x_min":61,"x_max":823,"o":"m 639 738 l 823 738 l 823 106 q 748 -170 823 -81 q 444 -289 647 -289 q 261 -262 335 -289 q 136 -182 187 -235 q 61 -54 85 -130 l 265 -54 q 335 -101 292 -85 q 436 -117 378 -117 q 556 -94 511 -117 q 620 -35 602 -71 q 639 92 639 2 q 536 21 590 43 q 415 0 483 0 q 164 107 267 0 q 62 378 62 214 q 170 661 62 554 q 405 757 269 757 q 525 733 469 757 q 639 656 582 710 l 639 738 m 447 584 q 302 525 359 584 q 245 378 245 467 q 304 227 245 286 q 450 168 362 168 q 592 225 536 168 q 648 376 648 283 q 592 526 648 469 q 447 584 536 584 m 545 846 l 374 846 l 374 940 q 396 1094 374 1029 q 470 1226 418 1158 l 536 1174 q 499 1111 511 1137 q 476 1040 488 1084 l 545 1040 l 545 846 z "},"Ĥ":{"ha":945,"x_min":113,"x_max":831,"o":"m 113 998 l 306 998 l 306 621 l 640 621 l 640 998 l 831 998 l 831 0 l 640 0 l 640 437 l 306 437 l 306 0 l 113 0 l 113 998 m 195 1075 l 399 1267 l 547 1267 l 749 1075 l 547 1075 l 474 1164 l 399 1075 l 195 1075 z "},"ĥ":{"ha":833,"x_min":93,"x_max":747,"o":"m 93 1023 l 277 1023 l 277 663 q 386 733 331 710 q 497 757 441 757 q 682 681 607 757 q 747 488 747 615 l 747 0 l 564 0 l 564 323 q 552 497 564 452 q 510 565 540 543 q 437 587 481 587 q 341 550 381 587 q 285 448 300 513 q 277 296 277 415 l 277 0 l 93 0 l 93 1023 m 143 1074 l 347 1265 l 495 1265 l 697 1074 l 495 1074 l 422 1162 l 347 1074 l 143 1074 z "},"Ħ":{"ha":945,"x_min":23,"x_max":921,"o":"m 305 876 l 639 876 l 639 998 l 831 998 l 831 876 l 921 876 l 921 766 l 831 766 l 831 0 l 639 0 l 639 437 l 305 437 l 305 0 l 113 0 l 113 766 l 23 766 l 23 876 l 113 876 l 113 998 l 305 998 l 305 876 m 305 766 l 305 621 l 639 621 l 639 766 l 305 766 z "},"ħ":{"ha":833,"x_min":0,"x_max":750,"o":"m 278 939 l 496 939 l 496 828 l 278 828 l 278 663 q 497 757 382 757 q 679 687 608 757 q 750 488 750 617 l 750 0 l 565 0 l 565 323 q 556 485 565 436 q 516 561 547 534 q 439 587 486 587 q 342 550 382 587 q 290 463 301 513 q 278 296 278 414 l 278 0 l 93 0 l 93 828 l 0 828 l 0 939 l 93 939 l 93 1023 l 278 1023 l 278 939 z "},"Ĩ":{"ha":389,"x_min":-88,"x_max":477,"o":"m 100 998 l 289 998 l 289 0 l 100 0 l 100 998 m -14 1078 l -88 1190 q 87 1257 -1 1257 q 201 1234 121 1257 q 289 1219 256 1219 q 407 1254 346 1219 l 477 1148 q 312 1075 392 1075 q 210 1093 269 1075 q 148 1110 161 1107 q 106 1113 130 1113 q -14 1078 46 1113 z "},"ĩ":{"ha":333,"x_min":-116,"x_max":450,"o":"m 74 738 l 260 738 l 260 0 l 74 0 l 74 738 m -41 876 l -116 987 q 60 1055 -29 1055 q 174 1031 93 1055 q 261 1017 229 1017 q 379 1052 318 1017 l 450 946 q 284 873 364 873 q 182 891 241 873 q 120 908 133 905 q 78 911 102 911 q -41 876 18 911 z "},"Ī":{"ha":389,"x_min":1,"x_max":387,"o":"m 100 998 l 289 998 l 289 0 l 100 0 l 100 998 m 1 1075 l 1 1225 l 387 1225 l 387 1075 l 1 1075 z "},"ī":{"ha":333,"x_min":-26,"x_max":359,"o":"m 74 738 l 260 738 l 260 0 l 74 0 l 74 738 m -26 873 l -26 1023 l 359 1023 l 359 873 l -26 873 z "},"Ĭ":{"ha":389,"x_min":-81,"x_max":471,"o":"m 100 998 l 289 998 l 289 0 l 100 0 l 100 998 m -81 1265 l 68 1265 q 118 1224 86 1238 q 195 1210 149 1210 q 278 1226 241 1210 q 321 1265 302 1237 l 471 1265 q 388 1127 458 1179 q 194 1075 319 1075 q 53 1098 110 1075 q -38 1165 -3 1122 q -81 1265 -73 1208 z "},"ĭ":{"ha":333,"x_min":-110,"x_max":442,"o":"m 74 738 l 260 738 l 260 0 l 74 0 l 74 738 m -110 1063 l 40 1063 q 89 1022 58 1036 q 166 1008 121 1008 q 250 1024 212 1008 q 292 1063 274 1035 l 442 1063 q 360 925 429 977 q 165 873 290 873 q 25 896 81 873 q -66 963 -32 920 q -110 1063 -101 1006 z "},"Į":{"ha":389,"x_min":71,"x_max":323,"o":"m 100 998 l 289 998 l 289 0 l 100 0 l 100 998 m 191 0 l 289 0 q 194 -112 194 -56 q 214 -157 194 -140 q 264 -175 233 -175 q 323 -157 288 -175 l 323 -264 q 237 -275 277 -275 q 114 -238 157 -275 q 71 -146 71 -201 q 102 -66 71 -105 q 191 0 132 -26 z "},"į":{"ha":333,"x_min":41,"x_max":294,"o":"m 166 1042 q 250 1006 215 1042 q 285 921 285 971 q 250 837 285 871 q 168 802 216 802 q 83 837 118 802 q 48 924 48 873 q 83 1007 48 972 q 166 1042 117 1042 m 73 738 l 259 738 l 259 0 l 73 0 l 73 738 m 161 0 l 259 0 q 164 -112 164 -56 q 184 -157 164 -140 q 235 -175 203 -175 q 294 -157 258 -175 l 294 -264 q 207 -275 247 -275 q 84 -238 127 -275 q 41 -146 41 -201 q 72 -66 41 -105 q 161 0 102 -26 z "},"Ĵ":{"ha":667,"x_min":26,"x_max":660,"o":"m 362 998 l 553 998 l 553 336 q 528 114 553 178 q 445 13 503 50 q 307 -25 387 -25 q 26 119 142 -25 l 163 248 q 240 178 208 196 q 302 161 272 161 q 347 186 332 161 q 362 300 362 212 l 362 998 m 106 1075 l 309 1267 l 458 1267 l 660 1075 l 458 1075 l 385 1164 l 309 1075 l 106 1075 z "},"ĵ":{"ha":361,"x_min":-96,"x_max":458,"o":"m -96 873 l 107 1065 l 256 1065 l 458 873 l 256 873 l 182 962 l 107 873 l -96 873 m 88 738 l 274 738 l 274 -24 q 217 -238 274 -187 q 80 -289 161 -289 q -59 -261 22 -289 l -59 -115 q 18 -136 -16 -136 q 71 -115 54 -136 q 88 -38 88 -94 l 88 738 z "},"Ķ":{"ha":861,"x_min":115,"x_max":840,"o":"m 115 998 l 307 998 l 307 654 l 578 998 l 806 998 l 458 553 l 840 0 l 615 0 l 307 443 l 307 0 l 115 0 l 115 998 m 344 -54 q 409 -51 385 -51 q 528 -86 488 -51 q 568 -170 568 -122 q 524 -262 568 -221 q 393 -303 479 -303 q 262 -279 337 -303 l 286 -190 q 360 -201 333 -201 q 432 -153 432 -201 q 377 -114 432 -114 q 326 -117 361 -114 l 344 -54 z "},"ķ":{"ha":806,"x_min":95,"x_max":823,"o":"m 95 1023 l 280 1023 l 280 433 l 553 738 l 785 738 l 467 384 l 823 0 l 593 0 l 280 340 l 280 0 l 95 0 l 95 1023 m 325 -54 q 390 -51 366 -51 q 509 -86 469 -51 q 549 -170 549 -122 q 505 -262 549 -221 q 374 -303 460 -303 q 243 -279 318 -303 l 267 -190 q 341 -201 314 -201 q 413 -153 413 -201 q 358 -114 413 -114 q 307 -117 342 -114 l 325 -54 z "},"ĸ":{"ha":806,"x_min":95,"x_max":823,"o":"m 95 738 l 280 738 l 280 433 l 553 738 l 785 738 l 467 384 l 823 0 l 593 0 l 280 340 l 280 0 l 95 0 l 95 738 z "},"Ļ":{"ha":611,"x_min":114,"x_max":581,"o":"m 114 998 l 304 998 l 304 181 l 581 181 l 581 0 l 114 0 l 114 998 m 227 -54 q 292 -51 269 -51 q 411 -86 372 -51 q 451 -170 451 -122 q 407 -262 451 -221 q 277 -303 363 -303 q 145 -279 220 -303 l 169 -190 q 243 -201 216 -201 q 315 -153 315 -201 q 260 -114 315 -114 q 210 -117 244 -114 l 227 -54 z "},"ļ":{"ha":333,"x_min":-2,"x_max":304,"o":"m 74 1023 l 259 1023 l 259 0 l 74 0 l 74 1023 m 80 -54 q 145 -51 121 -51 q 264 -86 224 -51 q 304 -170 304 -122 q 260 -262 304 -221 q 130 -303 216 -303 q -2 -279 73 -303 l 22 -190 q 96 -201 69 -201 q 168 -153 168 -201 q 113 -114 168 -114 q 62 -117 97 -114 l 80 -54 z "},"Ņ":{"ha":1027,"x_min":115,"x_max":914,"o":"m 115 998 l 296 998 l 724 341 l 724 998 l 914 998 l 914 0 l 732 0 l 304 654 l 304 0 l 115 0 l 115 998 m 428 -54 q 493 -51 469 -51 q 612 -86 572 -51 q 652 -170 652 -122 q 608 -262 652 -221 q 477 -303 564 -303 q 346 -279 421 -303 l 370 -190 q 444 -201 417 -201 q 516 -153 516 -201 q 461 -114 516 -114 q 410 -117 445 -114 l 428 -54 z "},"ņ":{"ha":833,"x_min":94,"x_max":748,"o":"m 94 738 l 278 738 l 278 663 q 392 736 341 715 q 497 757 444 757 q 684 680 607 757 q 748 488 748 615 l 748 0 l 565 0 l 565 323 q 553 499 565 456 q 512 565 541 543 q 439 588 482 588 q 342 550 382 588 q 286 446 302 513 q 278 296 278 412 l 278 0 l 94 0 l 94 738 m 339 -54 q 404 -51 380 -51 q 523 -86 484 -51 q 563 -170 563 -122 q 519 -262 563 -221 q 389 -303 475 -303 q 257 -279 332 -303 l 281 -190 q 355 -201 328 -201 q 427 -153 427 -201 q 372 -114 427 -114 q 321 -117 356 -114 l 339 -54 z "},"Ŋ":{"ha":1100,"x_min":113,"x_max":1034,"o":"m 306 892 q 590 1023 423 1023 q 905 876 777 1023 q 1034 497 1034 730 q 937 123 1034 272 q 661 -25 840 -25 q 511 7 573 -25 q 389 119 448 39 l 524 245 q 657 159 589 159 q 793 253 743 159 q 843 485 843 347 q 767 748 843 655 q 575 840 691 840 q 306 659 431 840 l 306 0 l 113 0 l 113 998 l 306 998 l 306 892 z "},"ŋ":{"ha":833,"x_min":93,"x_max":749,"o":"m 749 488 l 749 -24 q 693 -238 749 -187 q 556 -289 637 -289 q 417 -261 498 -289 l 417 -115 q 493 -136 459 -136 q 545 -117 526 -136 q 564 -38 564 -97 l 564 326 q 556 487 564 441 q 517 561 548 533 q 438 588 486 588 q 342 550 382 588 q 290 461 301 512 q 278 296 278 411 l 278 0 l 93 0 l 93 738 l 278 738 l 278 663 q 498 757 386 757 q 679 686 609 757 q 749 488 749 615 z "},"Ō":{"ha":1166,"x_min":65,"x_max":1101,"o":"m 585 1023 q 949 869 797 1023 q 1101 496 1101 716 q 951 126 1101 277 q 587 -25 801 -25 q 214 130 362 -25 q 65 499 65 286 q 134 762 65 642 q 325 952 203 882 q 585 1023 446 1023 m 583 837 q 351 741 445 837 q 256 496 256 644 q 375 234 256 330 q 587 159 467 159 q 817 256 722 159 q 911 497 911 354 q 816 738 911 640 q 583 837 720 837 m 390 1075 l 390 1225 l 776 1225 l 776 1075 l 390 1075 z "},"ō":{"ha":889,"x_min":58,"x_max":831,"o":"m 440 757 q 636 705 545 757 q 780 563 728 652 q 831 370 831 473 q 780 174 831 265 q 638 32 728 83 q 441 -19 549 -19 q 170 94 282 -19 q 58 368 58 207 q 184 656 58 541 q 440 757 296 757 m 443 583 q 299 523 357 583 q 242 369 242 463 q 299 213 242 273 q 442 153 355 153 q 587 214 529 153 q 644 369 644 274 q 588 523 644 464 q 443 583 531 583 m 252 873 l 252 1023 l 637 1023 l 637 873 l 252 873 z "},"Ŏ":{"ha":1166,"x_min":65,"x_max":1101,"o":"m 585 1023 q 949 869 797 1023 q 1101 496 1101 716 q 951 126 1101 277 q 587 -25 801 -25 q 214 130 362 -25 q 65 499 65 286 q 134 762 65 642 q 325 952 203 882 q 585 1023 446 1023 m 583 837 q 351 741 445 837 q 256 496 256 644 q 375 234 256 330 q 587 159 467 159 q 817 256 722 159 q 911 497 911 354 q 816 738 911 640 q 583 837 720 837 m 307 1265 l 457 1265 q 506 1224 475 1238 q 583 1210 538 1210 q 667 1226 629 1210 q 709 1265 691 1237 l 859 1265 q 777 1127 846 1179 q 583 1075 707 1075 q 442 1098 498 1075 q 351 1165 385 1122 q 307 1265 316 1208 z "},"ŏ":{"ha":889,"x_min":58,"x_max":831,"o":"m 440 757 q 636 705 545 757 q 780 563 728 652 q 831 370 831 473 q 780 174 831 265 q 638 32 728 83 q 441 -19 549 -19 q 170 94 282 -19 q 58 368 58 207 q 184 656 58 541 q 440 757 296 757 m 443 583 q 299 523 357 583 q 242 369 242 463 q 299 213 242 273 q 442 153 355 153 q 587 214 529 153 q 644 369 644 274 q 588 523 644 464 q 443 583 531 583 m 168 1063 l 318 1063 q 367 1022 336 1036 q 444 1008 399 1008 q 528 1024 490 1008 q 570 1063 552 1035 l 720 1063 q 638 925 707 977 q 444 873 568 873 q 303 896 359 873 q 212 963 246 920 q 168 1063 177 1006 z "},"Ŗ":{"ha":806,"x_min":127,"x_max":766,"o":"m 127 998 l 328 998 q 564 968 494 998 q 677 870 634 939 q 720 708 720 802 q 672 544 720 610 q 530 444 625 477 l 766 0 l 559 0 l 334 422 l 317 422 l 317 0 l 127 0 l 127 998 m 317 608 l 376 608 q 502 631 467 608 q 536 710 536 655 q 519 767 536 743 q 473 801 502 791 q 369 812 445 812 l 317 812 l 317 608 m 325 -54 q 390 -51 366 -51 q 509 -86 469 -51 q 549 -170 549 -122 q 505 -262 549 -221 q 374 -303 460 -303 q 243 -279 318 -303 l 267 -190 q 341 -201 314 -201 q 413 -153 413 -201 q 358 -114 413 -114 q 307 -117 342 -114 l 325 -54 z "},"ŗ":{"ha":444,"x_min":50,"x_max":446,"o":"m 50 738 l 209 738 l 209 645 q 277 728 235 700 q 371 757 320 757 q 446 738 407 757 l 389 578 q 335 595 356 595 q 263 542 292 595 q 233 334 233 489 l 234 298 l 234 0 l 50 0 l 50 738 m 144 -54 q 209 -51 185 -51 q 328 -86 288 -51 q 368 -170 368 -122 q 323 -262 368 -221 q 193 -303 279 -303 q 62 -279 137 -303 l 85 -190 q 160 -201 133 -201 q 232 -153 232 -201 q 177 -114 232 -114 q 126 -117 161 -114 l 144 -54 z "},"Ŝ":{"ha":722,"x_min":28,"x_max":654,"o":"m 637 862 l 496 738 q 346 841 422 841 q 285 821 309 841 q 261 776 261 801 q 278 728 261 751 q 417 600 301 699 q 549 486 526 509 q 630 374 606 427 q 654 258 654 321 q 570 55 654 135 q 349 -25 485 -25 q 163 27 242 -25 q 28 191 84 79 l 187 288 q 353 155 259 155 q 435 184 401 155 q 468 250 468 212 q 443 317 468 283 q 332 421 418 351 q 122 626 170 554 q 75 770 75 699 q 154 948 75 874 q 349 1023 233 1023 q 491 988 423 1023 q 637 862 558 954 m 64 1075 l 268 1267 l 416 1267 l 618 1075 l 416 1075 l 343 1164 l 268 1075 l 64 1075 z "},"ŝ":{"ha":611,"x_min":20,"x_max":574,"o":"m 546 635 l 431 520 q 304 589 361 589 q 256 576 273 589 q 238 543 238 563 q 249 516 238 528 q 304 481 260 503 l 372 448 q 519 340 479 395 q 559 211 559 285 q 487 47 559 113 q 294 -19 415 -19 q 36 107 132 -19 l 150 231 q 226 170 182 193 q 304 146 270 146 q 363 164 340 146 q 385 205 385 182 q 304 288 385 248 l 242 319 q 63 545 63 410 q 131 695 63 633 q 303 757 198 757 q 438 725 375 757 q 546 635 502 694 m 20 873 l 224 1065 l 372 1065 l 574 873 l 372 873 l 299 962 l 224 873 l 20 873 z "},"Ŧ":{"ha":583,"x_min":16,"x_max":567,"o":"m 388 537 l 534 537 l 534 427 l 388 427 l 388 0 l 195 0 l 195 427 l 48 427 l 48 537 l 195 537 l 195 810 l 16 810 l 16 998 l 567 998 l 567 810 l 388 810 l 388 537 z "},"ŧ":{"ha":416,"x_min":5,"x_max":427,"o":"m 300 418 l 427 418 l 427 307 l 300 307 l 300 0 l 116 0 l 116 307 l 5 307 l 5 418 l 116 418 l 116 578 l 21 578 l 21 738 l 116 738 l 116 1010 l 300 1010 l 300 738 l 410 738 l 410 578 l 300 578 l 300 418 z "},"Ũ":{"ha":889,"x_min":107,"x_max":783,"o":"m 107 998 l 298 998 l 298 352 q 312 234 298 269 q 360 179 327 199 q 441 158 394 158 q 528 181 492 158 q 578 240 564 204 q 592 376 592 275 l 592 998 l 783 998 l 783 403 q 766 194 783 252 q 701 81 749 136 q 591 1 653 27 q 446 -25 528 -25 q 257 25 337 -25 q 142 150 176 75 q 107 403 107 224 l 107 998 m 237 1078 l 162 1190 q 338 1257 249 1257 q 452 1234 371 1257 q 539 1219 507 1219 q 657 1254 596 1219 l 728 1148 q 562 1075 642 1075 q 460 1093 519 1075 q 398 1110 411 1107 q 356 1113 380 1113 q 237 1078 296 1113 z "},"ũ":{"ha":833,"x_min":93,"x_max":741,"o":"m 93 738 l 280 738 l 280 382 q 294 238 280 279 q 340 176 309 198 q 418 153 372 153 q 496 175 464 153 q 544 240 528 197 q 555 376 555 272 l 555 738 l 741 738 l 741 425 q 711 161 741 232 q 601 27 673 74 q 416 -19 528 -19 q 220 35 295 -19 q 115 186 145 90 q 93 431 93 254 l 93 738 m 209 876 l 134 987 q 310 1055 221 1055 q 424 1031 343 1055 q 511 1017 479 1017 q 629 1052 568 1017 l 700 946 q 534 873 614 873 q 432 891 492 873 q 370 908 383 905 q 328 911 353 911 q 209 876 269 911 z "},"Ū":{"ha":889,"x_min":107,"x_max":783,"o":"m 107 998 l 298 998 l 298 352 q 312 234 298 269 q 360 179 327 199 q 441 158 394 158 q 528 181 492 158 q 578 240 564 204 q 592 376 592 275 l 592 998 l 783 998 l 783 403 q 766 194 783 252 q 701 81 749 136 q 591 1 653 27 q 446 -25 528 -25 q 257 25 337 -25 q 142 150 176 75 q 107 403 107 224 l 107 998 m 252 1075 l 252 1225 l 638 1225 l 638 1075 l 252 1075 z "},"ū":{"ha":833,"x_min":93,"x_max":741,"o":"m 93 738 l 280 738 l 280 382 q 294 238 280 279 q 340 176 309 198 q 418 153 372 153 q 496 175 464 153 q 544 240 528 197 q 555 376 555 272 l 555 738 l 741 738 l 741 425 q 711 161 741 232 q 601 27 673 74 q 416 -19 528 -19 q 220 35 295 -19 q 115 186 145 90 q 93 431 93 254 l 93 738 m 224 873 l 224 1023 l 610 1023 l 610 873 l 224 873 z "},"Ŭ":{"ha":889,"x_min":107,"x_max":783,"o":"m 107 998 l 298 998 l 298 352 q 312 234 298 269 q 360 179 327 199 q 441 158 394 158 q 528 181 492 158 q 578 240 564 204 q 592 376 592 275 l 592 998 l 783 998 l 783 403 q 766 194 783 252 q 701 81 749 136 q 591 1 653 27 q 446 -25 528 -25 q 257 25 337 -25 q 142 150 176 75 q 107 403 107 224 l 107 998 m 169 1265 l 319 1265 q 368 1224 336 1238 q 445 1210 399 1210 q 528 1226 491 1210 q 571 1265 553 1237 l 721 1265 q 638 1127 708 1179 q 444 1075 569 1075 q 303 1098 360 1075 q 212 1165 247 1122 q 169 1265 178 1208 z "},"ŭ":{"ha":833,"x_min":93,"x_max":741,"o":"m 93 738 l 280 738 l 280 382 q 294 238 280 279 q 340 176 309 198 q 418 153 372 153 q 496 175 464 153 q 544 240 528 197 q 555 376 555 272 l 555 738 l 741 738 l 741 425 q 711 161 741 232 q 601 27 673 74 q 416 -19 528 -19 q 220 35 295 -19 q 115 186 145 90 q 93 431 93 254 l 93 738 m 141 1063 l 291 1063 q 340 1022 309 1036 q 417 1008 372 1008 q 500 1024 463 1008 q 543 1063 525 1035 l 693 1063 q 611 925 680 977 q 416 873 541 873 q 276 896 332 873 q 184 963 219 920 q 141 1063 150 1006 z "},"Ų":{"ha":889,"x_min":107,"x_max":783,"o":"m 107 998 l 298 998 l 298 352 q 312 234 298 269 q 360 179 327 199 q 441 158 394 158 q 528 181 492 158 q 578 240 564 204 q 592 376 592 275 l 592 998 l 783 998 l 783 403 q 766 194 783 252 q 701 81 749 136 q 591 1 653 27 q 446 -25 528 -25 q 257 25 337 -25 q 142 150 176 75 q 107 403 107 224 l 107 998 m 456 0 l 554 0 q 459 -112 459 -56 q 479 -157 459 -140 q 530 -175 498 -175 q 589 -157 553 -175 l 589 -264 q 502 -275 542 -275 q 379 -238 422 -275 q 336 -146 336 -201 q 367 -66 336 -105 q 456 0 397 -26 z "},"ų":{"ha":833,"x_min":93,"x_max":741,"o":"m 93 738 l 280 738 l 280 382 q 294 238 280 279 q 340 176 309 198 q 418 153 372 153 q 496 175 464 153 q 544 240 528 197 q 555 376 555 272 l 555 738 l 741 738 l 741 425 q 711 161 741 232 q 601 27 673 74 q 416 -19 528 -19 q 220 35 295 -19 q 115 186 145 90 q 93 431 93 254 l 93 738 m 435 0 l 533 0 q 438 -112 438 -56 q 458 -157 438 -140 q 509 -175 477 -175 q 568 -157 532 -175 l 568 -264 q 481 -275 521 -275 q 358 -238 401 -275 q 315 -146 315 -201 q 346 -66 315 -105 q 435 0 376 -26 z "},"Ŵ":{"ha":1250,"x_min":38,"x_max":1215,"o":"m 38 998 l 225 998 l 369 361 l 547 998 l 705 998 l 886 361 l 1028 998 l 1215 998 l 991 0 l 808 0 l 625 645 l 444 0 l 264 0 l 38 998 m 349 1075 l 553 1267 l 701 1267 l 903 1075 l 701 1075 l 628 1164 l 553 1075 l 349 1075 z "},"ŵ":{"ha":1111,"x_min":12,"x_max":1099,"o":"m 12 738 l 193 738 l 341 318 l 501 738 l 612 738 l 768 323 l 917 738 l 1099 738 l 830 0 l 713 0 l 555 420 l 393 0 l 277 0 l 12 738 m 278 873 l 481 1065 l 630 1065 l 832 873 l 630 873 l 557 962 l 481 873 l 278 873 z "},"Ŷ":{"ha":861,"x_min":43,"x_max":819,"o":"m 43 998 l 247 998 l 433 640 l 617 998 l 819 998 l 527 432 l 527 0 l 336 0 l 336 432 l 43 998 m 153 1075 l 357 1267 l 505 1267 l 707 1075 l 505 1075 l 432 1164 l 357 1075 l 153 1075 z "},"ŷ":{"ha":806,"x_min":12,"x_max":794,"o":"m 12 738 l 201 738 l 393 275 l 604 738 l 794 738 l 332 -270 l 140 -270 l 292 55 l 12 738 m 126 873 l 330 1065 l 478 1065 l 680 873 l 478 873 l 405 962 l 330 873 l 126 873 z "},"ſ":{"ha":333,"x_min":74,"x_max":384,"o":"m 384 1015 l 384 874 q 317 886 345 886 q 270 872 281 886 q 259 802 259 859 l 259 0 l 74 0 l 74 777 q 84 938 74 897 q 136 1011 94 980 q 254 1042 179 1042 q 384 1015 315 1042 z "},"Ǻ":{"ha":1027,"x_min":33,"x_max":994,"o":"m 418 998 l 610 998 l 994 0 l 797 0 l 719 205 l 312 205 l 231 0 l 33 0 l 418 998 m 515 733 l 382 391 l 648 391 l 515 733 m 513 1260 q 618 1216 575 1260 q 662 1109 662 1171 q 618 1001 662 1046 q 513 957 574 957 q 409 1001 452 957 q 365 1109 365 1046 q 408 1216 365 1171 q 513 1260 452 1260 m 513 1173 q 474 1155 490 1173 q 458 1112 458 1137 q 474 1069 458 1086 q 513 1051 491 1051 q 552 1069 536 1051 q 569 1112 569 1086 q 553 1155 569 1137 q 513 1173 536 1173 m 546 1558 l 765 1558 l 517 1292 l 384 1292 l 546 1558 z "},"ǻ":{"ha":917,"x_min":60,"x_max":823,"o":"m 639 738 l 823 738 l 823 0 l 639 0 l 639 78 q 530 4 585 26 q 412 -19 475 -19 q 164 92 269 -19 q 60 368 60 203 q 161 648 60 538 q 406 757 262 757 q 531 732 473 757 q 639 656 589 707 l 639 738 m 444 586 q 301 525 358 586 q 244 370 244 465 q 302 212 244 274 q 445 151 360 151 q 590 211 532 151 q 648 370 648 272 q 590 526 648 467 q 444 586 532 586 m 458 1143 q 564 1099 520 1143 q 607 992 607 1055 q 563 885 607 929 q 458 840 519 840 q 354 885 397 840 q 310 992 310 929 q 353 1099 310 1055 q 458 1143 397 1143 m 458 1056 q 419 1038 435 1056 q 403 996 403 1021 q 419 952 403 970 q 458 935 436 935 q 497 952 481 935 q 514 996 514 970 q 498 1038 514 1021 q 458 1056 481 1056 m 491 1470 l 710 1470 l 462 1204 l 329 1204 l 491 1470 z "},"Ǽ":{"ha":1250,"x_min":39,"x_max":1178,"o":"m 525 998 l 1178 998 l 1178 812 l 827 812 l 827 631 l 1178 631 l 1178 448 l 827 448 l 827 186 l 1178 186 l 1178 0 l 638 0 l 638 206 l 334 206 l 234 0 l 39 0 l 525 998 m 638 393 l 638 829 l 423 393 l 638 393 m 785 1341 l 1004 1341 l 755 1075 l 623 1075 l 785 1341 z "},"ǽ":{"ha":1500,"x_min":60,"x_max":1447,"o":"m 673 738 l 843 738 l 843 684 q 1061 757 935 757 q 1259 705 1168 757 q 1398 562 1349 653 q 1447 356 1447 470 l 1446 314 l 852 314 q 924 188 868 233 q 1067 142 979 142 q 1159 159 1118 142 q 1241 216 1199 176 l 1397 143 q 1312 55 1360 90 q 1202 1 1264 20 q 1066 -19 1139 -19 q 843 53 930 -19 l 843 0 l 673 0 l 673 94 q 562 7 619 33 q 429 -19 504 -19 q 166 91 272 -19 q 60 367 60 201 q 169 644 60 530 q 427 757 277 757 q 578 721 509 757 q 673 642 627 696 l 673 738 m 1261 458 q 1193 560 1244 522 q 1067 599 1141 599 q 939 563 993 599 q 861 458 886 527 l 1261 458 m 463 589 q 310 526 372 589 q 249 368 249 463 q 309 212 249 273 q 461 150 369 150 q 615 211 557 150 q 674 373 674 272 q 614 528 674 467 q 463 589 554 589 m 787 1139 l 1006 1139 l 758 873 l 625 873 l 787 1139 z "},"Ǿ":{"ha":1166,"x_min":66,"x_max":1102,"o":"m 969 848 q 1102 496 1102 700 q 952 126 1102 277 q 588 -25 802 -25 q 299 60 426 -25 l 183 -77 l 97 -5 l 213 132 q 104 298 143 203 q 66 499 66 394 q 135 762 66 642 q 325 952 204 882 q 585 1023 446 1023 q 886 924 747 1023 l 995 1053 l 1080 983 l 969 848 m 334 275 l 766 783 q 585 837 689 837 q 351 741 446 837 q 257 496 257 644 q 334 275 257 364 m 844 704 l 420 203 q 588 159 496 159 q 817 256 722 159 q 912 497 912 354 q 844 704 912 612 m 616 1341 l 836 1341 l 587 1075 l 454 1075 l 616 1341 z "},"ǿ":{"ha":917,"x_min":72,"x_max":848,"o":"m 762 610 q 846 370 846 502 q 794 174 846 265 q 652 32 742 83 q 456 -19 563 -19 q 250 41 342 -19 l 162 -58 l 77 15 l 165 114 q 72 368 72 222 q 198 655 72 541 q 455 757 309 757 q 680 687 576 757 l 765 782 l 848 707 l 762 610 m 287 249 l 562 556 q 458 583 516 583 q 314 523 372 583 q 256 369 256 463 q 287 249 256 305 m 637 472 l 369 173 q 458 153 412 153 q 601 214 543 153 q 659 369 659 274 q 637 472 659 425 m 493 1139 l 712 1139 l 464 873 l 331 873 l 493 1139 z "},"΄":{"ha":583,"x_min":195,"x_max":387,"o":"m 387 1112 l 358 852 l 225 852 l 195 1112 l 387 1112 z "},"΅":{"ha":583,"x_min":1,"x_max":583,"o":"m 387 1112 l 358 852 l 225 852 l 195 1112 l 387 1112 m 176 941 q 151 879 176 904 q 88 853 125 853 q 26 879 52 853 q 1 941 1 904 q 26 1003 1 977 q 88 1028 52 1028 q 151 1003 125 1029 q 176 941 176 978 m 582 941 q 556 879 582 904 q 494 853 531 853 q 432 879 458 853 q 407 941 407 904 q 432 1003 407 977 q 494 1028 458 1028 q 557 1003 531 1029 q 582 941 583 978 z "},"Ά":{"ha":1027,"x_min":33,"x_max":994,"o":"m 418 998 l 610 998 l 994 0 l 797 0 l 719 205 l 312 205 l 231 0 l 33 0 l 418 998 m 515 733 l 382 391 l 648 391 l 515 733 m 261 1023 l 232 764 l 99 764 l 69 1023 l 261 1023 z "},"·":{"ha":389,"x_min":88,"x_max":301,"o":"m 301 650 q 270 575 301 606 q 195 545 239 545 q 119 575 150 545 q 88 650 88 606 q 119 726 88 694 q 195 757 150 757 q 270 726 239 757 q 301 650 301 694 z "},"Έ":{"ha":833,"x_min":-68,"x_max":770,"o":"m 225 998 l 770 998 l 770 812 l 414 812 l 414 631 l 770 631 l 770 449 l 414 449 l 414 186 l 770 186 l 770 0 l 225 0 l 225 998 m 124 1023 l 95 764 l -38 764 l -68 1023 l 124 1023 z "},"Ή":{"ha":1055,"x_min":-68,"x_max":942,"o":"m 224 998 l 416 998 l 416 621 l 750 621 l 750 998 l 942 998 l 942 0 l 750 0 l 750 437 l 416 437 l 416 0 l 224 0 l 224 998 m 124 1023 l 95 764 l -38 764 l -68 1023 l 124 1023 z "},"Ί":{"ha":499,"x_min":-68,"x_max":399,"o":"m 211 998 l 399 998 l 399 0 l 211 0 l 211 998 m 124 1023 l 95 764 l -38 764 l -68 1023 l 124 1023 z "},"Ό":{"ha":1216,"x_min":-68,"x_max":1151,"o":"m 635 1023 q 999 869 846 1023 q 1151 496 1151 716 q 1001 126 1151 277 q 636 -25 850 -25 q 263 130 412 -25 q 115 499 115 286 q 184 762 115 642 q 374 952 253 882 q 635 1023 495 1023 m 633 837 q 400 741 494 837 q 306 496 306 644 q 425 234 306 330 q 636 159 517 159 q 866 256 771 159 q 961 497 961 354 q 865 738 961 640 q 633 837 770 837 m 124 1023 l 95 764 l -38 764 l -68 1023 l 124 1023 z "},"Ύ":{"ha":979,"x_min":-68,"x_max":936,"o":"m 160 998 l 364 998 l 550 640 l 734 998 l 936 998 l 644 432 l 644 0 l 453 0 l 453 432 l 160 998 m 124 1023 l 95 764 l -38 764 l -68 1023 l 124 1023 z "},"Ώ":{"ha":1237,"x_min":-68,"x_max":1169,"o":"m 916 188 l 1169 188 l 1169 0 l 710 0 l 710 226 q 960 567 960 352 q 875 763 960 690 q 644 836 790 836 q 411 761 496 836 q 327 567 327 686 q 576 226 327 353 l 576 0 l 117 0 l 117 188 l 370 188 q 136 568 136 338 q 277 898 136 773 q 644 1022 419 1022 q 1013 895 875 1022 q 1151 568 1151 768 q 916 188 1151 338 m 124 1023 l 95 764 l -38 764 l -68 1023 l 124 1023 z "},"ΐ":{"ha":333,"x_min":-124,"x_max":458,"o":"m 73 738 l 259 738 l 259 0 l 73 0 l 73 738 m 262 1112 l 233 852 l 100 852 l 71 1112 l 262 1112 m 52 941 q 26 879 52 904 q -37 853 1 853 q -99 879 -73 853 q -124 941 -124 904 q -99 1003 -124 977 q -37 1028 -73 1028 q 26 1003 0 1029 q 52 941 52 978 m 457 941 q 432 879 457 904 q 370 853 406 853 q 308 879 333 853 q 282 941 282 904 q 308 1003 282 977 q 370 1028 333 1028 q 432 1003 406 1029 q 457 941 458 978 z "},"Α":{"ha":1027,"x_min":33,"x_max":994,"o":"m 418 998 l 610 998 l 994 0 l 797 0 l 719 205 l 312 205 l 231 0 l 33 0 l 418 998 m 515 733 l 382 391 l 648 391 l 515 733 z "},"Β":{"ha":806,"x_min":114,"x_max":738,"o":"m 114 0 l 114 998 l 271 998 q 470 980 407 998 q 612 892 559 956 q 665 740 665 827 q 641 636 665 683 q 563 549 617 590 q 696 443 654 507 q 738 291 738 378 q 694 138 738 207 q 583 34 651 68 q 393 0 514 0 l 114 0 m 304 817 l 304 606 l 345 606 q 448 635 414 606 q 481 715 481 665 q 450 789 481 762 q 353 817 418 817 l 304 817 m 304 437 l 304 181 l 351 181 q 510 211 469 181 q 551 298 551 241 q 503 399 551 362 q 343 437 455 437 l 304 437 z "},"Γ":{"ha":643,"x_min":113,"x_max":608,"o":"m 113 998 l 608 998 l 608 812 l 301 812 l 301 0 l 113 0 l 113 998 z "},"Δ":{"ha":1027,"x_min":52,"x_max":979,"o":"m 979 0 l 52 0 l 52 159 l 429 998 l 600 998 l 979 159 l 979 0 m 758 186 l 513 733 l 271 186 l 758 186 z "},"Ε":{"ha":722,"x_min":115,"x_max":659,"o":"m 115 998 l 659 998 l 659 812 l 303 812 l 303 631 l 659 631 l 659 449 l 303 449 l 303 186 l 659 186 l 659 0 l 115 0 l 115 998 z "},"Ζ":{"ha":694,"x_min":32,"x_max":665,"o":"m 61 998 l 665 998 l 309 182 l 642 182 l 642 0 l 32 0 l 387 810 l 61 810 l 61 998 z "},"Η":{"ha":945,"x_min":113,"x_max":831,"o":"m 113 998 l 306 998 l 306 621 l 640 621 l 640 998 l 831 998 l 831 0 l 640 0 l 640 437 l 306 437 l 306 0 l 113 0 l 113 998 z "},"Θ":{"ha":1166,"x_min":65,"x_max":1101,"o":"m 1101 496 q 952 126 1101 277 q 587 -25 804 -25 q 216 127 366 -25 q 65 499 65 279 q 219 871 65 720 q 585 1023 372 1023 q 951 869 800 1023 q 1101 496 1101 716 m 256 496 q 355 252 256 345 q 587 159 454 159 q 818 257 725 159 q 911 497 911 356 q 817 738 911 639 q 583 837 722 837 q 349 740 441 837 q 256 496 256 642 m 406 594 l 762 594 l 762 412 l 406 412 l 406 594 z "},"Ι":{"ha":389,"x_min":100,"x_max":289,"o":"m 100 998 l 289 998 l 289 0 l 100 0 l 100 998 z "},"Κ":{"ha":861,"x_min":115,"x_max":840,"o":"m 115 998 l 307 998 l 307 654 l 578 998 l 806 998 l 458 553 l 840 0 l 615 0 l 307 443 l 307 0 l 115 0 l 115 998 z "},"Λ":{"ha":964,"x_min":1,"x_max":962,"o":"m 760 0 l 484 733 l 203 0 l 1 0 l 386 998 l 578 998 l 962 0 l 760 0 z "},"Μ":{"ha":1250,"x_min":38,"x_max":1212,"o":"m 210 998 l 396 998 l 627 302 l 861 998 l 1044 998 l 1212 0 l 1029 0 l 922 630 l 709 0 l 542 0 l 332 630 l 223 0 l 38 0 l 210 998 z "},"Ν":{"ha":1027,"x_min":115,"x_max":914,"o":"m 115 998 l 296 998 l 724 341 l 724 998 l 914 998 l 914 0 l 732 0 l 304 654 l 304 0 l 115 0 l 115 998 z "},"Ξ":{"ha":734,"x_min":75,"x_max":660,"o":"m 660 812 l 75 812 l 75 998 l 660 998 l 660 812 m 660 449 l 75 449 l 75 631 l 660 631 l 660 449 m 660 0 l 75 0 l 75 186 l 660 186 l 660 0 z "},"Ο":{"ha":1166,"x_min":65,"x_max":1101,"o":"m 585 1023 q 949 869 797 1023 q 1101 496 1101 716 q 951 126 1101 277 q 587 -25 801 -25 q 214 130 362 -25 q 65 499 65 286 q 134 762 65 642 q 325 952 203 882 q 585 1023 446 1023 m 583 837 q 351 741 445 837 q 256 496 256 644 q 375 234 256 330 q 587 159 467 159 q 817 256 722 159 q 911 497 911 354 q 816 738 911 640 q 583 837 720 837 z "},"Π":{"ha":945,"x_min":113,"x_max":831,"o":"m 113 998 l 831 998 l 831 0 l 640 0 l 640 820 l 306 820 l 306 0 l 113 0 l 113 998 z "},"Ρ":{"ha":778,"x_min":113,"x_max":706,"o":"m 113 998 l 315 998 q 550 967 478 998 q 664 870 623 937 q 706 708 706 802 q 651 534 706 604 q 503 438 597 465 q 303 422 448 422 l 303 0 l 113 0 l 113 998 m 303 608 l 363 608 q 463 618 435 608 q 506 651 490 628 q 522 708 522 675 q 477 792 522 766 q 357 812 445 812 l 303 812 l 303 608 z "},"Σ":{"ha":696,"x_min":18,"x_max":642,"o":"m 18 0 l 281 498 l 22 998 l 633 998 l 633 812 l 323 812 l 487 497 l 321 186 l 642 186 l 642 0 l 18 0 z "},"Τ":{"ha":583,"x_min":16,"x_max":567,"o":"m 16 998 l 567 998 l 567 810 l 385 810 l 385 0 l 193 0 l 193 810 l 16 810 l 16 998 z "},"Υ":{"ha":861,"x_min":43,"x_max":819,"o":"m 43 998 l 247 998 l 433 640 l 617 998 l 819 998 l 527 432 l 527 0 l 336 0 l 336 432 l 43 998 z "},"Φ":{"ha":1194,"x_min":52,"x_max":1141,"o":"m 693 100 l 693 0 l 500 0 l 500 100 q 170 225 288 121 q 52 504 52 330 q 179 787 52 677 q 500 909 305 897 l 500 998 l 693 998 l 693 909 q 1019 786 896 894 q 1141 505 1141 679 q 1022 213 1141 319 q 693 100 903 106 m 693 735 l 693 275 q 948 505 948 298 q 693 735 948 711 m 500 735 q 245 505 245 713 q 500 275 245 300 l 500 735 z "},"Χ":{"ha":945,"x_min":28,"x_max":916,"o":"m 49 998 l 262 998 l 471 678 l 682 998 l 896 998 l 578 515 l 916 0 l 702 0 l 471 351 l 243 0 l 28 0 l 365 515 l 49 998 z "},"Ψ":{"ha":1141,"x_min":88,"x_max":1053,"o":"m 665 250 l 665 0 l 475 0 l 475 250 q 88 659 88 296 l 88 998 l 279 998 l 279 681 q 323 495 279 548 q 475 427 368 443 l 475 998 l 665 998 l 665 426 q 818 496 774 444 q 862 681 862 547 l 862 998 l 1053 998 l 1053 652 q 665 250 1053 297 z "},"Ω":{"ha":1187,"x_min":68,"x_max":1120,"o":"m 867 188 l 1120 188 l 1120 0 l 661 0 l 661 226 q 910 567 910 352 q 825 763 910 690 q 594 836 741 836 q 362 761 446 836 q 277 567 277 686 q 527 226 277 353 l 527 0 l 68 0 l 68 188 l 321 188 q 86 568 86 338 q 228 898 86 773 q 594 1022 370 1022 q 963 895 825 1022 q 1101 568 1101 768 q 867 188 1101 338 z "},"Ϊ":{"ha":389,"x_min":-53,"x_max":442,"o":"m 100 998 l 289 998 l 289 0 l 100 0 l 100 998 m 44 1269 q 113 1240 85 1269 q 142 1172 142 1212 q 113 1103 142 1131 q 44 1074 85 1074 q -24 1103 4 1074 q -53 1172 -53 1131 q -24 1240 -53 1212 q 44 1269 4 1269 m 345 1269 q 414 1240 385 1269 q 442 1172 442 1212 q 414 1103 442 1131 q 345 1074 385 1074 q 276 1103 304 1074 q 248 1172 248 1131 q 276 1240 248 1212 q 345 1269 304 1269 z "},"Ϋ":{"ha":861,"x_min":43,"x_max":819,"o":"m 43 998 l 247 998 l 433 640 l 617 998 l 819 998 l 527 432 l 527 0 l 336 0 l 336 432 l 43 998 m 287 1269 q 356 1240 328 1269 q 385 1172 385 1212 q 356 1103 385 1131 q 287 1074 328 1074 q 218 1103 247 1074 q 190 1172 190 1131 q 218 1240 190 1212 q 287 1269 247 1269 m 587 1269 q 656 1240 628 1269 q 685 1172 685 1212 q 656 1103 685 1131 q 587 1074 628 1074 q 519 1103 547 1074 q 490 1172 490 1131 q 519 1240 490 1212 q 587 1269 547 1269 z "},"ά":{"ha":917,"x_min":60,"x_max":823,"o":"m 639 738 l 823 738 l 823 0 l 639 0 l 639 78 q 530 4 585 26 q 412 -19 475 -19 q 164 92 269 -19 q 60 368 60 203 q 161 648 60 538 q 406 757 262 757 q 531 732 473 757 q 639 656 589 707 l 639 738 m 444 586 q 301 525 358 586 q 244 370 244 465 q 302 212 244 274 q 445 151 360 151 q 590 211 532 151 q 648 370 648 272 q 590 526 648 467 q 444 586 532 586 m 554 1112 l 525 852 l 392 852 l 362 1112 l 554 1112 z "},"έ":{"ha":608,"x_min":58,"x_max":597,"o":"m 597 65 q 349 -19 499 -19 q 140 42 222 -19 q 58 210 58 103 q 196 394 58 343 q 93 550 93 454 q 164 701 93 645 q 342 757 235 757 q 555 681 460 757 l 482 553 q 368 597 414 597 q 307 575 331 597 q 283 519 283 553 q 376 445 283 445 l 412 445 l 412 313 l 364 313 q 294 289 322 313 q 267 227 267 264 q 295 167 267 189 q 370 145 324 145 q 514 207 435 145 l 597 65 m 400 1112 l 371 852 l 238 852 l 208 1112 l 400 1112 z "},"ή":{"ha":833,"x_min":94,"x_max":748,"o":"m 94 738 l 278 738 l 278 663 q 497 757 390 757 q 673 690 599 757 q 748 488 748 624 l 748 -270 l 565 -270 l 565 323 q 559 474 565 424 q 522 556 553 524 q 439 588 491 588 q 343 555 381 588 q 292 469 306 522 q 278 296 278 416 l 278 0 l 94 0 l 94 738 m 513 1112 l 484 852 l 351 852 l 321 1112 l 513 1112 z "},"ί":{"ha":333,"x_min":71,"x_max":262,"o":"m 73 738 l 259 738 l 259 0 l 73 0 l 73 738 m 262 1112 l 233 852 l 100 852 l 71 1112 l 262 1112 z "},"ΰ":{"ha":833,"x_min":75,"x_max":776,"o":"m 75 739 l 259 739 l 259 391 q 298 203 259 254 q 420 153 338 153 q 593 355 593 153 q 410 606 593 517 l 510 760 q 776 353 776 613 q 681 87 776 193 q 420 -19 587 -19 q 234 20 309 -19 q 117 138 159 59 q 75 374 75 217 l 75 739 m 513 1112 l 484 852 l 351 852 l 321 1112 l 513 1112 m 302 941 q 276 879 302 904 q 214 853 251 853 q 152 879 177 853 q 126 941 126 904 q 152 1003 126 977 q 214 1028 177 1028 q 276 1003 250 1029 q 302 941 302 978 m 707 941 q 682 879 707 904 q 620 853 656 853 q 558 879 583 853 q 532 941 532 904 q 558 1003 532 977 q 620 1028 583 1028 q 682 1003 656 1029 q 707 941 708 978 z "},"α":{"ha":917,"x_min":60,"x_max":823,"o":"m 639 738 l 823 738 l 823 0 l 639 0 l 639 78 q 530 4 585 26 q 412 -19 475 -19 q 164 92 269 -19 q 60 368 60 203 q 161 648 60 538 q 406 757 262 757 q 531 732 473 757 q 639 656 589 707 l 639 738 m 444 586 q 301 525 358 586 q 244 370 244 465 q 302 212 244 274 q 445 151 360 151 q 590 211 532 151 q 648 370 648 272 q 590 526 648 467 q 444 586 532 586 z "},"β":{"ha":859,"x_min":88,"x_max":802,"o":"m 273 56 l 273 -270 l 88 -270 l 88 727 q 172 956 88 869 q 395 1042 255 1042 q 604 971 525 1042 q 683 793 683 901 q 574 607 683 686 q 802 326 802 538 q 709 76 802 170 q 467 -18 616 -18 q 273 56 345 -18 m 358 486 l 358 642 q 498 772 498 663 q 472 844 498 816 q 402 872 446 872 q 273 692 273 872 l 273 328 q 317 199 273 246 q 444 151 361 151 q 569 194 520 151 q 617 307 617 237 q 363 486 617 486 l 358 486 z "},"γ":{"ha":778,"x_min":14,"x_max":763,"o":"m 481 77 l 481 -270 l 296 -270 l 296 77 l 14 738 l 203 738 l 389 302 l 575 738 l 763 738 l 481 77 z "},"δ":{"ha":833,"x_min":58,"x_max":775,"o":"m 269 609 q 171 787 171 686 q 257 974 171 907 q 480 1042 344 1042 q 689 1013 568 1042 l 641 846 q 488 869 550 869 q 355 789 355 869 q 395 717 355 743 q 526 656 434 692 q 775 326 775 559 q 670 81 775 180 q 416 -19 566 -19 q 163 79 268 -19 q 58 312 58 178 q 269 609 58 522 m 416 501 q 293 449 344 501 q 242 323 242 397 q 292 199 242 250 q 416 149 342 149 q 541 199 491 149 q 591 323 591 250 q 539 450 591 398 q 416 501 488 501 m 416 669 z "},"ε":{"ha":608,"x_min":58,"x_max":597,"o":"m 597 65 q 349 -19 499 -19 q 140 42 222 -19 q 58 210 58 103 q 196 394 58 343 q 93 550 93 454 q 164 701 93 645 q 342 757 235 757 q 555 681 460 757 l 482 553 q 368 597 414 597 q 307 575 331 597 q 283 519 283 553 q 376 445 283 445 l 412 445 l 412 313 l 364 313 q 294 289 322 313 q 267 227 267 264 q 295 167 267 189 q 370 145 324 145 q 514 207 435 145 l 597 65 z "},"ζ":{"ha":661,"x_min":52,"x_max":661,"o":"m 231 -267 l 270 -103 q 388 -124 322 -124 q 480 -64 480 -124 q 433 -6 480 -21 q 222 59 297 25 q 99 170 146 92 q 52 361 52 248 q 126 591 52 481 q 389 850 201 702 l 113 850 l 113 1023 l 645 1023 l 645 869 q 336 603 435 721 q 236 368 236 485 q 273 249 236 283 q 417 186 311 214 q 616 88 572 144 q 661 -53 661 31 q 585 -228 661 -166 q 387 -289 510 -289 q 231 -267 321 -289 z "},"η":{"ha":833,"x_min":94,"x_max":748,"o":"m 94 738 l 278 738 l 278 663 q 497 757 390 757 q 673 690 599 757 q 748 488 748 624 l 748 -270 l 565 -270 l 565 323 q 559 474 565 424 q 522 556 553 524 q 439 588 491 588 q 343 555 381 588 q 292 469 306 522 q 278 296 278 416 l 278 0 l 94 0 l 94 738 z "},"θ":{"ha":909,"x_min":58,"x_max":852,"o":"m 451 -19 q 159 121 261 -19 q 58 510 58 261 q 162 897 58 753 q 454 1042 266 1042 q 750 904 648 1042 q 852 512 852 766 q 749 119 852 257 q 451 -19 647 -19 m 246 597 l 661 597 q 453 869 636 869 q 246 597 273 869 m 660 424 l 246 424 q 452 153 274 153 q 660 424 633 153 z "},"ι":{"ha":333,"x_min":73,"x_max":259,"o":"m 73 738 l 259 738 l 259 0 l 73 0 l 73 738 z "},"κ":{"ha":806,"x_min":95,"x_max":823,"o":"m 95 739 l 280 739 l 280 433 l 553 738 l 785 738 l 467 384 l 823 0 l 593 0 l 280 340 l 280 0 l 95 0 l 95 739 z "},"λ":{"ha":806,"x_min":12,"x_max":794,"o":"m 794 0 l 604 0 l 393 463 l 201 0 l 12 0 l 292 683 l 134 1023 l 325 1023 l 794 0 z "},"μ":{"ha":833,"x_min":90,"x_max":744,"o":"m 744 0 l 559 0 l 559 75 q 379 -13 471 -13 q 273 30 311 -13 l 273 -270 l 90 -270 l 90 738 l 273 738 l 273 414 q 279 264 273 314 q 316 182 285 214 q 399 150 347 150 q 494 183 456 150 q 546 269 532 216 q 559 441 559 322 l 559 738 l 744 738 l 744 0 z "},"ν":{"ha":778,"x_min":14,"x_max":763,"o":"m 14 738 l 203 738 l 389 302 l 575 738 l 763 738 l 449 0 l 329 0 l 14 738 z "},"ξ":{"ha":661,"x_min":52,"x_max":661,"o":"m 231 -266 l 270 -103 q 389 -124 328 -124 q 480 -64 480 -124 q 457 -24 480 -37 q 334 14 435 -12 q 52 312 52 81 q 222 591 52 497 q 102 797 102 664 q 189 979 102 916 q 420 1042 276 1042 q 637 1010 526 1042 l 587 845 q 414 868 501 868 q 287 770 287 868 q 341 687 287 717 q 481 657 395 657 l 581 657 l 581 484 l 428 484 q 287 444 338 484 q 236 330 236 404 q 273 239 236 269 q 420 180 309 209 q 619 83 577 138 q 661 -53 661 28 q 585 -228 661 -167 q 384 -289 509 -289 q 231 -266 316 -289 z "},"ο":{"ha":889,"x_min":58,"x_max":831,"o":"m 440 757 q 636 705 545 757 q 780 563 728 652 q 831 370 831 473 q 780 174 831 265 q 638 32 728 83 q 441 -19 549 -19 q 170 94 282 -19 q 58 368 58 207 q 184 656 58 541 q 440 757 296 757 m 443 583 q 299 523 357 583 q 242 369 242 463 q 299 213 242 273 q 442 153 355 153 q 587 214 529 153 q 644 369 644 274 q 588 523 644 464 q 443 583 531 583 z "},"π":{"ha":937,"x_min":41,"x_max":897,"o":"m 897 565 l 774 565 l 774 0 l 590 0 l 590 565 l 340 565 l 340 0 l 156 0 l 156 565 l 41 565 l 41 738 l 897 738 l 897 565 z "},"ρ":{"ha":906,"x_min":75,"x_max":848,"o":"m 260 86 l 260 -270 l 75 -270 l 75 368 q 186 643 75 529 q 457 757 297 757 q 733 644 618 757 q 848 370 848 532 q 747 91 848 201 q 488 -19 646 -19 q 260 86 361 -19 m 259 369 q 314 214 259 275 q 459 153 370 153 q 605 214 548 153 q 661 369 661 275 q 606 523 661 463 q 460 583 550 583 q 316 523 373 583 q 259 369 259 463 z "},"ς":{"ha":813,"x_min":58,"x_max":794,"o":"m 794 589 l 640 504 q 454 585 556 585 q 303 535 361 585 q 245 395 245 485 q 293 267 245 315 q 470 182 342 219 q 665 85 616 140 q 713 -53 713 30 q 638 -228 713 -166 q 440 -289 563 -289 q 283 -267 374 -289 l 323 -103 q 441 -124 373 -124 q 513 -111 493 -124 q 533 -64 533 -97 q 431 3 533 -21 q 144 140 231 50 q 58 377 58 231 q 168 655 58 554 q 461 757 278 757 q 649 712 557 757 q 794 589 740 667 z "},"σ":{"ha":996,"x_min":58,"x_max":955,"o":"m 955 565 l 770 565 q 831 370 831 498 q 720 96 831 210 q 441 -19 608 -19 q 169 94 281 -19 q 58 368 58 206 q 172 645 58 533 q 440 757 287 757 q 562 738 503 757 l 955 738 l 955 565 m 443 583 q 298 522 354 583 q 242 369 242 460 q 297 214 242 275 q 442 153 353 153 q 588 214 531 153 q 644 369 644 275 q 589 523 644 463 q 443 583 533 583 m 889 0 z "},"τ":{"ha":578,"x_min":41,"x_max":537,"o":"m 537 565 l 381 565 l 381 0 l 197 0 l 197 565 l 41 565 l 41 738 l 537 738 l 537 565 z "},"υ":{"ha":833,"x_min":75,"x_max":776,"o":"m 75 739 l 259 739 l 259 391 q 298 203 259 254 q 420 153 338 153 q 593 355 593 153 q 410 606 593 517 l 510 760 q 776 353 776 613 q 681 87 776 193 q 420 -19 587 -19 q 234 20 309 -19 q 117 138 159 59 q 75 374 75 217 l 75 739 z "},"φ":{"ha":1107,"x_min":58,"x_max":1049,"o":"m 642 -16 l 642 -270 l 458 -270 l 458 -15 q 58 370 58 26 q 131 587 58 486 q 335 751 203 688 l 387 572 q 242 368 242 488 q 293 225 242 275 q 458 157 343 176 l 458 752 q 552 757 510 757 q 917 655 784 757 q 1049 370 1049 554 q 642 -16 1049 41 m 642 581 l 642 157 q 865 368 865 187 q 642 581 865 567 z "},"χ":{"ha":778,"x_min":1,"x_max":777,"o":"m 746 738 l 488 262 l 777 -270 l 572 -270 l 387 90 l 203 -270 l 1 -270 l 288 259 l 27 738 l 232 738 l 388 431 l 543 738 l 746 738 z "},"ψ":{"ha":1058,"x_min":75,"x_max":983,"o":"m 621 -15 l 621 -270 l 437 -270 l 437 -15 q 75 377 75 26 l 75 738 l 259 738 l 259 426 q 304 221 259 267 q 437 164 349 175 l 437 738 l 621 738 l 621 163 q 765 235 732 179 q 799 426 799 292 l 799 738 l 983 738 l 983 371 q 621 -15 983 27 z "},"ω":{"ha":1191,"x_min":56,"x_max":1135,"o":"m 595 90 q 392 -19 527 -19 q 144 77 233 -19 q 56 340 56 172 q 171 636 56 523 q 485 759 286 749 l 499 584 q 240 338 240 551 q 385 148 240 148 q 504 335 504 148 l 504 424 l 686 424 l 686 335 q 806 148 686 148 q 951 338 951 148 q 888 508 951 452 q 692 584 826 565 l 706 759 q 1019 636 903 749 q 1135 340 1135 524 q 1046 77 1135 172 q 799 -19 958 -19 q 595 90 655 -19 z "},"ϊ":{"ha":333,"x_min":-81,"x_max":414,"o":"m 73 738 l 259 738 l 259 0 l 73 0 l 73 738 m 16 1067 q 85 1038 57 1067 q 114 970 114 1010 q 85 901 114 929 q 16 872 57 872 q -52 901 -24 872 q -81 970 -81 929 q -52 1038 -81 1010 q 16 1067 -24 1067 m 317 1067 q 386 1038 357 1067 q 414 970 414 1010 q 386 901 414 929 q 317 872 357 872 q 248 901 277 872 q 220 970 220 929 q 248 1038 220 1010 q 317 1067 277 1067 z "},"ϋ":{"ha":833,"x_min":75,"x_max":776,"o":"m 75 739 l 259 739 l 259 391 q 298 203 259 254 q 420 153 338 153 q 593 355 593 153 q 410 606 593 517 l 510 760 q 776 353 776 613 q 681 87 776 193 q 420 -19 587 -19 q 234 20 309 -19 q 117 138 159 59 q 75 374 75 217 l 75 739 m 266 1067 q 335 1038 307 1067 q 363 970 363 1010 q 335 901 363 929 q 266 872 307 872 q 197 901 226 872 q 169 970 169 929 q 197 1038 169 1010 q 266 1067 226 1067 m 566 1067 q 635 1038 607 1067 q 664 970 664 1010 q 635 901 664 929 q 566 872 607 872 q 498 901 526 872 q 469 970 469 929 q 498 1038 469 1010 q 566 1067 526 1067 z "},"ό":{"ha":889,"x_min":58,"x_max":831,"o":"m 440 757 q 636 705 545 757 q 780 563 728 652 q 831 370 831 473 q 780 174 831 265 q 638 32 728 83 q 441 -19 549 -19 q 170 94 282 -19 q 58 368 58 207 q 184 656 58 541 q 440 757 296 757 m 443 583 q 299 523 357 583 q 242 369 242 463 q 299 213 242 273 q 442 153 355 153 q 587 214 529 153 q 644 369 644 274 q 588 523 644 464 q 443 583 531 583 m 541 1112 l 511 852 l 378 852 l 349 1112 l 541 1112 z "},"ύ":{"ha":833,"x_min":75,"x_max":776,"o":"m 75 739 l 259 739 l 259 391 q 298 203 259 254 q 420 153 338 153 q 593 355 593 153 q 410 606 593 517 l 510 760 q 776 353 776 613 q 681 87 776 193 q 420 -19 587 -19 q 234 20 309 -19 q 117 138 159 59 q 75 374 75 217 l 75 739 m 513 1112 l 484 852 l 351 852 l 321 1112 l 513 1112 z "},"ώ":{"ha":1191,"x_min":56,"x_max":1135,"o":"m 595 90 q 392 -19 527 -19 q 144 77 233 -19 q 56 340 56 172 q 171 636 56 523 q 485 759 286 749 l 499 584 q 240 338 240 551 q 385 148 240 148 q 504 335 504 148 l 504 424 l 686 424 l 686 335 q 806 148 686 148 q 951 338 951 148 q 888 508 951 452 q 692 584 826 565 l 706 759 q 1019 636 903 749 q 1135 340 1135 524 q 1046 77 1135 172 q 799 -19 958 -19 q 595 90 655 -19 m 691 1112 l 662 852 l 529 852 l 499 1112 l 691 1112 z "},"Ё":{"ha":722,"x_min":115,"x_max":659,"o":"m 115 998 l 659 998 l 659 812 l 303 812 l 303 631 l 659 631 l 659 449 l 303 449 l 303 186 l 659 186 l 659 0 l 115 0 l 115 998 m 235 1269 q 304 1240 276 1269 q 333 1172 333 1212 q 304 1103 333 1131 q 235 1074 276 1074 q 167 1103 195 1074 q 138 1172 138 1131 q 167 1240 138 1212 q 235 1269 195 1269 m 536 1269 q 605 1240 576 1269 q 633 1172 633 1212 q 605 1103 633 1131 q 536 1074 576 1074 q 467 1103 496 1074 q 439 1172 439 1131 q 467 1240 439 1212 q 536 1269 496 1269 z "},"Ђ":{"ha":958,"x_min":14,"x_max":907,"o":"m 386 0 l 193 0 l 193 810 l 14 810 l 14 998 l 565 998 l 565 810 l 386 810 l 386 621 l 467 621 q 726 592 637 621 q 861 486 815 563 q 907 291 907 408 q 846 63 907 150 q 667 -23 786 -23 q 485 9 591 -23 l 543 168 q 616 151 587 151 q 712 281 712 151 q 683 383 712 348 q 603 428 653 418 q 450 437 553 437 l 386 437 l 386 0 z "},"Ѓ":{"ha":643,"x_min":113,"x_max":688,"o":"m 113 998 l 608 998 l 608 812 l 301 812 l 301 0 l 113 0 l 113 998 m 469 1341 l 688 1341 l 439 1075 l 307 1075 l 469 1341 z "},"Є":{"ha":1083,"x_min":65,"x_max":1031,"o":"m 899 300 l 1027 166 q 809 13 911 51 q 594 -25 707 -25 q 211 125 356 -25 q 65 500 65 275 q 224 879 65 735 q 597 1023 384 1023 q 834 970 718 1023 q 1031 822 951 918 l 899 695 q 593 838 766 838 q 373 759 467 838 q 264 577 278 680 l 647 577 l 647 404 l 264 404 q 395 216 303 275 q 597 157 488 157 q 899 300 760 157 z "},"Ѕ":{"ha":722,"x_min":28,"x_max":654,"o":"m 637 862 l 496 738 q 346 841 422 841 q 285 821 309 841 q 261 776 261 801 q 278 728 261 751 q 417 600 301 699 q 549 486 526 509 q 630 374 606 427 q 654 258 654 321 q 570 55 654 135 q 349 -25 485 -25 q 163 27 242 -25 q 28 191 84 79 l 187 288 q 353 155 259 155 q 435 184 401 155 q 468 250 468 212 q 443 317 468 283 q 332 421 418 351 q 122 626 170 554 q 75 770 75 699 q 154 948 75 874 q 349 1023 233 1023 q 491 988 423 1023 q 637 862 558 954 z "},"І":{"ha":389,"x_min":100,"x_max":289,"o":"m 100 998 l 289 998 l 289 0 l 100 0 l 100 998 z "},"Ї":{"ha":389,"x_min":-53,"x_max":442,"o":"m 100 998 l 289 998 l 289 0 l 100 0 l 100 998 m 44 1269 q 113 1240 85 1269 q 142 1172 142 1212 q 113 1103 142 1131 q 44 1074 85 1074 q -24 1103 4 1074 q -53 1172 -53 1131 q -24 1240 -53 1212 q 44 1269 4 1269 m 345 1269 q 414 1240 385 1269 q 442 1172 442 1212 q 414 1103 442 1131 q 345 1074 385 1074 q 276 1103 304 1074 q 248 1172 248 1131 q 276 1240 248 1212 q 345 1269 304 1269 z "},"Ј":{"ha":667,"x_min":26,"x_max":553,"o":"m 362 998 l 553 998 l 553 336 q 528 114 553 178 q 445 13 503 50 q 307 -25 387 -25 q 26 119 142 -25 l 163 248 q 240 178 208 196 q 302 161 272 161 q 347 186 332 161 q 362 300 362 212 l 362 998 z "},"Љ":{"ha":1379,"x_min":1,"x_max":1327,"o":"m 736 621 l 935 621 q 1136 597 1061 621 q 1269 493 1211 573 q 1327 302 1327 412 q 1272 121 1327 197 q 1147 23 1216 45 q 962 0 1078 0 l 760 0 l 484 733 l 203 0 l 1 0 l 386 998 l 578 998 l 736 621 m 791 452 l 896 181 l 941 181 q 1099 210 1059 181 q 1139 310 1139 239 q 932 452 1139 452 l 791 452 m 966 0 z "},"Њ":{"ha":1316,"x_min":113,"x_max":1265,"o":"m 640 0 l 640 439 l 306 439 l 306 0 l 113 0 l 113 998 l 306 998 l 306 621 l 640 621 l 640 998 l 831 998 l 831 621 l 884 621 q 1172 529 1079 621 q 1265 304 1265 437 q 1216 130 1265 201 q 1101 29 1166 58 q 922 0 1035 0 l 640 0 m 831 439 l 831 181 l 880 181 q 1038 213 998 181 q 1078 307 1078 244 q 903 440 1078 440 l 871 439 l 831 439 z "},"Ћ":{"ha":951,"x_min":14,"x_max":886,"o":"m 386 810 l 386 621 l 449 621 q 653 607 588 621 q 778 546 719 593 q 862 433 838 499 q 886 258 886 366 l 886 0 l 694 0 l 694 255 q 647 400 694 363 q 466 437 600 437 l 386 437 l 386 0 l 193 0 l 193 810 l 14 810 l 14 998 l 565 998 l 565 810 l 386 810 z "},"Ќ":{"ha":859,"x_min":113,"x_max":838,"o":"m 113 998 l 305 998 l 305 654 l 576 998 l 804 998 l 456 553 l 838 0 l 613 0 l 305 443 l 305 0 l 113 0 l 113 998 m 509 1341 l 728 1341 l 480 1075 l 347 1075 l 509 1341 z "},"Ў":{"ha":890,"x_min":17,"x_max":876,"o":"m 393 228 l 39 998 l 253 998 l 488 441 l 680 998 l 876 998 l 610 284 q 461 39 541 101 q 290 -23 380 -23 q 17 122 142 -23 l 142 248 q 289 161 216 161 q 342 176 321 161 q 393 228 363 192 m 186 1265 l 336 1265 q 385 1223 353 1237 q 462 1209 416 1209 q 545 1225 508 1209 q 588 1265 570 1236 l 738 1265 q 655 1126 725 1179 q 461 1074 586 1074 q 320 1098 377 1074 q 229 1164 264 1121 q 186 1265 195 1208 z "},"Џ":{"ha":945,"x_min":113,"x_max":831,"o":"m 113 0 l 113 998 l 306 998 l 306 171 l 639 171 l 639 998 l 831 998 l 831 0 l 561 0 l 561 -149 l 383 -149 l 383 0 l 113 0 z "},"А":{"ha":1027,"x_min":33,"x_max":994,"o":"m 418 998 l 610 998 l 994 0 l 797 0 l 719 205 l 312 205 l 231 0 l 33 0 l 418 998 m 515 733 l 382 391 l 648 391 l 515 733 z "},"Б":{"ha":790,"x_min":113,"x_max":737,"o":"m 113 0 l 113 998 l 635 998 l 635 812 l 303 812 l 303 621 l 345 621 q 551 593 471 621 q 684 489 631 566 q 737 307 737 412 q 697 140 737 202 q 587 39 657 78 q 393 0 517 0 l 113 0 m 303 452 l 303 181 l 351 181 q 515 215 481 181 q 550 307 550 249 q 342 452 550 452 l 303 452 z "},"В":{"ha":806,"x_min":114,"x_max":738,"o":"m 114 0 l 114 998 l 271 998 q 470 980 407 998 q 612 892 559 956 q 665 740 665 827 q 641 636 665 683 q 563 549 617 590 q 696 443 654 507 q 738 291 738 378 q 694 138 738 207 q 583 34 651 68 q 393 0 514 0 l 114 0 m 304 817 l 304 606 l 345 606 q 448 635 414 606 q 481 715 481 665 q 450 789 481 762 q 353 817 418 817 l 304 817 m 304 437 l 304 181 l 351 181 q 510 211 469 181 q 551 298 551 241 q 503 399 551 362 q 343 437 455 437 l 304 437 z "},"Г":{"ha":643,"x_min":113,"x_max":608,"o":"m 113 998 l 608 998 l 608 812 l 301 812 l 301 0 l 113 0 l 113 998 z "},"Д":{"ha":1071,"x_min":8,"x_max":1062,"o":"m 438 998 l 630 998 l 951 178 l 1062 178 l 1062 -149 l 878 -149 l 878 0 l 192 0 l 192 -149 l 8 -149 l 8 178 l 119 178 l 438 998 m 536 733 l 317 178 l 753 178 l 536 733 z "},"Е":{"ha":722,"x_min":115,"x_max":659,"o":"m 115 998 l 659 998 l 659 812 l 303 812 l 303 631 l 659 631 l 659 449 l 303 449 l 303 186 l 659 186 l 659 0 l 115 0 l 115 998 z "},"Ж":{"ha":1299,"x_min":20,"x_max":1278,"o":"m 553 443 l 526 471 l 245 0 l 20 0 l 389 577 l 54 998 l 283 998 l 553 641 l 553 998 l 745 998 l 745 641 l 1015 998 l 1244 998 l 909 577 l 1278 0 l 1053 0 l 772 471 l 745 443 l 745 0 l 553 0 l 553 443 z "},"З":{"ha":742,"x_min":16,"x_max":674,"o":"m 161 260 q 338 155 237 155 q 446 193 405 155 q 488 294 488 231 q 447 396 488 355 q 280 437 407 437 l 239 437 l 239 606 l 280 606 q 394 641 355 606 q 433 734 433 675 q 401 819 433 787 q 315 850 368 850 q 184 787 251 850 l 72 911 q 222 1009 162 993 q 334 1025 283 1025 q 539 954 456 1025 q 622 762 622 882 q 603 657 622 708 q 499 549 585 606 q 674 283 674 471 q 581 59 674 144 q 341 -25 488 -25 q 176 8 249 -25 q 16 153 102 42 l 161 260 z "},"И":{"ha":954,"x_min":113,"x_max":841,"o":"m 841 998 l 841 0 l 651 0 l 651 625 l 279 0 l 113 0 l 113 998 l 303 998 l 303 353 l 681 998 l 841 998 z "},"Й":{"ha":954,"x_min":113,"x_max":841,"o":"m 841 998 l 841 0 l 651 0 l 651 625 l 279 0 l 113 0 l 113 998 l 303 998 l 303 353 l 681 998 l 841 998 m 208 1265 l 357 1265 q 407 1223 375 1237 q 484 1209 438 1209 q 567 1225 530 1209 q 610 1265 591 1236 l 760 1265 q 677 1126 747 1179 q 483 1074 608 1074 q 342 1098 399 1074 q 251 1164 286 1121 q 208 1265 216 1208 z "},"К":{"ha":861,"x_min":115,"x_max":840,"o":"m 115 998 l 307 998 l 307 654 l 578 998 l 806 998 l 458 553 l 840 0 l 615 0 l 307 443 l 307 0 l 115 0 l 115 998 z "},"Л":{"ha":964,"x_min":1,"x_max":962,"o":"m 760 0 l 484 733 l 203 0 l 1 0 l 386 998 l 578 998 l 962 0 l 760 0 z "},"М":{"ha":1250,"x_min":38,"x_max":1212,"o":"m 210 998 l 396 998 l 627 302 l 861 998 l 1044 998 l 1212 0 l 1029 0 l 922 630 l 709 0 l 542 0 l 332 630 l 223 0 l 38 0 l 210 998 z "},"Н":{"ha":945,"x_min":113,"x_max":831,"o":"m 113 998 l 306 998 l 306 621 l 640 621 l 640 998 l 831 998 l 831 0 l 640 0 l 640 437 l 306 437 l 306 0 l 113 0 l 113 998 z "},"О":{"ha":1166,"x_min":65,"x_max":1101,"o":"m 585 1023 q 949 869 797 1023 q 1101 496 1101 716 q 951 126 1101 277 q 587 -25 801 -25 q 214 130 362 -25 q 65 499 65 286 q 134 762 65 642 q 325 952 203 882 q 585 1023 446 1023 m 583 837 q 351 741 445 837 q 256 496 256 644 q 375 234 256 330 q 587 159 467 159 q 817 256 722 159 q 911 497 911 354 q 816 738 911 640 q 583 837 720 837 z "},"П":{"ha":945,"x_min":113,"x_max":831,"o":"m 113 998 l 831 998 l 831 0 l 640 0 l 640 820 l 306 820 l 306 0 l 113 0 l 113 998 z "},"Р":{"ha":778,"x_min":113,"x_max":706,"o":"m 113 998 l 315 998 q 550 967 478 998 q 664 870 623 937 q 706 708 706 802 q 651 534 706 604 q 503 438 597 465 q 303 422 448 422 l 303 0 l 113 0 l 113 998 m 303 608 l 363 608 q 463 618 435 608 q 506 651 490 628 q 522 708 522 675 q 477 792 522 766 q 357 812 445 812 l 303 812 l 303 608 z "},"С":{"ha":1083,"x_min":64,"x_max":1031,"o":"m 1031 822 l 898 695 q 593 838 762 838 q 352 741 450 838 q 254 500 254 643 q 297 323 254 400 q 420 201 340 245 q 596 157 499 157 q 747 188 679 157 q 898 300 816 219 l 1027 166 q 818 17 916 58 q 593 -25 720 -25 q 213 122 361 -25 q 64 500 64 270 q 132 766 64 650 q 325 952 199 882 q 596 1023 451 1023 q 834 970 720 1023 q 1031 822 948 918 z "},"Т":{"ha":583,"x_min":16,"x_max":567,"o":"m 16 998 l 567 998 l 567 810 l 385 810 l 385 0 l 193 0 l 193 810 l 16 810 l 16 998 z "},"У":{"ha":890,"x_min":17,"x_max":876,"o":"m 393 228 l 39 998 l 253 998 l 488 441 l 680 998 l 876 998 l 610 284 q 461 39 541 101 q 290 -23 380 -23 q 17 122 142 -23 l 142 248 q 289 161 216 161 q 342 176 321 161 q 393 228 363 192 z "},"Ф":{"ha":1047,"x_min":33,"x_max":1015,"o":"m 613 998 l 613 869 l 655 869 q 1015 572 1015 869 q 986 430 1015 488 q 904 333 958 371 q 791 282 849 294 q 613 271 733 271 l 613 0 l 422 0 l 422 271 q 216 296 296 271 q 84 391 136 321 q 33 567 33 461 q 74 735 33 667 q 191 836 115 804 q 422 869 267 869 l 422 998 l 613 998 m 422 694 l 378 694 q 245 662 278 694 q 212 568 212 629 q 252 467 212 495 q 370 439 292 439 l 422 439 l 422 694 m 613 694 l 613 439 l 675 439 q 803 475 772 439 q 834 569 834 511 q 801 661 834 628 q 669 694 768 694 l 613 694 z "},"Х":{"ha":945,"x_min":28,"x_max":916,"o":"m 49 998 l 262 998 l 471 678 l 682 998 l 896 998 l 578 515 l 916 0 l 702 0 l 471 351 l 243 0 l 28 0 l 365 515 l 49 998 z "},"Ц":{"ha":1042,"x_min":113,"x_max":1034,"o":"m 113 0 l 113 998 l 306 998 l 306 171 l 640 171 l 640 998 l 831 998 l 831 171 l 1034 171 l 1034 -149 l 857 -149 l 857 0 l 113 0 z "},"Ч":{"ha":856,"x_min":50,"x_max":742,"o":"m 551 437 l 487 437 q 284 451 349 437 q 159 512 218 465 q 75 624 99 558 q 50 800 50 690 l 50 998 l 243 998 l 243 803 q 279 661 243 701 q 435 621 316 621 l 551 621 l 551 998 l 742 998 l 742 0 l 551 0 l 551 437 z "},"Ш":{"ha":1340,"x_min":113,"x_max":1227,"o":"m 572 171 l 572 998 l 764 998 l 764 171 l 1035 171 l 1035 998 l 1227 998 l 1227 0 l 113 0 l 113 998 l 306 998 l 306 171 l 572 171 z "},"Щ":{"ha":1422,"x_min":97,"x_max":1415,"o":"m 1020 171 l 1020 998 l 1211 998 l 1211 171 l 1415 171 l 1415 -149 l 1237 -149 l 1237 0 l 97 0 l 97 998 l 290 998 l 290 171 l 556 171 l 556 998 l 747 998 l 747 171 l 1020 171 m 1340 0 z "},"Ъ":{"ha":907,"x_min":8,"x_max":855,"o":"m 231 0 l 231 819 l 8 819 l 8 998 l 420 998 l 420 621 l 463 621 q 659 594 581 621 q 797 489 738 567 q 855 303 855 411 q 804 129 855 202 q 687 28 753 56 q 511 0 621 0 l 231 0 m 420 452 l 420 181 l 469 181 q 621 209 574 181 q 668 310 668 237 q 460 452 668 452 l 420 452 z "},"Ы":{"ha":1177,"x_min":113,"x_max":1063,"o":"m 875 998 l 1063 998 l 1063 0 l 875 0 l 875 998 m 113 0 l 113 998 l 303 998 l 303 621 l 345 621 q 542 594 463 621 q 679 489 621 566 q 736 304 736 412 q 687 130 736 201 q 572 30 637 59 q 393 0 507 0 l 113 0 m 303 452 l 303 181 l 351 181 q 509 210 469 181 q 549 310 549 239 q 342 452 549 452 l 303 452 z "},"Ь":{"ha":789,"x_min":113,"x_max":736,"o":"m 113 0 l 113 998 l 303 998 l 303 621 l 345 621 q 542 594 463 621 q 679 489 621 566 q 736 304 736 412 q 687 130 736 201 q 572 30 637 59 q 393 0 507 0 l 113 0 m 303 452 l 303 181 l 351 181 q 509 210 469 181 q 549 310 549 239 q 342 452 549 452 l 303 452 z "},"Э":{"ha":1083,"x_min":52,"x_max":1018,"o":"m 184 300 l 56 166 q 274 13 172 51 q 489 -25 376 -25 q 872 125 727 -25 q 1018 500 1018 275 q 859 879 1018 735 q 486 1023 699 1023 q 249 970 366 1023 q 52 822 132 918 l 184 695 q 490 838 317 838 q 710 759 616 838 q 819 577 805 680 l 436 577 l 436 404 l 819 404 q 688 216 780 275 q 486 157 595 157 q 184 300 323 157 z "},"Ю":{"ha":1527,"x_min":113,"x_max":1461,"o":"m 302 621 l 431 621 q 656 936 520 848 q 944 1023 792 1023 q 1305 872 1150 1023 q 1461 496 1461 721 q 1310 126 1461 277 q 946 -25 1160 -25 q 601 100 755 -25 q 431 437 447 225 l 302 437 l 302 0 l 113 0 l 113 998 l 302 998 l 302 621 m 1270 497 q 1177 735 1270 633 q 943 837 1084 837 q 712 743 809 837 q 616 496 616 648 q 715 252 616 345 q 946 159 814 159 q 1176 257 1081 159 q 1270 497 1270 355 z "},"Я":{"ha":815,"x_min":56,"x_max":702,"o":"m 702 998 l 702 0 l 512 0 l 512 401 l 465 401 l 264 0 l 56 0 l 282 433 q 85 694 85 489 q 106 822 85 768 q 165 914 127 876 q 254 969 203 951 q 334 990 304 987 q 500 998 364 993 l 702 998 m 512 587 l 512 812 l 460 812 q 357 803 389 812 q 307 767 326 795 q 287 697 287 739 q 326 611 287 635 q 452 587 366 587 l 512 587 z "},"а":{"ha":917,"x_min":60,"x_max":823,"o":"m 639 738 l 823 738 l 823 0 l 639 0 l 639 78 q 530 4 585 26 q 412 -19 475 -19 q 164 92 269 -19 q 60 368 60 203 q 161 648 60 538 q 406 757 262 757 q 531 732 473 757 q 639 656 589 707 l 639 738 m 444 586 q 301 525 358 586 q 244 370 244 465 q 302 212 244 274 q 445 151 360 151 q 590 211 532 151 q 648 370 648 272 q 590 526 648 467 q 444 586 532 586 z "},"б":{"ha":905,"x_min":58,"x_max":847,"o":"m 799 1038 l 799 863 q 645 854 720 854 q 441 842 509 852 q 320 793 372 831 q 246 705 268 755 q 220 562 224 655 q 494 753 300 753 q 742 649 637 753 q 847 378 847 544 q 734 94 847 208 q 456 -19 622 -19 q 219 64 321 -19 q 87 261 116 146 q 58 505 58 375 q 99 775 58 671 q 208 931 140 879 q 364 1001 275 983 q 625 1026 453 1019 q 799 1038 742 1031 m 660 369 q 605 522 660 461 q 458 583 549 583 q 315 522 372 583 q 258 369 258 460 q 314 213 258 273 q 458 154 371 154 q 602 213 543 154 q 660 369 660 273 m 245 7 z "},"в":{"ha":743,"x_min":94,"x_max":680,"o":"m 94 0 l 94 738 l 390 738 q 588 681 536 738 q 640 551 640 623 q 533 395 640 443 q 680 206 680 345 q 641 82 680 131 q 543 16 602 33 q 377 0 484 0 l 94 0 m 279 448 l 351 448 q 421 470 396 448 q 446 521 446 493 q 422 585 446 562 q 366 608 398 608 l 342 608 l 279 608 l 279 448 m 279 142 l 372 142 q 449 168 427 142 q 471 218 471 193 q 446 283 471 254 q 357 313 421 313 l 279 313 l 279 142 z "},"г":{"ha":555,"x_min":93,"x_max":524,"o":"m 93 738 l 524 738 l 524 562 l 279 562 l 279 0 l 93 0 l 93 738 z "},"д":{"ha":904,"x_min":24,"x_max":880,"o":"m 189 0 l 189 -128 l 24 -128 l 24 157 l 136 157 l 390 738 l 509 738 l 767 157 l 880 157 l 880 -128 l 704 -128 l 704 0 l 189 0 m 570 157 l 450 467 l 325 157 l 570 157 z "},"е":{"ha":889,"x_min":59,"x_max":833,"o":"m 833 315 l 238 315 q 307 190 251 237 q 450 144 363 144 q 628 216 553 144 l 784 143 q 644 21 726 60 q 451 -19 563 -19 q 168 91 277 -19 q 59 365 59 200 q 168 645 59 534 q 441 757 277 757 q 724 645 615 757 q 833 351 833 534 l 833 315 m 647 461 q 575 562 629 523 q 450 600 521 600 q 314 557 372 600 q 246 461 277 530 l 647 461 z "},"ж":{"ha":1120,"x_min":-18,"x_max":1137,"o":"m 467 237 l 448 260 l 228 0 l -18 0 l 315 378 l -14 738 l 212 738 l 467 462 l 467 738 l 652 738 l 652 462 l 907 738 l 1133 738 l 804 378 l 1137 0 l 892 0 l 672 260 l 652 237 l 652 0 l 467 0 l 467 237 z "},"з":{"ha":625,"x_min":33,"x_max":571,"o":"m 217 313 l 217 445 l 254 445 q 319 463 291 445 q 347 519 347 480 q 322 575 347 553 q 261 597 297 597 q 147 553 216 597 l 74 681 q 287 757 170 757 q 466 701 395 757 q 536 550 536 645 q 433 394 536 454 q 571 210 571 343 q 494 46 571 111 q 280 -19 416 -19 q 33 65 130 -19 l 135 194 q 260 145 201 145 q 335 168 307 145 q 363 227 363 191 q 337 287 363 261 q 265 313 311 313 l 217 313 z "},"и":{"ha":833,"x_min":93,"x_max":740,"o":"m 191 0 l 93 0 l 93 738 l 273 738 l 273 304 l 651 738 l 740 738 l 740 0 l 559 0 l 559 425 l 191 0 z "},"й":{"ha":833,"x_min":93,"x_max":740,"o":"m 191 0 l 93 0 l 93 738 l 273 738 l 273 304 l 651 738 l 740 738 l 740 0 l 559 0 l 559 425 l 191 0 m 147 1063 l 297 1063 q 346 1022 315 1036 q 423 1008 378 1008 q 507 1024 469 1008 q 549 1063 531 1035 l 699 1063 q 617 925 686 977 q 422 873 547 873 q 282 896 338 873 q 191 963 225 920 q 147 1063 156 1006 z "},"к":{"ha":746,"x_min":94,"x_max":764,"o":"m 94 738 l 279 738 l 279 462 l 534 738 l 760 738 l 431 378 l 764 0 l 518 0 l 298 260 l 279 237 l 279 0 l 94 0 l 94 738 z "},"л":{"ha":757,"x_min":4,"x_max":753,"o":"m 753 0 l 564 0 l 380 466 l 192 0 l 4 0 l 319 738 l 438 738 l 753 0 z "},"м":{"ha":1088,"x_min":9,"x_max":1078,"o":"m 545 273 l 772 738 l 894 738 l 1078 0 l 897 0 l 799 433 l 579 0 l 503 0 l 288 433 l 189 0 l 9 0 l 193 738 l 315 738 l 545 273 z "},"н":{"ha":833,"x_min":93,"x_max":740,"o":"m 279 472 l 554 472 l 554 738 l 740 738 l 740 0 l 554 0 l 554 306 l 279 306 l 279 0 l 93 0 l 93 738 l 279 738 l 279 472 z "},"о":{"ha":889,"x_min":58,"x_max":831,"o":"m 440 757 q 636 705 545 757 q 780 563 728 652 q 831 370 831 473 q 780 174 831 265 q 638 32 728 83 q 441 -19 549 -19 q 170 94 282 -19 q 58 368 58 207 q 184 656 58 541 q 440 757 296 757 m 443 583 q 299 523 357 583 q 242 369 242 463 q 299 213 242 273 q 442 153 355 153 q 587 214 529 153 q 644 369 644 274 q 588 523 644 464 q 443 583 531 583 z "},"п":{"ha":833,"x_min":93,"x_max":740,"o":"m 279 0 l 93 0 l 93 738 l 740 738 l 740 0 l 554 0 l 554 559 l 279 559 l 279 0 z "},"р":{"ha":917,"x_min":94,"x_max":857,"o":"m 277 738 l 277 656 q 386 732 328 707 q 511 757 444 757 q 756 648 655 757 q 857 368 857 538 q 753 92 857 203 q 505 -19 648 -19 q 387 4 441 -19 q 277 78 332 26 l 277 -270 l 94 -270 l 94 738 l 277 738 m 472 586 q 327 526 385 586 q 269 370 269 467 q 327 211 269 272 q 472 151 385 151 q 615 212 557 151 q 673 370 673 274 q 616 525 673 465 q 472 586 559 586 z "},"с":{"ha":889,"x_min":58,"x_max":816,"o":"m 816 589 l 662 504 q 576 567 618 549 q 477 585 534 585 q 309 523 373 585 q 245 363 245 460 q 307 210 245 269 q 469 150 368 150 q 662 235 593 150 l 808 135 q 473 -19 689 -19 q 168 96 278 -19 q 58 366 58 212 q 111 564 58 473 q 261 705 165 654 q 475 757 357 757 q 673 713 585 757 q 816 589 760 669 z "},"т":{"ha":743,"x_min":28,"x_max":715,"o":"m 28 738 l 715 738 l 715 562 l 471 562 l 471 0 l 285 0 l 285 562 l 28 562 l 28 738 z "},"у":{"ha":806,"x_min":12,"x_max":794,"o":"m 12 738 l 201 738 l 393 275 l 604 738 l 794 738 l 332 -270 l 140 -270 l 292 55 l 12 738 z "},"ф":{"ha":1400,"x_min":53,"x_max":1347,"o":"m 608 63 q 397 -21 511 -21 q 155 89 258 -21 q 53 365 53 199 q 153 646 53 538 q 392 754 252 754 q 608 669 517 754 l 608 1023 l 792 1023 l 792 669 q 1008 757 884 757 q 1174 710 1097 757 q 1299 576 1251 663 q 1347 368 1347 488 q 1243 90 1347 199 q 1004 -19 1140 -19 q 792 63 889 -19 l 792 -270 l 608 -270 l 608 63 m 1162 369 q 1108 524 1162 463 q 970 585 1055 585 q 842 527 897 585 q 787 361 787 469 q 840 205 787 262 q 970 149 892 149 q 1106 211 1051 149 q 1162 369 1162 273 m 614 362 q 589 481 614 435 q 524 555 565 528 q 431 583 483 583 q 290 520 341 583 q 239 368 239 456 q 294 210 239 273 q 430 148 349 148 q 561 204 508 148 q 614 362 614 260 z "},"х":{"ha":778,"x_min":1,"x_max":777,"o":"m 27 738 l 242 738 l 387 536 l 533 738 l 746 738 l 494 389 l 777 0 l 562 0 l 387 242 l 213 0 l 1 0 l 280 389 l 27 738 z "},"ц":{"ha":936,"x_min":93,"x_max":928,"o":"m 93 0 l 93 738 l 279 738 l 279 178 l 554 178 l 554 738 l 740 738 l 740 178 l 928 178 l 928 -130 l 751 -130 l 751 0 l 93 0 z "},"ч":{"ha":772,"x_min":33,"x_max":680,"o":"m 494 293 l 345 293 q 114 351 195 293 q 33 542 33 409 l 33 738 l 218 738 l 218 556 q 348 459 218 459 l 420 460 l 494 460 l 494 738 l 680 738 l 680 0 l 494 0 l 494 293 z "},"ш":{"ha":1251,"x_min":93,"x_max":1158,"o":"m 1158 0 l 93 0 l 93 738 l 279 738 l 279 178 l 532 178 l 532 738 l 718 738 l 718 178 l 972 178 l 972 738 l 1158 738 l 1158 0 z "},"щ":{"ha":1354,"x_min":93,"x_max":1346,"o":"m 1158 178 l 1346 178 l 1346 -130 l 1169 -130 l 1169 0 l 93 0 l 93 738 l 279 738 l 279 178 l 532 178 l 532 738 l 718 738 l 718 178 l 972 178 l 972 738 l 1158 738 l 1158 178 m 1251 0 z "},"ъ":{"ha":807,"x_min":14,"x_max":758,"o":"m 378 472 l 433 472 q 611 454 549 472 q 715 379 673 436 q 758 236 758 322 q 719 94 758 151 q 621 19 680 37 q 452 0 561 0 l 192 0 l 192 573 l 14 573 l 14 738 l 378 738 l 378 472 m 378 142 l 434 142 q 506 150 484 142 q 546 177 528 157 q 563 227 563 197 q 454 321 563 321 l 378 321 l 378 142 z "},"ы":{"ha":1067,"x_min":93,"x_max":973,"o":"m 279 472 l 334 472 q 512 454 450 472 q 616 379 574 436 q 659 236 659 322 q 621 94 659 151 q 522 19 582 37 q 353 0 462 0 l 93 0 l 93 738 l 279 738 l 279 472 m 279 142 l 335 142 q 408 150 385 142 q 447 177 430 157 q 464 227 464 197 q 355 321 464 321 l 279 321 l 279 142 m 788 738 l 973 738 l 973 0 l 788 0 l 788 738 z "},"ь":{"ha":708,"x_min":93,"x_max":659,"o":"m 279 472 l 334 472 q 512 454 450 472 q 616 379 574 436 q 659 236 659 322 q 621 94 659 151 q 522 19 582 37 q 353 0 462 0 l 93 0 l 93 738 l 279 738 l 279 472 m 279 142 l 335 142 q 408 150 385 142 q 447 177 430 157 q 464 227 464 197 q 355 321 464 321 l 279 321 l 279 142 z "},"э":{"ha":867,"x_min":51,"x_max":809,"o":"m 612 292 l 365 292 l 365 452 l 612 452 q 397 586 549 586 q 205 504 290 586 l 51 589 q 391 757 189 757 q 691 646 574 757 q 809 366 809 536 q 696 92 809 203 q 393 -19 584 -19 q 59 135 191 -19 l 205 235 q 400 147 273 147 q 612 292 553 147 m 623 369 z "},"ю":{"ha":1201,"x_min":93,"x_max":1143,"o":"m 279 0 l 93 0 l 93 738 l 279 738 l 279 446 l 377 446 q 519 674 411 592 q 753 757 627 757 q 1029 645 915 757 q 1143 370 1143 532 q 1032 96 1143 210 q 753 -19 921 -19 q 513 65 620 -19 q 377 276 406 150 l 279 276 l 279 0 m 957 369 q 900 523 957 464 q 755 583 844 583 q 611 521 668 583 q 555 370 555 460 q 611 213 555 273 q 755 154 668 154 q 899 213 840 154 q 957 369 957 273 z "},"я":{"ha":724,"x_min":14,"x_max":631,"o":"m 219 302 q 121 377 159 322 q 83 500 83 431 q 130 644 83 582 q 241 722 176 705 q 444 738 306 738 l 631 738 l 631 0 l 445 0 l 445 267 l 409 267 l 233 0 l 14 0 l 219 302 m 445 406 l 445 583 l 380 583 q 275 495 275 583 q 393 406 275 406 l 445 406 z "},"ё":{"ha":889,"x_min":59,"x_max":833,"o":"m 833 315 l 238 315 q 307 190 251 237 q 450 144 363 144 q 628 216 553 144 l 784 143 q 644 21 726 60 q 451 -19 563 -19 q 168 91 277 -19 q 59 365 59 200 q 168 645 59 534 q 441 757 277 757 q 724 645 615 757 q 833 351 833 534 l 833 315 m 647 461 q 575 562 629 523 q 450 600 521 600 q 314 557 372 600 q 246 461 277 530 l 647 461 m 294 1067 q 363 1038 335 1067 q 392 970 392 1010 q 363 901 392 929 q 294 872 335 872 q 226 901 254 872 q 197 970 197 929 q 226 1038 197 1010 q 294 1067 254 1067 m 595 1067 q 664 1038 635 1067 q 692 970 692 1010 q 664 901 692 929 q 595 872 635 872 q 526 901 555 872 q 498 970 498 929 q 526 1038 498 1010 q 595 1067 555 1067 z "},"ђ":{"ha":833,"x_min":-12,"x_max":750,"o":"m 277 663 q 499 757 380 757 q 673 692 595 757 q 750 488 750 628 l 750 0 q 738 -150 750 -79 q 671 -255 725 -220 q 555 -289 618 -289 q 416 -261 496 -289 l 416 -115 q 493 -136 458 -136 q 550 -110 533 -136 q 567 -14 567 -83 l 567 323 q 557 485 567 435 q 518 561 548 534 q 439 587 488 587 q 341 550 382 587 q 289 463 300 513 q 277 296 277 414 l 277 0 l 93 0 l 93 831 l -12 831 l -12 949 l 93 949 l 93 1023 l 277 1023 l 277 949 l 513 949 l 513 831 l 277 831 l 277 663 z "},"ѓ":{"ha":555,"x_min":93,"x_max":555,"o":"m 93 738 l 524 738 l 524 562 l 279 562 l 279 0 l 93 0 l 93 738 m 336 1141 l 555 1141 l 307 875 l 174 875 l 336 1141 z "},"є":{"ha":867,"x_min":58,"x_max":816,"o":"m 254 292 l 502 292 l 502 452 l 254 452 q 470 586 318 586 q 662 504 576 586 l 816 589 q 475 757 678 757 q 175 646 293 757 q 58 366 58 536 q 170 92 58 203 q 473 -19 283 -19 q 808 135 676 -19 l 662 235 q 467 147 594 147 q 254 292 314 147 m 244 369 z "},"ѕ":{"ha":611,"x_min":35,"x_max":559,"o":"m 545 635 l 431 520 q 304 589 361 589 q 255 576 273 589 q 237 543 237 563 q 249 516 237 528 q 304 481 260 503 l 372 448 q 519 340 479 395 q 559 211 559 285 q 487 47 559 113 q 293 -19 414 -19 q 35 107 132 -19 l 149 231 q 225 170 182 193 q 303 146 269 146 q 362 164 340 146 q 385 205 385 182 q 304 288 385 248 l 241 319 q 62 545 62 410 q 130 695 62 633 q 302 757 197 757 q 438 725 374 757 q 545 635 501 694 z "},"і":{"ha":333,"x_min":48,"x_max":285,"o":"m 166 1042 q 250 1006 215 1042 q 285 921 285 971 q 250 837 285 871 q 168 802 216 802 q 83 837 118 802 q 48 924 48 873 q 83 1007 48 972 q 166 1042 117 1042 m 73 738 l 259 738 l 259 0 l 73 0 l 73 738 z "},"ї":{"ha":333,"x_min":-81,"x_max":414,"o":"m 74 738 l 260 738 l 260 0 l 74 0 l 74 738 m 16 1067 q 85 1038 57 1067 q 114 970 114 1010 q 85 901 114 929 q 16 872 57 872 q -52 901 -24 872 q -81 970 -81 929 q -52 1038 -81 1010 q 16 1067 -24 1067 m 317 1067 q 386 1038 357 1067 q 414 970 414 1010 q 386 901 414 929 q 317 872 357 872 q 248 901 277 872 q 220 970 220 929 q 248 1038 220 1010 q 317 1067 277 1067 z "},"ј":{"ha":361,"x_min":-59,"x_max":300,"o":"m 180 1042 q 265 1006 230 1042 q 300 921 300 971 q 265 836 300 871 q 182 801 231 801 q 98 837 133 801 q 63 924 63 873 q 97 1007 63 972 q 180 1042 132 1042 m 88 738 l 273 738 l 273 -24 q 253 -181 273 -130 q 187 -261 232 -233 q 79 -289 142 -289 q -59 -261 24 -289 l -59 -115 q 18 -136 -16 -136 q 71 -115 53 -136 q 88 -38 88 -94 l 88 738 z "},"љ":{"ha":1084,"x_min":4,"x_max":1034,"o":"m 564 0 l 380 466 l 192 0 l 4 0 l 319 738 l 438 738 l 549 472 l 709 472 q 885 452 819 472 q 992 375 951 431 q 1034 234 1034 318 q 995 93 1034 150 q 897 18 956 37 q 729 0 837 0 l 564 0 m 687 142 l 710 142 q 783 150 760 142 q 822 177 805 157 q 840 227 840 197 q 730 322 840 322 l 612 322 l 687 142 m 747 0 z "},"њ":{"ha":1173,"x_min":93,"x_max":1121,"o":"m 554 0 l 554 306 l 279 306 l 279 0 l 93 0 l 93 738 l 279 738 l 279 472 l 554 472 l 554 738 l 740 738 l 740 472 l 795 472 q 993 447 934 472 q 1086 368 1052 422 q 1121 235 1121 313 q 1082 94 1121 151 q 984 19 1044 37 q 815 0 924 0 l 554 0 m 740 142 l 796 142 q 869 150 846 142 q 908 177 891 157 q 926 227 926 197 q 817 321 926 321 l 740 321 l 740 142 z "},"ћ":{"ha":833,"x_min":-12,"x_max":750,"o":"m 277 663 q 499 757 380 757 q 673 692 596 757 q 750 488 750 628 l 750 0 l 567 0 l 567 323 q 557 488 567 439 q 517 562 547 536 q 437 587 486 587 q 340 550 381 587 q 288 463 300 513 q 277 296 277 414 l 277 0 l 93 0 l 93 831 l -12 831 l -12 949 l 93 949 l 93 1023 l 277 1023 l 277 949 l 513 949 l 513 831 l 277 831 l 277 663 z "},"ќ":{"ha":746,"x_min":94,"x_max":764,"o":"m 94 738 l 279 738 l 279 462 l 534 738 l 760 738 l 431 378 l 764 0 l 518 0 l 298 260 l 279 237 l 279 0 l 94 0 l 94 738 m 481 1139 l 700 1139 l 452 873 l 319 873 l 481 1139 z "},"ў":{"ha":806,"x_min":12,"x_max":794,"o":"m 12 738 l 201 738 l 393 275 l 604 738 l 794 738 l 332 -270 l 140 -270 l 292 55 l 12 738 m 139 1063 l 289 1063 q 338 1022 307 1036 q 415 1008 370 1008 q 498 1024 461 1008 q 541 1063 523 1035 l 691 1063 q 609 925 678 977 q 414 873 539 873 q 274 896 330 873 q 182 963 217 920 q 139 1063 148 1006 z "},"џ":{"ha":833,"x_min":93,"x_max":740,"o":"m 93 0 l 93 738 l 279 738 l 279 178 l 554 178 l 554 738 l 740 738 l 740 0 l 503 0 l 503 -130 l 330 -130 l 330 0 l 93 0 z "},"Ґ":{"ha":667,"x_min":113,"x_max":633,"o":"m 113 998 l 451 998 l 451 1141 l 633 1141 l 633 812 l 301 812 l 301 0 l 113 0 l 113 998 z "},"ґ":{"ha":597,"x_min":94,"x_max":565,"o":"m 94 738 l 391 738 l 391 846 l 565 846 l 565 562 l 279 562 l 279 0 l 94 0 l 94 738 z "},"Ẁ":{"ha":1250,"x_min":38,"x_max":1215,"o":"m 38 998 l 225 998 l 369 361 l 547 998 l 705 998 l 886 361 l 1028 998 l 1215 998 l 991 0 l 808 0 l 625 645 l 444 0 l 264 0 l 38 998 m 594 1341 l 756 1075 l 623 1075 l 375 1341 l 594 1341 z "},"ẁ":{"ha":1111,"x_min":12,"x_max":1099,"o":"m 12 738 l 193 738 l 341 318 l 501 738 l 612 738 l 768 323 l 917 738 l 1099 738 l 830 0 l 713 0 l 555 420 l 393 0 l 277 0 l 12 738 m 523 1139 l 685 873 l 552 873 l 304 1139 l 523 1139 z "},"Ẃ":{"ha":1250,"x_min":38,"x_max":1215,"o":"m 38 998 l 225 998 l 369 361 l 547 998 l 705 998 l 886 361 l 1028 998 l 1215 998 l 991 0 l 808 0 l 625 645 l 444 0 l 264 0 l 38 998 m 659 1341 l 878 1341 l 630 1075 l 497 1075 l 659 1341 z "},"ẃ":{"ha":1111,"x_min":12,"x_max":1099,"o":"m 12 738 l 193 738 l 341 318 l 501 738 l 612 738 l 768 323 l 917 738 l 1099 738 l 830 0 l 713 0 l 555 420 l 393 0 l 277 0 l 12 738 m 588 1139 l 807 1139 l 559 873 l 426 873 l 588 1139 z "},"Ẅ":{"ha":1250,"x_min":38,"x_max":1215,"o":"m 38 998 l 225 998 l 369 361 l 547 998 l 705 998 l 886 361 l 1028 998 l 1215 998 l 991 0 l 808 0 l 625 645 l 444 0 l 264 0 l 38 998 m 476 1269 q 545 1240 517 1269 q 574 1172 574 1212 q 545 1103 574 1131 q 476 1074 517 1074 q 408 1103 436 1074 q 379 1172 379 1131 q 408 1240 379 1212 q 476 1269 436 1269 m 777 1269 q 846 1240 817 1269 q 874 1172 874 1212 q 846 1103 874 1131 q 777 1074 817 1074 q 708 1103 736 1074 q 680 1172 680 1131 q 708 1240 680 1212 q 777 1269 736 1269 z "},"ẅ":{"ha":1111,"x_min":12,"x_max":1099,"o":"m 12 738 l 193 738 l 341 318 l 501 738 l 612 738 l 768 323 l 917 738 l 1099 738 l 830 0 l 713 0 l 555 420 l 393 0 l 277 0 l 12 738 m 405 1067 q 474 1038 446 1067 q 503 970 503 1010 q 474 901 503 929 q 405 872 446 872 q 336 901 365 872 q 308 970 308 929 q 336 1038 308 1010 q 405 1067 365 1067 m 705 1067 q 774 1038 746 1067 q 803 970 803 1010 q 774 901 803 929 q 705 872 746 872 q 637 901 665 872 q 608 970 608 929 q 637 1038 608 1010 q 705 1067 665 1067 z "},"Ỳ":{"ha":861,"x_min":43,"x_max":819,"o":"m 43 998 l 247 998 l 433 640 l 617 998 l 819 998 l 527 432 l 527 0 l 336 0 l 336 432 l 43 998 m 398 1341 l 560 1075 l 427 1075 l 179 1341 l 398 1341 z "},"ỳ":{"ha":806,"x_min":12,"x_max":794,"o":"m 12 738 l 201 738 l 393 275 l 604 738 l 794 738 l 332 -270 l 140 -270 l 292 55 l 12 738 m 370 1139 l 532 873 l 399 873 l 151 1139 l 370 1139 z "},"―":{"ha":1042,"x_min":-8,"x_max":1050,"o":"m -8 318 l -8 482 l 1050 482 l 1050 318 l -8 318 z "},"‛":{"ha":389,"x_min":113,"x_max":283,"o":"m 283 1023 l 113 1023 l 113 929 q 135 775 113 840 q 209 642 157 711 l 275 694 q 238 758 250 731 q 215 829 227 785 l 283 829 l 283 1023 z "},"‾":{"ha":778,"x_min":-28,"x_max":806,"o":"m -28 1267 l 806 1267 l 806 1217 l -28 1217 l -28 1267 z "},"₤":{"ha":778,"x_min":33,"x_max":743,"o":"m 325 650 l 571 650 l 571 533 l 366 533 q 384 467 372 512 l 571 467 l 571 349 l 397 349 q 352 173 392 273 q 431 161 384 169 q 484 153 468 153 q 567 228 546 153 l 743 228 q 661 48 739 121 q 479 -25 584 -25 q 385 -16 452 -25 q 228 0 280 0 q 97 -23 158 0 l 33 138 q 141 168 92 163 q 204 349 199 267 l 37 349 l 37 467 l 191 467 q 168 533 186 486 l 37 533 l 37 650 l 125 650 q 109 750 109 703 q 194 951 109 879 q 400 1023 278 1023 q 602 949 517 1023 q 686 743 686 876 l 496 743 q 397 848 474 848 q 328 819 356 848 q 300 742 300 789 q 325 650 300 713 z "},"№":{"ha":1541,"x_min":113,"x_max":1490,"o":"m 113 998 l 295 998 l 723 341 l 723 998 l 913 998 l 913 0 l 730 0 l 303 654 l 303 0 l 113 0 l 113 998 m 1490 446 q 1420 279 1490 349 q 1252 209 1350 209 q 1083 278 1153 209 q 1014 446 1014 348 q 1084 614 1014 544 q 1252 684 1154 684 q 1420 614 1350 684 q 1490 446 1490 544 m 1367 446 q 1333 527 1367 494 q 1251 561 1299 561 q 1170 527 1204 561 q 1136 446 1136 494 q 1170 365 1136 398 q 1251 331 1203 331 q 1333 365 1299 331 q 1367 446 1367 399 m 1014 119 l 1490 119 l 1490 0 l 1014 0 l 1014 119 z "},"℮":{"ha":833,"x_min":61,"x_max":779,"o":"m 218 360 l 218 109 q 420 26 299 26 q 688 193 592 26 l 736 164 q 579 13 656 49 q 420 -23 503 -23 q 162 84 262 -23 q 61 360 61 192 q 162 637 61 531 q 420 743 264 743 q 668 647 565 743 q 779 360 771 551 l 218 360 m 622 410 l 622 612 q 418 694 538 694 q 218 611 300 694 l 218 410 l 622 410 z "},"⅛":{"ha":1166,"x_min":62,"x_max":1140,"o":"m 296 -25 l 721 1023 l 837 1023 l 412 -25 l 296 -25 m 140 1010 l 320 1010 l 320 497 l 193 497 l 193 903 l 62 903 l 140 1010 m 1058 278 q 1140 146 1140 228 q 1087 35 1140 82 q 931 -12 1034 -12 q 773 30 830 -12 q 715 146 715 72 q 795 278 715 227 q 743 381 743 321 q 794 485 743 444 q 928 526 846 526 q 1061 482 1011 526 q 1112 380 1112 439 q 1058 278 1112 327 m 987 373 q 924 420 987 420 q 883 407 898 420 q 867 373 867 393 q 884 335 867 351 q 927 320 900 320 q 971 335 955 320 q 987 373 987 351 m 1013 153 q 987 201 1013 184 q 929 218 962 218 q 867 200 894 218 q 841 155 841 182 q 863 112 841 130 q 927 93 886 93 q 1013 153 1013 93 z "},"⅜":{"ha":1166,"x_min":26,"x_max":1140,"o":"m 171 869 l 47 869 q 239 1023 73 1023 q 366 982 316 1023 q 416 886 416 941 q 353 785 416 821 q 423 732 397 768 q 449 655 449 696 q 389 536 449 587 q 231 485 328 485 q 83 534 138 485 q 26 665 28 584 l 151 665 q 237 590 161 590 q 294 607 268 590 q 321 652 321 623 q 187 723 321 722 l 187 817 q 292 872 292 817 q 278 904 292 890 q 241 918 264 918 q 171 869 195 918 m 313 -25 l 739 1023 l 854 1023 l 429 -25 l 313 -25 m 1058 278 q 1140 146 1140 228 q 1087 35 1140 82 q 931 -12 1034 -12 q 766 35 817 -12 q 715 146 715 82 q 795 278 715 227 q 743 381 743 321 q 795 485 743 444 q 928 526 846 526 q 1063 481 1014 526 q 1112 380 1112 437 q 1058 278 1112 327 m 987 373 q 924 420 987 420 q 883 407 898 420 q 867 373 867 393 q 885 335 867 350 q 927 320 902 320 q 971 335 955 320 q 987 373 987 351 m 1013 153 q 987 201 1013 184 q 929 218 962 218 q 868 200 894 218 q 842 155 842 182 q 864 112 842 130 q 928 93 886 93 q 1013 153 1013 93 z "},"⅝":{"ha":1166,"x_min":19,"x_max":1140,"o":"m 313 -25 l 738 1023 l 854 1023 l 429 -25 l 313 -25 m 139 1010 l 430 1010 l 430 907 l 235 907 l 216 833 q 251 835 239 835 q 382 787 326 835 q 438 664 438 739 q 377 537 438 589 q 229 485 317 485 q 94 523 153 485 q 19 631 35 562 l 152 631 q 231 589 178 589 q 288 608 264 589 q 312 661 312 627 q 290 710 312 691 q 237 730 268 730 q 170 703 202 730 l 66 723 l 139 1010 m 1058 278 q 1140 146 1140 228 q 1087 35 1140 82 q 930 -12 1034 -12 q 772 30 829 -12 q 715 146 715 72 q 795 278 715 227 q 743 381 743 321 q 794 485 743 444 q 928 526 846 526 q 1061 482 1011 526 q 1112 380 1112 439 q 1058 278 1112 327 m 986 373 q 924 420 986 420 q 882 407 897 420 q 867 373 867 393 q 883 335 867 351 q 926 320 900 320 q 970 335 955 320 q 986 373 986 351 m 1013 153 q 987 201 1013 184 q 928 218 962 218 q 867 200 894 218 q 841 155 841 182 q 863 112 841 130 q 927 93 886 93 q 1013 153 1013 93 z "},"⅞":{"ha":1166,"x_min":50,"x_max":1140,"o":"m 271 -25 l 695 1023 l 811 1023 l 387 -25 l 271 -25 m 50 1010 l 453 1010 l 453 955 l 183 485 l 81 538 l 292 907 l 50 907 l 50 1010 m 1058 278 q 1140 146 1140 228 q 1087 35 1140 82 q 930 -12 1034 -12 q 766 35 817 -12 q 715 146 715 82 q 795 278 715 227 q 743 381 743 321 q 794 485 743 444 q 928 526 846 526 q 1061 482 1011 526 q 1112 380 1112 439 q 1058 278 1112 327 m 986 373 q 924 420 986 420 q 882 407 897 420 q 867 373 867 393 q 883 335 867 351 q 926 320 900 320 q 970 335 955 320 q 986 373 986 351 m 1013 153 q 987 201 1013 184 q 928 218 962 218 q 867 200 894 218 q 841 155 841 182 q 863 112 841 130 q 927 93 886 93 q 1013 153 1013 93 z "}}}
